<svg width="13" height="18" viewBox="0 0 13 18" fill="none" xmlns="http://www.w3.org/2000/svg">
<g clip-path="url(#clip0_104_39)">
<path d="M4.62073 17.5284C4.46099 17.5284 4.31534 17.439 4.23547 17.2926C4.21668 17.2603 2.44779 14.0163 1.26384 11.6285C0.533266 10.1566 0.321846 9.35493 0.514473 8.77165C0.688308 8.24296 1.15108 8.02206 1.48936 7.86321C1.59037 7.81605 1.70313 7.79123 1.82058 7.79123C1.98267 7.79123 2.41256 7.79123 3.28643 8.70463V1.85162C3.28643 1.04991 3.92539 0.469109 4.80396 0.469109C5.53218 0.469109 6.12416 1.08963 6.12416 1.85162V4.80529C6.37786 4.66381 6.66211 4.58687 6.95809 4.58687C7.43731 4.58687 7.88599 4.78295 8.22427 5.14037C8.40045 5.32653 8.51556 5.55984 8.55549 5.8155C8.72698 5.74352 8.91021 5.7038 9.10049 5.7038C9.48809 5.7038 9.85455 5.86266 10.1271 6.15306C10.416 6.45835 10.5757 6.86293 10.5757 7.29481V7.32212C10.7355 7.26255 10.9046 7.23276 11.0761 7.23276C11.4825 7.23276 11.863 7.39906 12.152 7.70187C12.4104 7.9749 12.5513 8.33728 12.5513 8.722V13.3337C12.5513 14.0312 12.3939 14.7311 12.1003 15.3541L11.1959 17.2628C11.1207 17.4217 10.9657 17.5234 10.7965 17.5234H4.62073V17.5284Z" fill="#88F036"/>
<path d="M4.80392 0.940706C5.28079 0.940706 5.68014 1.34777 5.68014 1.85163V5.82295L6.00902 5.47545C6.26037 5.20987 6.60334 5.05847 6.96041 5.05847C7.31747 5.05847 7.6581 5.20739 7.9118 5.47545C8.05275 5.62438 8.13027 5.82295 8.13027 6.03392V6.76613L8.39102 6.49062C8.57895 6.29206 8.83735 6.17788 9.1028 6.17788C9.3706 6.17788 9.62665 6.28958 9.81458 6.49062C10.0166 6.70408 10.1317 6.99697 10.1317 7.29978V8.238L10.3173 8.04192C10.5193 7.82846 10.7918 7.70932 11.0784 7.70932C11.365 7.70932 11.6375 7.82846 11.8395 8.04192C12.011 8.22559 12.1097 8.47132 12.1097 8.72945V13.3411C12.1097 13.9691 11.9711 14.5896 11.7056 15.1506L10.8012 17.0593H4.62304C4.62304 17.0593 2.85416 13.8177 1.66081 11.4126C0.462758 9 0.826871 8.6947 1.67255 8.29509C1.71719 8.27275 1.76887 8.26282 1.82055 8.26282C2.35614 8.26282 3.23002 9.2904 3.674 9.86128C3.70689 9.90347 3.72333 9.92333 3.73273 9.92333C3.74917 9.92333 3.73273 9.85632 3.73273 9.75455V1.85163C3.73038 1.35025 4.13677 0.940706 4.80392 0.940706ZM4.80392 0C3.68339 0 2.84006 0.796746 2.84006 1.85163V7.69443C2.39373 7.38169 2.0719 7.31964 1.8182 7.31964C1.63732 7.31964 1.46583 7.35687 1.30609 7.43381C0.939628 7.60756 0.328859 7.89548 0.091598 8.61776C-0.148012 9.34749 0.0634087 10.2237 0.869155 11.8469C2.05781 14.2421 3.83139 17.4937 3.85018 17.5259C4.00992 17.8163 4.30356 17.9975 4.62069 17.9975H10.7989C11.1371 17.9975 11.4449 17.7965 11.5952 17.4763L12.4996 15.5676C12.8261 14.8776 12.9976 14.1081 12.9976 13.3362V8.72697C12.9976 8.21566 12.8097 7.73414 12.4667 7.37424C12.0956 6.98207 11.6023 6.76613 11.0761 6.76613C11.0361 6.76613 10.9962 6.76862 10.9563 6.7711C10.8693 6.41616 10.6932 6.09101 10.4418 5.82543C10.0824 5.44567 9.60551 5.23718 9.0981 5.23718C9.01119 5.23718 8.92427 5.24214 8.8397 5.25455C8.76218 5.09322 8.65882 4.94181 8.53432 4.81026C8.11148 4.36349 7.55004 4.11776 6.95336 4.11776C6.82181 4.11776 6.69026 4.13017 6.56341 4.15251V1.85163C6.57046 0.831495 5.77646 0 4.80392 0Z" fill="#012A30"/>
</g>
<defs>
<clipPath id="clip0_104_39">
<rect width="13" height="18" fill="white"/>
</clipPath>
</defs>
</svg>
