<svg width="252" height="52" viewBox="0 0 252 52" fill="none" xmlns="http://www.w3.org/2000/svg">
<path fill-rule="evenodd" clip-rule="evenodd" d="M22.947 2.65772C18.4092 2.65683 13.9731 3.99854 10.1996 6.51317C6.42616 9.02781 3.48486 12.6024 1.7477 16.785C0.010545 20.9675 -0.444439 25.57 0.440294 30.0105C1.32503 34.4511 3.50974 38.5301 6.71811 41.7317C9.92651 44.9334 14.0144 47.1138 18.465 47.9975C22.9155 48.881 27.5287 48.428 31.7212 46.6957C35.9137 44.9632 39.497 42.0294 42.0182 38.2651C44.5394 34.5008 45.8851 30.075 45.8851 25.5476C45.8779 19.4799 43.459 13.6625 39.1591 9.3715C34.859 5.08049 29.0287 2.66606 22.947 2.65772Z" fill="#16D34C"/>
<path fill-rule="evenodd" clip-rule="evenodd" d="M55.2705 51.1167H45.8849L59.8436 0.0219727H69.2247L55.2705 51.1167Z" fill="#002930"/>
<path fill-rule="evenodd" clip-rule="evenodd" d="M69.6488 51.1173H60.2678L74.2219 0H83.6074L69.6488 51.1173Z" fill="#002930"/>
<path d="M112.341 10.4129C112.341 14.6198 109.118 17.5294 105.118 17.5294H99.105V24.0244H94.7034V5.48991C94.7046 4.90972 94.9362 4.35363 95.3473 3.94337C95.7585 3.53311 96.3159 3.3021 96.8974 3.30091H105.118C106.066 3.27532 107.009 3.44108 107.89 3.78823C108.772 4.13537 109.574 4.65674 110.249 5.32103C110.924 5.98531 111.457 6.77878 111.816 7.6538C112.176 8.52882 112.355 9.46731 112.341 10.4129ZM104.78 13.3542C106.513 13.3542 107.877 12.2101 107.877 10.4129C107.877 8.71487 106.482 7.57081 104.78 7.57081H99.105V13.3542H104.78Z" fill="#002930"/>
<path d="M114.666 3.302H123.406C129.577 3.302 134.037 7.63046 134.037 13.6029V13.693C134.037 19.6609 129.577 24.0255 123.406 24.0255H114.666V3.302ZM119.067 7.57192V19.733H123.347C127.004 19.733 129.545 17.3234 129.545 13.702V13.6119C129.545 10.0086 127.004 7.58092 123.347 7.58092L119.067 7.57192Z" fill="#002930"/>
<path d="M154.264 10.4129C154.264 14.6198 151.04 17.5294 147.041 17.5294H141.014V24.0244H136.612V4.8323C136.613 4.42652 136.775 4.03769 137.063 3.75076C137.35 3.46382 137.741 3.30209 138.147 3.30091H147.041C147.988 3.27532 148.931 3.44108 149.812 3.78823C150.694 4.13537 151.496 4.65674 152.171 5.32103C152.846 5.98531 153.38 6.77878 153.738 7.6538C154.098 8.52882 154.276 9.46731 154.264 10.4129ZM146.702 13.3542C148.462 13.3542 149.839 12.174 149.799 10.3363C149.769 9.58682 149.446 8.87867 148.9 8.3623C148.356 7.84592 147.629 7.562 146.877 7.57081H141.009V13.3542H146.702Z" fill="#002930"/>
<path d="M115.037 37.578C115.276 44.0728 110.974 48.7841 104.654 48.7841C98.4687 48.7841 94.2703 44.1359 94.2703 38.4248C94.2703 32.7135 98.3649 27.9932 104.654 27.9932C109.642 27.9932 113.403 30.9749 114.585 35.1456H110.613C109.71 33.0604 107.507 31.4839 104.608 31.4839C100.455 31.5109 97.8593 34.6728 97.8593 38.3347C97.8593 42.1226 100.568 45.253 104.699 45.2799C107.922 45.3114 110.256 43.5504 111.019 40.929H104.55V37.5915L115.037 37.578Z" fill="#16D34C"/>
<path d="M131.971 42.1344H120.233C120.5 44.0442 122.116 45.562 124.445 45.6251C126.116 45.6521 127.578 44.9089 128.179 43.7154H131.732C130.774 46.9358 127.881 48.7826 124.382 48.7826C119.515 48.7826 116.676 45.1792 116.676 40.9724C116.676 36.5943 119.813 33.1353 124.382 33.1353C129.312 33.1353 132.418 37.0403 131.971 42.1344ZM120.292 39.3329H128.418C127.966 37.4862 126.413 36.2971 124.323 36.2971C122.233 36.2971 120.712 37.5177 120.292 39.3329Z" fill="#16D34C"/>
<path d="M148.697 39.8572V48.3791H145.263V40.3796C145.263 38.0556 143.858 36.5061 141.741 36.5061C139.483 36.5061 137.737 38.2628 137.737 40.8256V48.3655H134.301V33.5514H137.678V35.4567H137.795C138.358 34.7214 139.087 34.1282 139.923 33.7246C140.757 33.321 141.676 33.1181 142.603 33.1326C146.309 33.1371 148.697 35.6728 148.697 39.8572Z" fill="#16D34C"/>
<path d="M166.142 42.1344H154.405C154.67 44.0442 156.287 45.562 158.616 45.6251C160.287 45.6521 161.749 44.9089 162.349 43.7154H165.903C164.946 46.9358 162.052 48.7826 158.554 48.7826C153.686 48.7826 150.847 45.1792 150.847 40.9724C150.847 36.5943 153.984 33.1353 158.554 33.1353C163.483 33.1353 166.588 37.0403 166.142 42.1344ZM154.463 39.3329H162.59C162.138 37.4862 160.584 36.2971 158.494 36.2971C156.405 36.2971 154.883 37.5177 154.463 39.3329Z" fill="#16D34C"/>
<path d="M178.924 33.5505V37.0052H175.846C173.517 37.0052 171.904 38.5547 171.904 41.1175V48.3602H168.469V33.5505H171.788V35.9919H171.904C172.564 34.4514 173.995 33.5505 175.932 33.5505H178.924Z" fill="#16D34C"/>
<path d="M192.1 33.5506H195.504V48.3601H192.1V46.2161H191.951C191.395 47.0342 190.639 47.6981 189.756 48.1463C188.873 48.5944 187.89 48.8121 186.899 48.7791C182.719 48.8375 179.582 45.6261 179.582 40.9689C179.582 36.3116 182.628 33.1047 186.899 33.1318C189.202 33.1632 190.962 34.1767 191.951 35.6045H192.1V33.5506ZM192.068 40.9418C192.068 38.4061 190.262 36.3792 187.59 36.3792C186.403 36.4164 185.277 36.9132 184.449 37.7644C183.623 38.6155 183.161 39.7544 183.161 40.9396C183.161 42.1249 183.623 43.2636 184.449 44.1148C185.277 44.966 186.403 45.4627 187.59 45.5C190.277 45.5045 192.068 43.4596 192.068 40.9463V40.9418Z" fill="#16D34C"/>
<path d="M209.898 36.8917H203.469V43.747C203.455 43.9249 203.48 44.1039 203.545 44.2706C203.609 44.4374 203.71 44.5875 203.839 44.7104C203.969 44.8331 204.125 44.9252 204.295 44.9799C204.465 45.0345 204.646 45.0504 204.824 45.0261H209.902V48.3638H204.133C201.564 48.3638 200.038 46.8729 200.038 44.3416V36.8917H197.65V33.5496H200.038V28.397H203.469V33.5496H209.893L209.898 36.8917Z" fill="#16D34C"/>
<path d="M215.964 27.3682V31.4219H212.528V27.3682H215.964ZM215.964 33.5568V48.3664H212.528V33.5523L215.964 33.5568Z" fill="#16D34C"/>
<path d="M218.37 40.9453C218.37 36.5628 221.529 33.1353 226.406 33.1353C231.187 33.1353 234.32 36.5628 234.32 40.9453C234.32 45.3279 231.159 48.7826 226.406 48.7826C221.529 48.7826 218.37 45.3234 218.37 40.9453ZM230.884 40.9724C230.884 39.7777 230.409 38.6321 229.561 37.7875C228.715 36.9428 227.567 36.4683 226.369 36.4683C225.172 36.4683 224.023 36.9428 223.178 37.7875C222.33 38.6321 221.855 39.7777 221.855 40.9724C221.855 42.167 222.33 43.3126 223.178 44.1573C224.023 45.002 225.172 45.4764 226.369 45.4764C227.567 45.4764 228.715 45.002 229.561 44.1573C230.409 43.3126 230.884 42.167 230.884 40.9724Z" fill="#16D34C"/>
<path d="M251.001 39.8567V48.3784H247.566V40.3792C247.566 38.055 246.162 36.5057 244.04 36.5057C241.782 36.5057 240.04 38.2622 240.04 40.825V48.3649H236.604V33.5509H239.976V35.4561H240.098C240.662 34.7209 241.39 34.1275 242.226 33.7239C243.061 33.3204 243.979 33.1176 244.907 33.1321C248.617 33.1366 251.001 35.6724 251.001 39.8567Z" fill="#16D34C"/>
</svg>
