<svg width="2472" height="1491" viewBox="0 0 2472 1491" fill="none" xmlns="http://www.w3.org/2000/svg">
<g clip-path="url(#clip0_86_51)">
<mask id="mask0_86_51" style="mask-type:luminance" maskUnits="userSpaceOnUse" x="0" y="0" width="2472" height="1491">
<path d="M2425.65 0H46.35C20.7516 0 0 20.7526 0 46.3523V1444.65C0 1470.25 20.7516 1491 46.35 1491H2425.65C2451.25 1491 2472 1470.25 2472 1444.65V46.3523C2472 20.7526 2451.25 0 2425.65 0Z" fill="white"/>
</mask>
<g mask="url(#mask0_86_51)">
<path d="M2425.65 0H46.35C20.7516 0 0 20.7526 0 46.3523V1444.65C0 1470.25 20.7516 1491 46.35 1491H2425.65C2451.25 1491 2472 1470.25 2472 1444.65V46.3523C2472 20.7526 2451.25 0 2425.65 0Z" fill="white"/>
<path d="M1235.81 -4989.07C4403.14 -4989.07 6970.74 -2421.37 6970.74 746.101H6971.62C6971.62 -2421.85 4403.6 -4990 1235.81 -4990V-4989.07ZM6970.74 746.101C6970.74 3913.57 4403.14 6481.27 1235.81 6481.27V6482.2C4403.6 6482.2 6971.62 3914.07 6971.62 746.101H6970.74ZM1235.81 6481.27C-1931.5 6481.27 -4499.11 3913.57 -4499.11 746.101H-4500C-4500 3914.07 -1931.99 6482.2 1235.81 6482.2V6481.27ZM-4499.11 746.101C-4499.11 -2421.37 -1931.5 -4989.07 1235.81 -4989.07V-4990C-1931.99 -4990 -4500 -2421.85 -4500 746.101H-4499.11ZM1235.8 -4890.23C4348.52 -4890.23 6871.9 -2366.77 6871.9 746.105H6872.78C6872.78 -2367.25 4349.03 -4891.12 1235.8 -4891.12V-4890.23ZM6871.9 746.105C6871.9 3858.97 4348.52 6382.43 1235.8 6382.43V6383.36C4349.03 6383.36 6872.78 3859.45 6872.78 746.105H6871.9ZM1235.8 6382.43C-1876.92 6382.43 -4400.27 3858.97 -4400.27 746.105H-4401.16C-4401.16 3859.45 -1877.41 6383.36 1235.8 6383.36V6382.43ZM-4400.27 746.105C-4400.27 -2366.77 -1876.92 -4890.23 1235.8 -4890.23V-4891.12C-1877.41 -4891.12 -4401.16 -2367.25 -4401.16 746.105H-4400.27ZM1235.79 -4791.42C4293.91 -4791.42 6773.02 -2312.19 6773.02 746.092H6773.9C6773.9 -2312.67 4294.41 -4792.31 1235.79 -4792.31V-4791.42ZM6773.02 746.092C6773.02 3804.35 4293.91 6283.58 1235.79 6283.58V6284.47C4294.41 6284.47 6773.9 3804.87 6773.9 746.092H6773.02ZM1235.79 6283.58C-1822.34 6283.58 -4301.45 3804.35 -4301.45 746.092H-4302.34C-4302.34 3804.87 -1822.83 6284.47 1235.79 6284.47V6283.58ZM-4301.45 746.092C-4301.45 -2312.19 -1822.34 -4791.42 1235.79 -4791.42V-4792.31C-1822.83 -4792.31 -4302.34 -2312.67 -4302.34 746.092H-4301.45ZM1235.81 -4692.57C4239.35 -4692.57 6674.21 -2257.59 6674.21 746.095H6675.08C6675.08 -2258.07 4239.83 -4693.44 1235.81 -4693.44V-4692.57ZM6674.21 746.095C6674.21 3749.77 4239.35 6184.74 1235.81 6184.74V6185.62C4239.83 6185.62 6675.08 3750.27 6675.08 746.095H6674.21ZM1235.81 6184.74C-1767.73 6184.74 -4202.57 3749.77 -4202.57 746.095H-4203.46C-4203.46 3750.27 -1768.22 6185.62 1235.81 6185.62V6184.74ZM-4202.57 746.095C-4202.57 -2257.59 -1767.73 -4692.57 1235.81 -4692.57V-4693.44C-1768.22 -4693.44 -4203.46 -2258.07 -4203.46 746.095H-4202.57ZM1235.82 -4593.71C4184.77 -4593.71 6575.35 -2202.99 6575.35 746.095H6576.24C6576.24 -2203.47 4185.24 -4594.6 1235.82 -4594.6V-4593.71ZM6575.35 746.095C6575.35 3695.19 4184.77 6085.89 1235.82 6085.89V6086.78C4185.24 6086.78 6576.24 3695.65 6576.24 746.095H6575.35ZM1235.82 6085.89C-1713.13 6085.89 -4103.73 3695.19 -4103.73 746.095H-4104.62C-4104.62 3695.65 -1713.62 6086.78 1235.82 6086.78V6085.89ZM-4103.73 746.095C-4103.73 -2202.99 -1713.13 -4593.71 1235.82 -4593.71V-4594.6C-1713.62 -4594.6 -4104.62 -2203.47 -4104.62 746.095H-4103.73ZM1235.82 -4494.84C4130.2 -4494.84 6476.51 -2148.39 6476.51 746.097H6477.4C6477.4 -2148.89 4130.66 -4495.71 1235.82 -4495.71V-4494.84ZM6476.51 746.097C6476.51 3640.59 4130.2 5987.02 1235.82 5987.02V5987.91C4130.66 5987.91 6477.4 3641.07 6477.4 746.097H6476.51ZM1235.82 5987.02C-1658.53 5987.02 -4004.89 3640.59 -4004.89 746.097H-4005.77C-4005.77 3641.07 -1659.03 5987.91 1235.82 5987.91V5987.02ZM-4004.89 746.097C-4004.89 -2148.39 -1658.53 -4494.84 1235.82 -4494.84V-4495.71C-1659.03 -4495.71 -4005.77 -2148.89 -4005.77 746.097H-4004.89ZM1235.81 -4395.98C4075.58 -4395.98 6377.67 -2093.81 6377.67 746.097H6378.56C6378.56 -2094.29 4076.08 -4396.86 1235.81 -4396.86V-4395.98ZM6377.67 746.097C6377.67 3586.01 4075.58 5888.18 1235.81 5888.18V5889.07C4076.08 5889.07 6378.56 3586.49 6378.56 746.097H6377.67ZM1235.81 5888.18C-1603.95 5888.18 -3906.04 3586.01 -3906.04 746.097H-3906.93C-3906.93 3586.49 -1604.44 5889.07 1235.81 5889.07V5888.18ZM-3906.04 746.097C-3906.04 -2093.81 -1603.95 -4395.98 1235.81 -4395.98V-4396.86C-1604.44 -4396.86 -3906.93 -2094.29 -3906.93 746.097H-3906.04ZM1235.8 -4297.13C4020.98 -4297.13 6278.79 -2039.21 6278.79 746.101H6279.68C6279.68 -2039.69 4021.47 -4298.02 1235.8 -4298.02V-4297.13ZM6278.79 746.101C6278.79 3531.39 4020.98 5789.33 1235.8 5789.33V5790.22C4021.47 5790.22 6279.68 3531.9 6279.68 746.101H6278.79ZM1235.8 5789.33C-1549.37 5789.33 -3807.2 3531.39 -3807.2 746.101H-3808.09C-3808.09 3531.9 -1549.86 5790.22 1235.8 5790.22V5789.33ZM-3807.2 746.101C-3807.2 -2039.21 -1549.37 -4297.13 1235.8 -4297.13V-4298.02C-1549.86 -4298.02 -3808.09 -2039.69 -3808.09 746.101H-3807.2ZM1235.82 -4198.28C3966.41 -4198.28 6179.97 -1984.61 6179.97 746.105H6180.86C6180.86 -1985.09 3966.89 -4199.17 1235.82 -4199.17V-4198.28ZM6179.97 746.105C6179.97 3476.81 3966.41 5690.49 1235.82 5690.49V5691.37C3966.89 5691.37 6180.86 3477.32 6180.86 746.105H6179.97ZM1235.82 5690.49C-1494.76 5690.49 -3708.34 3476.81 -3708.34 746.105H-3709.23C-3709.23 3477.32 -1495.26 5691.37 1235.82 5691.37V5690.49ZM-3708.34 746.105C-3708.34 -1984.61 -1494.76 -4198.28 1235.82 -4198.28V-4199.17C-1495.26 -4199.17 -3709.23 -1985.09 -3709.23 746.105H-3708.34ZM1235.83 -4099.44C3911.83 -4099.44 6081.13 -1930.01 6081.13 746.105H6082.01C6082.01 -1930.5 3912.29 -4100.33 1235.83 -4100.33V-4099.44ZM6081.13 746.105C6081.13 3422.21 3911.83 5591.64 1235.83 5591.64V5592.53C3912.29 5592.53 6082.01 3422.74 6082.01 746.105H6081.13ZM1235.83 5591.64C-1440.16 5591.64 -3609.48 3422.21 -3609.48 746.105H-3610.37C-3610.37 3422.74 -1440.65 5592.53 1235.83 5592.53V5591.64ZM-3609.48 746.105C-3609.48 -1930.01 -1440.16 -4099.44 1235.83 -4099.44V-4100.33C-1440.65 -4100.33 -3610.37 -1930.5 -3610.37 746.105H-3609.48ZM1235.83 -4000.59C3857.23 -4000.59 5982.28 -1875.42 5982.28 746.109H5983.17C5983.17 -1875.91 3857.72 -4001.46 1235.83 -4001.46V-4000.59ZM5982.28 746.109C5982.28 3367.63 3857.23 5492.79 1235.83 5492.79V5493.68C3857.72 5493.68 5983.17 3368.12 5983.17 746.109H5982.28ZM1235.83 5492.79C-1385.57 5492.79 -3510.62 3367.63 -3510.62 746.109H-3511.51C-3511.51 3368.12 -1386.06 5493.68 1235.83 5493.68V5492.79ZM-3510.62 746.109C-3510.62 -1875.42 -1385.57 -4000.59 1235.83 -4000.59V-4001.46C-1386.06 -4001.46 -3511.51 -1875.91 -3511.51 746.109H-3510.62ZM1235.81 -3901.76C3802.62 -3901.76 5883.44 -1820.84 5883.44 746.085H5884.33C5884.33 -1821.34 3803.1 -3902.65 1235.81 -3902.65V-3901.76ZM5883.44 746.085C5883.44 3313.02 3802.62 5393.93 1235.81 5393.93V5394.81C3803.1 5394.81 5884.33 3313.5 5884.33 746.085H5883.44ZM1235.81 5393.93C-1331 5393.93 -3411.82 3313.02 -3411.82 746.085H-3412.71C-3412.71 3313.5 -1331.49 5394.81 1235.81 5394.81V5393.93ZM-3411.82 746.085C-3411.82 -1820.84 -1331 -3901.76 1235.81 -3901.76V-3902.65C-1331.49 -3902.65 -3412.71 -1821.34 -3412.71 746.085H-3411.82ZM1235.8 -3802.92C3748 -3802.92 5784.56 -1766.25 5784.56 746.085H5785.45C5785.45 -1766.74 3748.52 -3803.81 1235.8 -3803.81V-3802.92ZM5784.56 746.085C5784.56 3258.42 3748 5295.08 1235.8 5295.08V5295.97C3748.52 5295.97 5785.45 3258.92 5785.45 746.085H5784.56ZM1235.8 5295.08C-1276.42 5295.08 -3312.98 3258.42 -3312.98 746.085H-3313.86C-3313.86 3258.92 -1276.91 5295.97 1235.8 5295.97V5295.08ZM-3312.98 746.085C-3312.98 -1766.25 -1276.42 -3802.92 1235.8 -3802.92V-3803.81C-1276.91 -3803.81 -3313.86 -1766.74 -3313.86 746.085H-3312.98ZM1235.8 -3704.03C3693.42 -3704.03 5685.72 -1711.64 5685.72 746.101H5686.61C5686.61 -1712.13 3693.91 -3704.92 1235.8 -3704.92V-3704.03ZM5685.72 746.101C5685.72 3203.84 3693.42 5196.23 1235.8 5196.23V5197.12C3693.91 5197.12 5686.61 3204.34 5686.61 746.101H5685.72ZM1235.8 5196.23C-1221.82 5196.23 -3214.12 3203.84 -3214.12 746.101H-3215C-3215 3204.34 -1222.32 5197.12 1235.8 5197.12V5196.23ZM-3214.12 746.101C-3214.12 -1711.64 -1221.82 -3704.03 1235.8 -3704.03V-3704.92C-1222.32 -3704.92 -3215 -1712.13 -3215 746.101H-3214.12ZM1235.77 -3605.19C3638.81 -3605.19 5586.84 -1657.05 5586.84 746.101H5587.73C5587.73 -1657.54 3639.31 -3606.07 1235.77 -3606.07V-3605.19ZM5586.84 746.101C5586.84 3149.26 3638.81 5097.39 1235.77 5097.39V5098.28C3639.31 5098.28 5587.73 3149.74 5587.73 746.101H5586.84ZM1235.77 5097.39C-1167.26 5097.39 -3115.31 3149.26 -3115.31 746.101H-3116.2C-3116.2 3149.74 -1167.75 5098.28 1235.77 5098.28V5097.39ZM-3115.31 746.101C-3115.31 -1657.05 -1167.26 -3605.19 1235.77 -3605.19V-3606.07C-1167.75 -3606.07 -3116.2 -1657.54 -3116.2 746.101H-3115.31ZM1235.84 -3506.34C3584.29 -3506.34 5488.06 -1602.44 5488.06 746.117H5488.99C5488.99 -1602.93 3584.77 -3507.23 1235.84 -3507.23V-3506.34ZM5488.06 746.117C5488.06 3094.68 3584.29 4998.56 1235.84 4998.56V4999.45C3584.77 4999.45 5488.99 3095.16 5488.99 746.117H5488.06ZM1235.84 4998.56C-1112.6 4998.56 -3016.39 3094.68 -3016.39 746.117H-3017.28C-3017.28 3095.16 -1113.09 4999.45 1235.84 4999.45V4998.56ZM-3016.39 746.117C-3016.39 -1602.44 -1112.6 -3506.34 1235.84 -3506.34V-3507.23C-1113.09 -3507.23 -3017.28 -1602.93 -3017.28 746.117H-3016.39ZM1235.82 -3407.47C3529.67 -3407.47 5389.22 -1547.87 5389.22 746.095H5390.1C5390.1 -1548.36 3530.16 -3408.36 1235.82 -3408.36V-3407.47ZM5389.22 746.095C5389.22 3040.06 3529.67 4899.68 1235.82 4899.68V4900.56C3530.16 4900.56 5390.1 3040.54 5390.1 746.095H5389.22ZM1235.82 4899.68C-1058.03 4899.68 -2917.55 3040.06 -2917.55 746.095H-2918.44C-2918.44 3040.54 -1058.52 4900.56 1235.82 4900.56V4899.68ZM-2917.55 746.095C-2917.55 -1547.87 -1058.03 -3407.47 1235.82 -3407.47V-3408.36C-1058.52 -3408.36 -2918.44 -1548.36 -2918.44 746.095H-2917.55ZM1235.81 -3308.63C3475.06 -3308.63 5290.34 -1493.27 5290.34 746.095H5291.22C5291.22 -1493.76 3475.56 -3309.52 1235.81 -3309.52V-3308.63ZM5290.34 746.095C5290.34 2985.46 3475.06 4800.83 1235.81 4800.83V4801.72C3475.56 4801.72 5291.22 2985.96 5291.22 746.095H5290.34ZM1235.81 4800.83C-1003.45 4800.83 -2818.75 2985.46 -2818.75 746.095H-2819.64C-2819.64 2985.96 -1003.94 4801.72 1235.81 4801.72V4800.83ZM-2818.75 746.095C-2818.75 -1493.27 -1003.45 -3308.63 1235.81 -3308.63V-3309.52C-1003.94 -3309.52 -2819.64 -1493.76 -2819.64 746.095H-2818.75ZM1235.81 -3209.78C3420.48 -3209.78 5191.5 -1438.69 5191.5 746.085H5192.38C5192.38 -1439.18 3420.96 -3210.71 1235.81 -3210.71V-3209.78ZM5191.5 746.085C5191.5 2930.86 3420.48 4701.94 1235.81 4701.94V4702.87C3420.96 4702.87 5192.38 2931.34 5192.38 746.085H5191.5ZM1235.81 4701.94C-948.858 4701.94 -2719.89 2930.86 -2719.89 746.085H-2720.78C-2720.78 2931.34 -949.349 4702.87 1235.81 4702.87V4701.94ZM-2719.89 746.085C-2719.89 -1438.69 -948.858 -3209.78 1235.81 -3209.78V-3210.71C-949.349 -3210.71 -2720.78 -1439.18 -2720.78 746.085H-2719.89ZM1235.79 -3110.93C3365.87 -3110.93 5092.65 -1384.09 5092.65 746.085H5093.54C5093.54 -1384.58 3366.35 -3111.82 1235.79 -3111.82V-3110.93ZM5092.65 746.085C5092.65 2876.26 3365.87 4603.1 1235.79 4603.1V4604.03C3366.35 4604.03 5093.54 2876.76 5093.54 746.085H5092.65ZM1235.79 4603.1C-894.291 4603.1 -2621.07 2876.26 -2621.07 746.085H-2621.96C-2621.96 2876.76 -894.783 4604.03 1235.79 4604.03V4603.1ZM-2621.07 746.085C-2621.07 -1384.09 -894.291 -3110.93 1235.79 -3110.93V-3111.82C-894.783 -3111.82 -2621.96 -1384.58 -2621.96 746.085H-2621.07ZM1235.81 -3012.09C3311.31 -3012.09 4993.79 -1329.49 4993.79 746.089H4994.68C4994.68 -1329.99 3311.79 -3012.98 1235.81 -3012.98V-3012.09ZM4993.79 746.089C4993.79 2821.68 3311.31 4504.25 1235.81 4504.25V4505.18C3311.79 4505.18 4994.68 2822.16 4994.68 746.089H4993.79ZM1235.81 4504.25C-839.673 4504.25 -2522.19 2821.68 -2522.19 746.089H-2523.08C-2523.08 2822.16 -840.165 4505.18 1235.81 4505.18V4504.25ZM-2522.19 746.089C-2522.19 -1329.49 -839.673 -3012.09 1235.81 -3012.09V-3012.98C-840.165 -3012.98 -2523.08 -1329.99 -2523.08 746.089H-2522.19ZM1235.84 -2913.22C3256.73 -2913.22 4894.99 -1274.87 4894.99 746.117H4895.88C4895.88 -1275.36 3257.23 -2914.11 1235.84 -2914.11V-2913.22ZM4894.99 746.117C4894.99 2767.1 3256.73 4405.44 1235.84 4405.44V4406.31C3257.23 4406.31 4895.88 2767.6 4895.88 746.117H4894.99ZM1235.84 4405.44C-785.053 4405.44 -2423.32 2767.1 -2423.32 746.117H-2424.2C-2424.2 2767.6 -785.544 4406.31 1235.84 4406.31V4405.44ZM-2423.32 746.117C-2423.32 -1274.87 -785.053 -2913.22 1235.84 -2913.22V-2914.11C-785.544 -2914.11 -2424.2 -1275.36 -2424.2 746.117H-2423.32ZM1235.83 -2814.38C3202.13 -2814.38 4796.15 -1220.29 4796.15 746.105H4797.04C4797.04 -1220.78 3202.62 -2815.26 1235.83 -2815.26V-2814.38ZM4796.15 746.105C4796.15 2712.5 3202.13 4306.58 1235.83 4306.58V4307.47C3202.62 4307.47 4797.04 2712.98 4797.04 746.105H4796.15ZM1235.83 4306.58C-730.474 4306.58 -2324.48 2712.5 -2324.48 746.105H-2325.37C-2325.37 2712.98 -730.965 4307.47 1235.83 4307.47V4306.58ZM-2324.48 746.105C-2324.48 -1220.29 -730.474 -2814.38 1235.83 -2814.38V-2815.26C-730.965 -2815.26 -2325.37 -1220.78 -2325.37 746.105H-2324.48ZM1235.81 -2715.53C3147.52 -2715.53 4697.27 -1165.71 4697.27 746.095H4698.16C4698.16 -1166.2 3148 -2716.42 1235.81 -2716.42V-2715.53ZM4697.27 746.095C4697.27 2657.9 3147.52 4207.73 1235.81 4207.73V4208.62C3148 4208.62 4698.16 2658.39 4698.16 746.095H4697.27ZM1235.81 4207.73C-675.906 4207.73 -2225.66 2657.9 -2225.66 746.095H-2226.55C-2226.55 2658.39 -676.397 4208.62 1235.81 4208.62V4207.73ZM-2225.66 746.095C-2225.66 -1165.71 -675.906 -2715.53 1235.81 -2715.53V-2716.42C-676.397 -2716.42 -2226.55 -1166.2 -2226.55 746.095H-2225.66ZM1235.81 -2616.68C3092.92 -2616.68 4598.43 -1111.11 4598.43 746.097H4599.32C4599.32 -1111.6 3093.42 -2617.57 1235.81 -2617.57V-2616.68ZM4598.43 746.097C4598.43 2603.3 3092.92 4108.89 1235.81 4108.89V4109.77C3093.42 4109.77 4599.32 2603.81 4599.32 746.097H4598.43ZM1235.81 4108.89C-621.314 4108.89 -2126.81 2603.3 -2126.81 746.097H-2127.7C-2127.7 2603.81 -621.804 4109.77 1235.81 4109.77V4108.89ZM-2126.81 746.097C-2126.81 -1111.11 -621.314 -2616.68 1235.81 -2616.68V-2617.57C-621.804 -2617.57 -2127.7 -1111.6 -2127.7 746.097H-2126.81ZM1235.82 -2517.82C3038.34 -2517.82 4499.61 -1056.52 4499.61 746.097H4500.49C4500.49 -1057.01 3038.85 -2518.71 1235.82 -2518.71V-2517.82ZM4499.61 746.097C4499.61 2548.7 3038.34 4010.04 1235.82 4010.04V4010.93C3038.85 4010.93 4500.49 2549.21 4500.49 746.097H4499.61ZM1235.82 4010.04C-566.708 4010.04 -2027.95 2548.7 -2027.95 746.097H-2028.84C-2028.84 2549.21 -567.199 4010.93 1235.82 4010.93V4010.04ZM-2027.95 746.097C-2027.95 -1056.52 -566.708 -2517.82 1235.82 -2517.82V-2518.71C-567.199 -2518.71 -2028.84 -1057.01 -2028.84 746.097H-2027.95ZM1235.83 -2418.97C2983.77 -2418.97 4400.76 -1001.91 4400.76 746.115H4401.65C4401.65 -1002.4 2984.25 -2419.84 1235.83 -2419.84V-2418.97ZM4400.76 746.115C4400.76 2494.12 2983.77 3911.19 1235.83 3911.19V3912.06C2984.25 3912.06 4401.65 2494.63 4401.65 746.115H4400.76ZM1235.83 3911.19C-512.115 3911.19 -1929.1 2494.12 -1929.1 746.115H-1929.99C-1929.99 2494.63 -512.606 3912.06 1235.83 3912.06V3911.19ZM-1929.1 746.115C-1929.1 -1001.91 -512.115 -2418.97 1235.83 -2418.97V-2419.84C-512.606 -2419.84 -1929.99 -1002.4 -1929.99 746.115H-1929.1ZM1235.8 -2320.14C2929.15 -2320.14 4301.88 -947.339 4301.88 746.089H4302.77C4302.77 -947.83 2929.63 -2321.01 1235.8 -2321.01V-2320.14ZM4301.88 746.089C4301.88 2439.53 2929.15 3812.31 1235.8 3812.31V3813.2C2929.63 3813.2 4302.77 2440.01 4302.77 746.089H4301.88ZM1235.8 3812.31C-457.547 3812.31 -1830.28 2439.53 -1830.28 746.089H-1831.17C-1831.17 2440.01 -458.038 3813.2 1235.8 3813.2V3812.31ZM-1830.28 746.089C-1830.28 -947.339 -457.547 -2320.14 1235.8 -2320.14V-2321.01C-458.038 -2321.01 -1831.17 -947.83 -1831.17 746.089H-1830.28ZM1235.82 -2221.28C2874.57 -2221.28 4203.04 -892.743 4203.04 746.092H4203.93C4203.93 -893.234 2875.06 -2222.17 1235.82 -2222.17V-2221.28ZM4203.04 746.092C4203.04 2384.93 2874.57 3713.46 1235.82 3713.46V3714.33C2875.06 3714.33 4203.93 2385.41 4203.93 746.092H4203.04ZM1235.82 3713.46C-402.942 3713.46 -1731.42 2384.93 -1731.42 746.092H-1732.3C-1732.3 2385.41 -403.433 3714.33 1235.82 3714.33V3713.46ZM-1731.42 746.092C-1731.42 -892.743 -402.942 -2221.28 1235.82 -2221.28V-2222.17C-403.433 -2222.17 -1732.3 -893.234 -1732.3 746.092H-1731.42ZM1235.82 -2122.41C2819.98 -2122.41 4104.2 -838.135 4104.2 746.109H4105.09C4105.09 -838.626 2820.48 -2123.3 1235.82 -2123.3V-2122.41ZM4104.2 746.109C4104.2 2330.35 2819.98 3614.63 1235.82 3614.63V3615.52C2820.48 3615.52 4105.09 2330.85 4105.09 746.109H4104.2ZM1235.82 3614.63C-348.35 3614.63 -1632.57 2330.35 -1632.57 746.109H-1633.46C-1633.46 2330.85 -348.84 3615.52 1235.82 3615.52V3614.63ZM-1632.57 746.109C-1632.57 -838.135 -348.35 -2122.41 1235.82 -2122.41V-2123.3C-348.84 -2123.3 -1633.46 -838.626 -1633.46 746.109H-1632.57ZM1235.81 -2023.57C2765.38 -2023.57 4005.34 -783.54 4005.34 746.109H4006.23C4006.23 -784.03 2765.86 -2024.46 1235.81 -2024.46V-2023.57ZM4005.34 746.109C4005.34 2275.75 2765.38 3515.79 1235.81 3515.79V3516.68C2765.86 3516.68 4006.23 2276.25 4006.23 746.109H4005.34ZM1235.81 3515.79C-293.768 3515.79 -1533.73 2275.75 -1533.73 746.109H-1534.62C-1534.62 2276.25 -294.259 3516.68 1235.81 3516.68V3515.79ZM-1533.73 746.109C-1533.73 -783.54 -293.768 -2023.57 1235.81 -2023.57V-2024.46C-294.259 -2024.46 -1534.62 -784.03 -1534.62 746.109H-1533.73ZM1235.82 -1924.7C2710.8 -1924.7 3906.5 -728.942 3906.5 746.11H3907.39C3907.39 -729.437 2711.29 -1925.61 1235.82 -1925.61V-1924.7ZM3906.5 746.11C3906.5 2221.17 2710.8 3416.94 1235.82 3416.94V3417.83C2711.29 3417.83 3907.39 2221.65 3907.39 746.11H3906.5ZM1235.82 3416.94C-239.161 3416.94 -1434.87 2221.17 -1434.87 746.11H-1435.76C-1435.76 2221.65 -239.651 3417.83 1235.82 3417.83V3416.94ZM-1434.87 746.11C-1434.87 -728.942 -239.161 -1924.7 1235.82 -1924.7V-1925.61C-239.651 -1925.61 -1435.76 -729.437 -1435.76 746.11H-1434.87ZM1235.85 -1825.85C2656.25 -1825.85 3807.7 -674.334 3807.7 746.126H3808.58C3808.58 -674.824 2656.73 -1826.73 1235.85 -1826.73V-1825.85ZM3807.7 746.126C3807.7 2166.59 2656.25 3318.1 1235.85 3318.1V3318.98C2656.73 3318.98 3808.58 2167.07 3808.58 746.126H3807.7ZM1235.85 3318.1C-184.543 3318.1 -1336 2166.59 -1336 746.126H-1336.89C-1336.89 2167.07 -185.033 3318.98 1235.85 3318.98V3318.1ZM-1336 746.126C-1336 -674.334 -184.543 -1825.85 1235.85 -1825.85V-1826.73C-185.033 -1826.73 -1336.89 -674.824 -1336.89 746.126H-1336ZM1235.83 -1727.02C2601.63 -1727.02 3708.82 -619.763 3708.82 746.101H3709.72C3709.72 -620.254 2602.11 -1727.91 1235.83 -1727.91V-1727.02ZM3708.82 746.101C3708.82 2111.97 2601.63 3219.21 1235.83 3219.21V3220.12C2602.11 3220.12 3709.72 2112.45 3709.72 746.101H3708.82ZM1235.83 3219.21C-129.973 3219.21 -1237.17 2111.97 -1237.17 746.101H-1238.06C-1238.06 2112.45 -130.466 3220.12 1235.83 3220.12V3219.21ZM-1237.17 746.101C-1237.17 -619.763 -129.973 -1727.02 1235.83 -1727.02V-1727.91C-130.466 -1727.91 -1238.06 -620.254 -1238.06 746.101H-1237.17ZM1235.82 -1628.16C2547.03 -1628.16 3609.97 -565.168 3609.97 746.105H3610.86C3610.86 -565.658 2547.52 -1629.05 1235.82 -1629.05V-1628.16ZM3609.97 746.105C3609.97 2057.37 2547.03 3120.36 1235.82 3120.36V3121.25C2547.52 3121.25 3610.86 2057.87 3610.86 746.105H3609.97ZM1235.82 3120.36C-75.3943 3120.36 -1138.34 2057.37 -1138.34 746.105H-1139.23C-1139.23 2057.87 -75.8849 3121.25 1235.82 3121.25V3120.36ZM-1138.34 746.105C-1138.34 -565.168 -75.3943 -1628.16 1235.82 -1628.16V-1629.05C-75.8849 -1629.05 -1139.23 -565.658 -1139.23 746.105H-1138.34ZM1235.82 -1529.33C2492.44 -1529.33 3511.13 -510.586 3511.13 746.092H3512.02C3512.02 -511.076 2492.92 -1530.21 1235.82 -1530.21V-1529.33ZM3511.13 746.092C3511.13 2002.77 2492.44 3021.52 1235.82 3021.52V3022.41C2492.92 3022.41 3512.02 2003.25 3512.02 746.092H3511.13ZM1235.82 3021.52C-20.8019 3021.52 -1039.49 2002.77 -1039.49 746.092H-1040.38C-1040.38 2003.25 -21.2923 3022.41 1235.82 3022.41V3021.52ZM-1039.49 746.092C-1039.49 -510.586 -20.8019 -1529.33 1235.82 -1529.33V-1530.21C-21.2923 -1530.21 -1040.38 -511.076 -1040.38 746.092H-1039.49ZM1235.83 -1430.47C2437.86 -1430.47 3412.29 -455.989 3412.29 746.095H3413.18C3413.18 -456.479 2438.34 -1431.36 1235.83 -1431.36V-1430.47ZM3412.29 746.095C3412.29 1948.18 2437.86 2922.65 1235.83 2922.65V2923.54C2438.34 2923.54 3413.18 1948.67 3413.18 746.095H3412.29ZM1235.83 2922.65C33.8044 2922.65 -940.629 1948.18 -940.629 746.095H-941.519C-941.519 1948.67 33.3138 2923.54 1235.83 2923.54V2922.65ZM-940.629 746.095C-940.629 -455.989 33.8044 -1430.47 1235.83 -1430.47V-1431.36C33.3138 -1431.36 -941.519 -456.479 -941.519 746.095H-940.629ZM1235.82 -1331.61C2383.26 -1331.61 3313.43 -401.382 3313.43 746.109H3314.32C3314.32 -401.873 2383.75 -1332.5 1235.82 -1332.5V-1331.61ZM3313.43 746.109C3313.43 1893.6 2383.26 2823.82 1235.82 2823.82V2824.71C2383.75 2824.71 3314.32 1894.09 3314.32 746.109H3313.43ZM1235.82 2823.82C88.3833 2823.82 -841.797 1893.6 -841.797 746.109H-842.686C-842.686 1894.09 87.8927 2824.71 1235.82 2824.71V2823.82ZM-841.797 746.109C-841.797 -401.382 88.3833 -1331.61 1235.82 -1331.61V-1332.5C87.8927 -1332.5 -842.686 -401.873 -842.686 746.109H-841.797ZM1235.81 -1232.77C2328.65 -1232.77 3214.57 -346.8 3214.57 746.097H3215.46C3215.46 -347.291 2329.15 -1233.66 1235.81 -1233.66V-1232.77ZM3214.57 746.097C3214.57 1838.99 2328.65 2724.96 1235.81 2724.96V2725.85C2329.15 2725.85 3215.46 1839.48 3215.46 746.097H3214.57ZM1235.81 2724.96C142.964 2724.96 -742.961 1838.99 -742.961 746.097H-743.85C-743.85 1839.48 142.474 2725.85 1235.81 2725.85V2724.96ZM-742.961 746.097C-742.961 -346.8 142.964 -1232.77 1235.81 -1232.77V-1233.66C142.474 -1233.66 -743.85 -347.291 -743.85 746.097H-742.961ZM1235.83 -1133.91C2274.07 -1133.91 3115.75 -292.205 3115.75 746.097H3116.64C3116.64 -292.695 2274.57 -1134.8 1235.83 -1134.8V-1133.91ZM3115.75 746.097C3115.75 1784.4 2274.07 2626.11 1235.83 2626.11V2627C2274.57 2627 3116.64 1784.89 3116.64 746.097H3115.75ZM1235.83 2626.11C197.571 2626.11 -644.1 1784.4 -644.1 746.097H-644.989C-644.989 1784.89 197.08 2627 1235.83 2627V2626.11ZM-644.1 746.097C-644.1 -292.205 197.571 -1133.91 1235.83 -1133.91V-1134.8C197.08 -1134.8 -644.989 -292.695 -644.989 746.097H-644.1ZM1235.81 -1035.06C2219.48 -1035.06 3016.89 -237.608 3016.89 746.101H3017.78C3017.78 -238.1 2219.96 -1035.95 1235.81 -1035.95V-1035.06ZM3016.89 746.101C3016.89 1729.81 2219.48 2527.27 1235.81 2527.27V2528.15C2219.96 2528.15 3017.78 1730.3 3017.78 746.101H3016.89ZM1235.81 2527.27C252.152 2527.27 -545.264 1729.81 -545.264 746.101H-546.153C-546.153 1730.3 251.661 2528.15 1235.81 2528.15V2527.27ZM-545.264 746.101C-545.264 -237.606 252.152 -1035.06 1235.81 -1035.06V-1035.95C251.661 -1035.95 -546.153 -238.096 -546.153 746.101H-545.264ZM1235.8 -936.22C2164.88 -936.22 2918.03 -183.022 2918.03 746.092H2918.92C2918.92 -183.512 2165.36 -937.109 1235.8 -937.109V-936.22ZM2918.03 746.092C2918.03 1675.21 2164.88 2428.4 1235.8 2428.4V2429.29C2165.36 2429.29 2918.92 1675.7 2918.92 746.092H2918.03ZM1235.8 2428.4C306.733 2428.4 -446.428 1675.21 -446.428 746.092H-447.317C-447.317 1675.7 306.242 2429.29 1235.8 2429.29V2428.4ZM-446.428 746.092C-446.428 -183.022 306.733 -936.22 1235.8 -936.22V-937.109C306.242 -937.109 -447.317 -183.512 -447.317 746.092H-446.428ZM1235.79 -837.355C2110.28 -837.355 2819.19 -128.414 2819.19 746.109H2820.07C2820.07 -128.905 2110.77 -838.245 1235.79 -838.245V-837.355ZM2819.19 746.109C2819.19 1620.63 2110.28 2329.57 1235.79 2329.57V2330.46C2110.77 2330.46 2820.07 1621.12 2820.07 746.109H2819.19ZM1235.79 2329.57C361.313 2329.57 -347.592 1620.63 -347.592 746.109H-348.483C-348.483 1621.12 360.823 2330.46 1235.79 2330.46V2329.57ZM-347.592 746.109C-347.592 -128.414 361.313 -837.355 1235.79 -837.355V-838.245C360.823 -838.245 -348.483 -128.905 -348.483 746.109H-347.592ZM1235.82 -738.5C2055.71 -738.5 2720.36 -73.8179 2720.36 746.109H2721.25C2721.25 -74.309 2056.21 -739.391 1235.82 -739.391V-738.5ZM2720.36 746.109C2720.36 1566.04 2055.71 2230.73 1235.82 2230.73V2231.62C2056.21 2231.62 2721.25 1566.53 2721.25 746.109H2720.36ZM1235.82 2230.73C415.933 2230.73 -248.718 1566.04 -248.718 746.109H-249.608C-249.608 1566.53 415.442 2231.62 1235.82 2231.62V2230.73ZM-248.718 746.109C-248.718 -73.8179 415.933 -738.5 1235.82 -738.5V-739.391C415.442 -739.391 -249.608 -74.309 -249.608 746.109H-248.718ZM1235.8 -639.674C2001.09 -639.674 2621.48 -19.249 2621.48 746.085H2622.37C2622.37 -19.7397 2001.59 -640.564 1235.8 -640.564V-639.674ZM2621.48 746.085C2621.48 1511.42 2001.09 2131.84 1235.8 2131.84V2132.73C2001.59 2132.73 2622.37 1511.91 2622.37 746.085H2621.48ZM1235.8 2131.84C470.5 2131.84 -149.896 1511.42 -149.896 746.085H-150.785C-150.785 1511.91 470.01 2132.73 1235.8 2132.73V2131.84ZM-149.896 746.085C-149.896 -19.249 470.5 -639.674 1235.8 -639.674V-640.564C470.01 -640.564 -150.785 -19.7397 -150.785 746.085H-149.896ZM1235.81 -540.823C1946.51 -540.823 2522.66 35.3465 2522.66 746.085H2523.55C2523.55 34.8554 1947.01 -541.71 1235.81 -541.71V-540.823ZM2522.66 746.085C2522.66 1456.83 1946.51 2033 1235.81 2033V2033.88C1947.01 2033.88 2523.55 1457.32 2523.55 746.085H2522.66ZM1235.81 2033C525.105 2033 -51.0375 1456.83 -51.0375 746.085H-51.9239C-51.9239 1457.32 524.614 2033.88 1235.81 2033.88V2033ZM-51.0375 746.085C-51.0375 35.3465 525.105 -540.823 1235.81 -540.823V-541.71C524.614 -541.71 -51.9239 34.8554 -51.9239 746.085H-51.0375ZM1235.81 -441.958C1891.94 -441.958 2423.82 89.955 2423.82 746.101H2424.71C2424.71 89.4642 1892.42 -442.844 1235.81 -442.844V-441.958ZM2423.82 746.101C2423.82 1402.25 1891.94 1934.16 1235.81 1934.16V1935.05C1892.42 1935.05 2424.71 1402.74 2424.71 746.101H2423.82ZM1235.81 1934.16C579.699 1934.16 47.8117 1402.25 47.8117 746.101H46.9253C46.9253 1402.74 579.207 1935.05 1235.81 1935.05V1934.16ZM47.8117 746.101C47.8117 89.955 579.699 -441.958 1235.81 -441.958V-442.844C579.207 -442.844 46.9253 89.4642 46.9253 746.101H47.8117ZM1235.79 -343.117C1837.32 -343.117 2324.94 144.539 2324.94 746.092H2325.83C2325.83 144.048 1837.8 -344.005 1235.79 -344.005V-343.117ZM2324.94 746.092C2324.94 1347.64 1837.32 1835.3 1235.79 1835.3V1836.18C1837.8 1836.18 2325.83 1348.13 2325.83 746.092H2324.94ZM1235.79 1835.3C634.267 1835.3 146.634 1347.64 146.634 746.092H145.745C145.745 1348.13 633.776 1836.18 1235.79 1836.18V1835.3ZM146.634 746.092C146.634 144.539 634.267 -343.117 1235.79 -343.117V-344.005C633.776 -344.005 145.745 144.048 145.745 746.092H146.634ZM1235.83 -244.263C1782.76 -244.263 2226.14 199.134 2226.14 746.092H2227.03C2227.03 198.643 1783.24 -245.154 1235.83 -245.154V-244.263ZM2226.14 746.092C2226.14 1293.05 1782.76 1736.45 1235.83 1736.45V1737.34C1783.24 1737.34 2227.03 1293.54 2227.03 746.092H2226.14ZM1235.83 1736.45C688.898 1736.45 245.522 1293.05 245.522 746.092H244.633C244.633 1293.54 688.407 1737.34 1235.83 1737.34V1736.45ZM245.522 746.092C245.522 199.134 688.898 -244.263 1235.83 -244.263V-245.154C688.407 -245.154 244.633 198.643 244.633 746.092H245.522ZM1235.81 -145.41C1728.15 -145.41 2127.28 253.729 2127.28 746.095H2128.15C2128.15 253.239 1728.63 -146.299 1235.81 -146.299V-145.41ZM2127.28 746.095C2127.28 1238.46 1728.15 1637.6 1235.81 1637.6V1638.49C1728.63 1638.49 2128.15 1238.95 2128.15 746.095H2127.28ZM1235.81 1637.6C743.465 1637.6 344.343 1238.46 344.343 746.095H343.455C343.455 1238.95 742.975 1638.49 1235.81 1638.49V1637.6ZM344.343 746.095C344.343 253.729 743.465 -145.41 1235.81 -145.41V-146.299C742.975 -146.299 343.455 253.239 343.455 746.095H344.343ZM1235.82 -46.5576C1673.57 -46.5576 2028.44 308.327 2028.44 746.095H2029.32C2029.32 307.836 1674.07 -47.4465 1235.82 -47.4465V-46.5576ZM2028.44 746.095C2028.44 1183.87 1673.57 1538.75 1235.82 1538.75V1539.64C1674.07 1539.64 2029.32 1184.36 2029.32 746.095H2028.44ZM1235.82 1538.75C798.073 1538.75 443.204 1183.87 443.204 746.095H442.316C442.316 1184.36 797.581 1539.64 1235.82 1539.64V1538.75ZM443.204 746.095C443.204 308.327 798.073 -46.5576 1235.82 -46.5576V-47.4465C797.581 -47.4465 442.316 307.836 442.316 746.095H443.204ZM1235.82 52.2952C1618.99 52.2952 1929.59 362.922 1929.59 746.097H1930.48C1930.48 362.429 1619.47 51.4064 1235.82 51.4064V52.2952ZM1929.59 746.097C1929.59 1129.28 1618.99 1439.9 1235.82 1439.9V1440.79C1619.47 1440.79 1930.48 1129.77 1930.48 746.097H1929.59ZM1235.82 1439.9C852.666 1439.9 542.051 1129.28 542.051 746.097H541.165C541.165 1129.77 852.175 1440.79 1235.82 1440.79V1439.9ZM542.051 746.097C542.051 362.922 852.666 52.2952 1235.82 52.2952V51.4064C852.175 51.4064 541.165 362.429 541.165 746.097H542.051ZM1235.8 151.136C1564.38 151.136 1830.71 417.505 1830.71 746.089H1831.6C1831.6 417.013 1564.86 150.246 1235.8 150.246V151.136ZM1830.71 746.089C1830.71 1074.67 1564.38 1341.04 1235.8 1341.04V1341.93C1564.86 1341.93 1831.6 1075.16 1831.6 746.089H1830.71ZM1235.8 1341.04C907.234 1341.04 640.875 1074.67 640.875 746.089H639.987C639.987 1075.16 906.743 1341.93 1235.8 1341.93V1341.04ZM640.875 746.089C640.875 417.505 907.234 151.136 1235.8 151.136V150.246C906.743 150.246 639.987 417.013 639.987 746.089H640.875ZM1235.79 249.988C1509.76 249.988 1731.87 472.101 1731.87 746.089H1732.76C1732.76 471.61 1510.26 249.1 1235.79 249.1V249.988ZM1731.87 746.089C1731.87 1020.08 1509.76 1242.19 1235.79 1242.19V1243.08C1510.26 1243.08 1732.76 1020.57 1732.76 746.089H1731.87ZM1235.79 1242.19C961.815 1242.19 739.711 1020.08 739.711 746.089H738.821C738.821 1020.57 961.322 1243.08 1235.79 1243.08V1242.19ZM739.711 746.089C739.711 472.101 961.815 249.988 1235.79 249.988V249.1C961.322 249.1 738.821 471.61 738.821 746.089H739.711ZM1235.79 348.854C1455.18 348.854 1633.01 526.71 1633.01 746.105H1633.92C1633.92 526.219 1455.67 347.965 1235.79 347.965V348.854ZM1633.01 746.105C1633.01 965.5 1455.18 1143.35 1235.79 1143.35V1144.24C1455.67 1144.24 1633.92 965.991 1633.92 746.105H1633.01ZM1235.79 1143.35C1016.41 1143.35 838.558 965.5 838.558 746.105H837.672C837.672 965.991 1015.91 1144.24 1235.79 1144.24V1143.35ZM838.558 746.105C838.558 526.71 1016.41 348.854 1235.79 348.854V347.965C1015.91 347.965 837.672 526.219 837.672 746.105H838.558ZM1235.81 447.694C1400.61 447.694 1534.19 581.294 1534.19 746.092H1535.08C1535.08 580.801 1401.09 446.804 1235.81 446.804V447.694ZM1534.19 746.092C1534.19 910.895 1400.61 1044.49 1235.81 1044.49V1045.38C1401.09 1045.38 1535.08 911.386 1535.08 746.092H1534.19ZM1235.81 1044.49C1071.01 1044.49 937.419 910.895 937.419 746.092H936.532C936.532 911.386 1070.52 1045.38 1235.81 1045.38V1044.49ZM937.419 746.092C937.419 581.294 1071.01 447.694 1235.81 447.694V446.804C1070.52 446.804 936.532 580.801 936.532 746.092H937.419ZM1235.83 546.558C1346.03 546.558 1435.37 635.9 1435.37 746.109H1436.26C1436.26 635.409 1346.53 545.671 1235.83 545.671V546.558ZM1435.37 746.109C1435.37 856.315 1346.03 945.657 1235.83 945.657V946.544C1346.53 946.544 1436.26 856.806 1436.26 746.109H1435.37ZM1235.83 945.657C1125.63 945.657 1036.29 856.315 1036.29 746.109H1035.41C1035.41 856.806 1125.14 946.544 1235.83 946.544V945.657ZM1036.29 746.109C1036.29 635.9 1125.63 546.558 1235.83 546.558V545.671C1125.14 545.671 1035.41 635.409 1035.41 746.109H1036.29ZM1235.81 645.387C1291.42 645.387 1336.5 690.47 1336.5 746.085H1337.39C1337.39 689.98 1291.91 644.497 1235.81 644.497V645.387ZM1336.5 746.085C1336.5 801.697 1291.42 846.782 1235.81 846.782V847.671C1291.91 847.671 1337.39 802.187 1337.39 746.085H1336.5ZM1235.81 846.782C1180.2 846.782 1135.11 801.697 1135.11 746.085H1134.23C1134.23 802.187 1179.71 847.671 1235.81 847.671V846.782ZM1135.11 746.085C1135.11 690.47 1180.2 645.387 1235.81 645.387V644.497C1179.71 644.497 1134.23 689.98 1134.23 746.085H1135.11Z" fill="#4CFF3A"/>
</g>
</g>
<defs>
<clipPath id="clip0_86_51">
<rect width="2472" height="1491" fill="white"/>
</clipPath>
</defs>
</svg>
