<svg width="48" height="47" viewBox="0 0 48 47" fill="none" xmlns="http://www.w3.org/2000/svg">
<circle cx="23.9277" cy="23.5" r="23.5" fill="#00B533"/>
<path d="M23.6901 17.2946C22.534 17.2946 21.4039 17.6638 20.4427 18.3555C19.4815 19.0471 18.7323 20.0302 18.29 21.1804C17.8476 22.3306 17.7318 23.5963 17.9573 24.8173C18.1829 26.0384 18.7396 27.1599 19.557 28.0403C20.3744 28.9206 21.4159 29.5201 22.5497 29.763C23.6836 30.0059 24.8588 29.8812 25.9268 29.4048C26.9949 28.9284 27.9078 28.1215 28.55 27.0864C29.1923 26.0513 29.5351 24.8342 29.5351 23.5893C29.5351 21.9198 28.9193 20.3188 27.8231 19.1383C26.727 17.9578 25.2402 17.2946 23.6901 17.2946ZM23.6901 27.3661C22.9964 27.3661 22.3184 27.1446 21.7417 26.7296C21.1649 26.3146 20.7154 25.7247 20.45 25.0346C20.1846 24.3445 20.1151 23.5851 20.2504 22.8525C20.3857 22.1198 20.7198 21.4469 21.2102 20.9187C21.7007 20.3905 22.3256 20.0308 23.0059 19.8851C23.6862 19.7393 24.3913 19.8141 25.0321 20.1C25.6729 20.3858 26.2207 20.8699 26.606 21.491C26.9914 22.1121 27.1971 22.8423 27.1971 23.5893C27.1971 24.591 26.8276 25.5516 26.1699 26.2599C25.5122 26.9682 24.6202 27.3661 23.6901 27.3661ZM29.5351 16.0357C29.3039 16.0357 29.0779 16.1095 28.8856 16.2479C28.6934 16.3862 28.5435 16.5828 28.4551 16.8129C28.3666 17.0429 28.3434 17.296 28.3885 17.5402C28.4336 17.7845 28.545 18.0088 28.7085 18.1848C28.872 18.3609 29.0802 18.4808 29.307 18.5294C29.5338 18.578 29.7688 18.553 29.9824 18.4577C30.196 18.3625 30.3786 18.2011 30.5071 17.9941C30.6355 17.787 30.7041 17.5436 30.7041 17.2946C30.7041 16.9608 30.5809 16.6405 30.3617 16.4044C30.1425 16.1684 29.8451 16.0357 29.5351 16.0357ZM35.31 18.8557C35.2906 17.7799 35.1008 16.7155 34.7488 15.7084C34.4224 14.792 33.9207 13.9597 33.2762 13.2657C32.6318 12.5717 31.859 12.0313 31.008 11.6798C30.0729 11.3008 29.0845 11.0964 28.0855 11.0755C26.9516 11 26.5775 11 23.6901 11C20.8026 11 20.4285 11 19.2946 11.0755C18.2956 11.0964 17.3072 11.3008 16.3721 11.6798C15.5211 12.0313 14.7483 12.5717 14.1039 13.2657C13.4594 13.9597 12.9577 14.792 12.6313 15.7084C12.2793 16.7155 12.0895 17.7799 12.0701 18.8557C12 20.0895 12 20.4923 12 23.5893C12 26.6862 12 27.0891 12.0701 28.3229C12.0895 29.3987 12.2793 30.4631 12.6313 31.4702C12.9577 32.3866 13.4594 33.2188 14.1039 33.9129C14.7483 34.6069 15.5211 35.1472 16.3721 35.4987C17.3072 35.8778 18.2956 36.0822 19.2946 36.103C20.4636 36.103 20.8026 36.1786 23.6901 36.1786C26.5775 36.1786 26.9516 36.1786 28.0855 36.103C29.0845 36.0822 30.0729 35.8778 31.008 35.4987C31.859 35.1472 32.6318 34.6069 33.2762 33.9129C33.9207 33.2188 34.4224 32.3866 34.7488 31.4702C35.1008 30.4631 35.2906 29.3987 35.31 28.3229C35.31 27.0639 35.3801 26.6862 35.3801 23.5893C35.3801 20.4923 35.3801 20.0895 35.31 18.8557ZM32.972 28.2096C32.9515 29.0085 32.8134 29.7989 32.5628 30.5512C32.3556 31.1458 32.0282 31.6834 31.6042 32.1248C31.1967 32.5816 30.6966 32.9306 30.143 33.1446C29.4427 33.4254 28.7039 33.5786 27.9569 33.5978C26.8581 33.5978 26.519 33.6607 23.6784 33.6607C20.8377 33.6607 20.5104 33.6607 19.4115 33.6607C18.6657 33.64 17.9277 33.4912 17.2255 33.2201C16.6733 32.997 16.1741 32.6444 15.7642 32.1878C15.34 31.7489 15.0159 31.2103 14.8173 30.6141C14.5576 29.8641 14.4153 29.0728 14.3965 28.2725C14.3965 27.0136 14.3965 26.6988 14.3965 23.6522C14.3965 20.6056 14.3965 20.2405 14.3965 19.032C14.4166 18.2278 14.5588 17.4325 14.8173 16.6778C15.019 16.0869 15.3428 15.5531 15.7642 15.1167C16.1717 14.6599 16.6718 14.3109 17.2255 14.097C17.9257 13.8161 18.6645 13.6629 19.4115 13.6437C20.5104 13.5179 20.8494 13.5179 23.6901 13.5179C26.5307 13.5179 26.8697 13.5179 27.9686 13.5179C28.7193 13.5384 29.4617 13.6915 30.1663 13.9711C30.715 14.1883 31.2107 14.537 31.6159 14.9908C32.0401 15.4296 32.3642 15.9682 32.5628 16.5645C32.849 17.3306 33.0111 18.1439 33.0421 18.969C33.0421 20.2279 33.1005 20.5427 33.1005 23.5893C33.1005 26.6359 33.0421 27.001 33.0421 28.2096H32.972Z" fill="white"/>
</svg>
