<svg width="2230" height="680" viewBox="0 0 2230 680" fill="none" xmlns="http://www.w3.org/2000/svg">
<g clip-path="url(#clip0_198_19)">
<path fill-rule="evenodd" clip-rule="evenodd" d="M228.144 111.906C102.357 111.906 0 214.263 0 340.05C0 465.837 102.357 568.163 228.144 568.163C353.931 568.163 456.257 465.806 456.257 340.05C456.257 214.294 353.931 111.906 228.144 111.906Z" fill="#00B533"/>
<path fill-rule="evenodd" clip-rule="evenodd" d="M609.931 679.999H469.473L635.466 0.117188H775.924L609.9 679.999H609.931Z" fill="white"/>
<path fill-rule="evenodd" clip-rule="evenodd" d="M814.31 679.999H673.852L839.876 0.117188H980.365L814.341 679.999H814.31Z" fill="white"/>
<path d="M1186.92 405.75H1235.02V615.443C1235.02 633.887 1229.81 648.32 1219.39 658.745C1208.97 669.169 1194.54 674.382 1176.1 674.382H1083.92V627.471H1166.48C1180.11 627.471 1186.92 620.655 1186.92 607.023V405.75Z" fill="#00B533"/>
<path d="M1284.49 583.769V475.514H1330.59V583.368C1330.59 598.336 1335 610.899 1343.81 621.056C1352.63 630.946 1364.52 635.891 1379.48 635.891C1394.71 635.891 1406.74 630.946 1415.56 621.056C1424.64 610.899 1429.18 598.336 1429.18 583.368V475.514H1475.27V583.769C1475.27 612.904 1466.59 636.292 1449.22 653.934C1431.85 671.308 1408.61 679.995 1379.48 679.995C1350.63 679.995 1327.51 671.308 1310.15 653.934C1293.04 636.292 1284.49 612.904 1284.49 583.769Z" fill="#00B533"/>
<path d="M1631.26 469.5C1656.38 469.5 1676.28 477.653 1690.98 493.958C1705.68 509.995 1713.02 531.914 1713.02 559.712V674.382H1666.93V566.929C1666.93 551.159 1662.52 538.596 1653.71 529.241C1645.16 519.618 1633.8 514.807 1619.64 514.807C1604.14 514.807 1591.32 520.286 1581.16 531.245C1571.01 541.937 1565.93 555.836 1565.93 572.943V674.382H1519.84V475.113H1565.13V500.774H1566.73C1582.23 479.925 1603.74 469.5 1631.26 469.5Z" fill="#00B533"/>
<path d="M1758.6 385.703H1804.69V446.646H1758.6V385.703ZM1758.6 475.113H1804.69V674.382H1758.6V475.113Z" fill="#00B533"/>
<path d="M1948.71 679.995C1916.91 679.995 1890.99 669.971 1870.95 649.924C1850.91 629.61 1840.89 604.484 1840.89 574.547C1840.89 544.61 1850.78 519.618 1870.55 499.571C1890.59 479.524 1916.64 469.5 1948.71 469.5C1980.23 469.5 2005.75 479.524 2025.26 499.571C2045.03 519.618 2054.92 544.61 2054.92 574.547C2054.92 604.484 2045.03 629.61 2025.26 649.924C2005.48 669.971 1979.97 679.995 1948.71 679.995ZM1948.71 635.891C1966.34 635.891 1980.77 630.011 1991.99 618.25C2003.21 606.489 2008.82 592.055 2008.82 574.948C2008.82 557.574 2003.21 543.14 1991.99 531.646C1980.77 519.885 1966.34 514.005 1948.71 514.005C1930.54 514.005 1915.71 519.885 1904.22 531.646C1892.99 543.14 1887.38 557.574 1887.38 574.948C1887.38 592.055 1892.99 606.489 1904.22 618.25C1915.71 630.011 1930.54 635.891 1948.71 635.891Z" fill="#00B533"/>
<path d="M2189.52 475.113H2230V521.623H2188.72C2172.95 521.623 2160.13 526.568 2150.24 536.458C2140.62 546.347 2135.81 559.846 2135.81 576.953V674.382H2089.72V475.113H2134.21V507.991H2135.81C2145.17 486.072 2163.07 475.113 2189.52 475.113Z" fill="#00B533"/>
<path d="M1220.26 0.171875C1247.04 0.171875 1269.49 9.09439 1287.61 26.9394C1305.74 44.5141 1314.8 66.6852 1314.8 93.4527C1314.8 120.761 1305.6 143.202 1287.21 160.777C1269.08 178.081 1246.77 186.734 1220.26 186.734H1141.54V271.903H1083.92V0.171875H1220.26ZM1141.54 131.982H1215.79C1227.42 131.982 1237.03 128.467 1244.6 121.437C1252.45 114.407 1256.37 105.079 1256.37 93.4527C1256.37 82.6375 1252.45 73.715 1244.6 66.6852C1236.76 59.6553 1227.15 56.1404 1215.79 56.1404H1141.54V131.982Z" fill="white"/>
<path d="M1349.41 271.903V0.171875H1463.83C1504.14 0.171875 1537.41 12.8797 1563.65 38.2953C1589.89 63.711 1603.01 96.0213 1603.01 135.226V136.443C1603.01 175.648 1589.89 208.093 1563.65 233.779C1537.41 259.195 1504.14 271.903 1463.83 271.903H1349.41ZM1463.02 56.1404H1407.03V215.529H1463.02C1487.1 215.529 1506.58 208.229 1521.45 193.628C1536.6 179.028 1544.18 159.966 1544.18 136.443V135.226C1544.18 111.703 1536.6 92.6416 1521.45 78.0411C1506.58 63.4406 1487.1 56.1404 1463.02 56.1404Z" fill="white"/>
<path d="M1776.99 0.171875C1803.77 0.171875 1826.23 9.09439 1844.35 26.9394C1862.48 44.5141 1871.54 66.6852 1871.54 93.4527C1871.54 120.761 1862.34 143.202 1843.95 160.777C1825.82 178.081 1803.5 186.734 1776.99 186.734H1698.28V271.903H1640.66V0.171875H1776.99ZM1698.28 131.982H1772.53C1784.16 131.982 1793.77 128.467 1801.34 121.437C1809.18 114.407 1813.11 105.079 1813.11 93.4527C1813.11 82.6375 1809.18 73.715 1801.34 66.6852C1793.49 59.6553 1783.89 56.1404 1772.53 56.1404H1698.28V131.982Z" fill="white"/>
</g>
<defs>
<clipPath id="clip0_198_19">
<rect width="2230" height="680" fill="white"/>
</clipPath>
</defs>
</svg>
