<svg width="143" height="29" viewBox="0 0 143 29" fill="none" xmlns="http://www.w3.org/2000/svg">
<path d="M20.7734 25.505L20.349 28.3172H0.0441895C0.884326 26.3717 0.831264 25.2751 0.831264 23.8689V4.53696C0.831264 3.17505 0.884326 1.98117 0.0441895 0.0886568H6.12854H19.8537L19.8891 2.95396C19.5177 2.80362 19.217 2.67097 18.9428 2.54716C18.2088 2.27301 17.2802 2.01655 16.3163 2.02539C14.7775 2.02539 8.32174 2.02539 5.45643 2.02539V13.0798H18.2L17.5721 15.2553H5.45643V26.3186C7.79997 26.3186 15.2904 26.3186 16.9442 26.3186C18.8809 26.354 20.8088 25.2574 20.8088 25.2574L20.7558 25.4961C20.7558 25.505 20.7646 25.505 20.7734 25.505ZM51.3367 28.3172C51.6109 26.9288 51.6109 24.9655 51.3898 23.3649L49.5857 10.0642L39.734 28.3084H37.8592L27.8483 9.24172L25.9027 23.6567C25.6904 25.3193 25.6285 27.424 25.8054 28.3172H22.2857C22.9666 26.8757 23.1347 26.2478 23.453 23.8778L26.6367 0.0886568H28.2551L39.9374 22.2859L51.6109 0.0886568H52.8313L56.1211 23.8247C56.4483 26.1859 56.6959 26.8669 57.3503 28.3172H51.3367ZM80.9891 28.3172L76.302 17.9791H66.8748L62.2496 28.3172H61.8517H58.5884H58.5707C59.7381 26.8669 60.136 26.1948 60.9585 24.3907L71.8891 0.0886568H73.1183L83.8721 23.7097C85.0217 26.0179 85.5612 26.7342 87.2061 28.3172H80.9891ZM110.482 28.3172L105.795 17.9791H96.368L91.7428 28.3172H91.3537H88.0816H88.0639C89.2313 26.8669 89.6292 26.1948 90.4517 24.3907L101.382 0.0886568H102.612L113.374 23.7097C114.524 26.0179 115.063 26.7342 116.708 28.3172H110.482ZM137.207 28.3349C134.386 25.7614 130.734 22.3478 126.162 16.9356C124.853 15.4057 123.933 15.2111 123.341 15.1757V23.8689C123.341 25.2662 123.341 26.3717 124.137 28.3172H117.929C118.769 26.3717 118.716 25.2751 118.716 23.8689V4.51927C118.716 3.15736 118.769 1.96349 117.929 0.0709697H124.013C128.169 0.0709697 137.995 -0.300459 137.995 7.81791C137.995 12.107 134.59 14.4152 130.592 14.9989L129.407 15.1138C129.407 15.1138 142.372 27.7866 142.929 28.3349H137.207ZM129.858 13.3805L129.85 13.3893C132.467 12.3989 133.352 9.91383 133.263 7.80907C133.166 5.7839 132.255 1.37981 123.35 1.73355V13.7696C123.35 13.7696 128.337 14.0438 129.735 13.4336C129.814 13.3982 129.858 13.3805 129.858 13.3805ZM97.2701 16.007H104.884L101.046 7.57913L97.2701 16.007ZM67.7857 16.007H75.4L71.5619 7.57913L67.7857 16.007Z" fill="white"/>
</svg>
