<?xml version="1.0" encoding="utf-8"?>
<!-- Generator: Adobe Illustrator 25.0.0, SVG Export Plug-In . SVG Version: 6.00 Build 0)  -->
<svg version="1.1" id="Слой_1" xmlns="http://www.w3.org/2000/svg" xmlns:xlink="http://www.w3.org/1999/xlink" x="0px" y="0px"
	 viewBox="0 0 1288 355" style="enable-background:new 0 0 1288 355;" xml:space="preserve">
<style type="text/css">
	.st0{clip-path:url(#SVGID_2_);}
	.st1{fill:#FFFFFF;}
	.st2{fill:#EBFFDC;}
	.st3{clip-path:url(#SVGID_4_);}
	.st4{fill:#DBDBDB;}
	.st5{fill:#C7C7C7;}
	.st6{fill:#EBEBEB;}
	.st7{fill:#A6A6A6;}
	.st8{fill:#00B534;}
	.st9{fill:#865D0D;}
	.st10{fill:#93B975;}
	.st11{fill:#263238;}
	.st12{fill:#88F036;}
	.st13{opacity:0.2;enable-background:new    ;}
	.st14{fill:#D3766A;}
	.st15{fill:#012A30;}
	.st16{fill:#FFC727;}
	.st17{opacity:0.1;enable-background:new    ;}
	.st18{fill:#FF9CBD;}
	.st19{fill:#FFC4C0;}
	.st20{opacity:0.6;}
	.st21{opacity:0.6;fill:#FFFFFF;enable-background:new    ;}
	.st22{fill:#FF99BA;}
	.st23{opacity:0.1;fill:#050400;enable-background:new    ;}
	.st24{fill:#EB9481;}
	.st25{fill:#16D34C;}
	.st26{opacity:0.6;enable-background:new    ;}
	.st27{fill:#398F52;}
	.st28{opacity:0.2;}
	.st29{fill:#F7A9A0;}
	.st30{opacity:0.1;}
	.st31{opacity:0.7;fill:#FFFFFF;enable-background:new    ;}
	.st32{fill:#455A64;}
	.st33{fill:#FF9ABB;}
	.st34{fill:#4E825D;}
</style>
<g>
	<defs>
		<rect id="SVGID_1_" y="8" width="1288" height="347"/>
	</defs>
	<clipPath id="SVGID_2_">
		<use xlink:href="#SVGID_1_"  style="overflow:visible;"/>
	</clipPath>
	<g class="st0">
		<rect y="8" class="st1" width="1288" height="347"/>
		<path class="st2" d="M133.3,274.7C55.6,281.2,13.4,262.3,2,252v102h644.5H1291V252c-13.9,0-53.5,4.5-100.6,22.7
			c-58.8,22.7-318.4,15.8-349.5,0c-31.2-15.8-190.1,15.8-397.8,26.2C235.4,311.3,230.3,266.6,133.3,274.7z"/>
		<g>
			<defs>
				<rect id="SVGID_3_" x="877.5" y="86" width="395.5" height="269"/>
			</defs>
			<clipPath id="SVGID_4_">
				<use xlink:href="#SVGID_3_"  style="overflow:visible;"/>
			</clipPath>
			<g class="st3">
				<path class="st4" d="M884.1,354.4c0,0,73.4-34.6,127-34.6c52.5,0,123.6,17.5,143,21.4c50.8,10.3,116.2,13.2,116.2,13.2H884.1z"
					/>
				<path class="st5" d="M1270.2,354.4c0,0-40-23.2-85.2-23.2c-31.5,0-76.8,9.3-119.5,14.6c-16.2,2-100.8,8.6-100.8,8.6H1270.2z"/>
				<path class="st6" d="M1255.7,109.6c-6.8,0-121.7,0.8-128.9,0.5c-0.5,0-0.8-0.8-0.3-1c4.5-2.2,9.7-1.8,14.4-3.4
					c2.8-0.9,4.5-2.7,6.4-4.8c1.7-1.8,3.6-3.2,6-3.9c2.1-0.6,4.4-0.7,6.5-0.2c2.3,0.6,4.4,1.9,6.6,2.7c5.5,2.1,10.9,0.1,14.8-4
					c3.2-3.3,6.4-6.5,10.9-8.3c3.7-1.5,7.8-1.8,11.5-0.2c4.2,1.9,7.1,5.7,11.1,8c4.7,2.7,10.3,2.1,15.5,2.9
					c5.2,0.8,9.2,5.2,13.7,7.7c1.6,0.9,3.1,1.6,5,1.5c1,0,2-0.3,3-0.4c1.6-0.2,3-0.2,4.1,1.2
					C1256.2,108.3,1256.1,109.6,1255.7,109.6z"/>
				<path class="st6" d="M990.7,261.5c-5,0-88.9,0.5-94.1,0.4c-0.4,0-0.6-0.6-0.2-0.8c3.3-1.6,7.1-1.3,10.6-2.5c2-0.7,3.3-2,4.7-3.5
					c1.2-1.3,2.6-2.3,4.4-2.8c1.5-0.5,3.2-0.5,4.7-0.2c1.7,0.4,3.2,1.4,4.8,2c4,1.5,7.9,0.1,10.8-2.9c2.4-2.5,4.7-4.8,7.9-6.1
					c2.7-1.1,5.7-1.3,8.4-0.1c3.1,1.4,5.2,4.2,8.1,5.9c3.4,2,7.5,1.5,11.3,2.1c3.8,0.6,6.7,3.8,10,5.6c1.1,0.6,2.3,1.1,3.6,1.1
					c0.7,0,1.5-0.2,2.2-0.3c1.1-0.1,2.2-0.1,3,0.8C991.1,260.5,991.1,261.5,990.7,261.5z"/>
				<path class="st6" d="M1062.4,227.4c-5,0-88.9,0.5-94.1,0.4c-0.4,0-0.6-0.6-0.2-0.8c3.3-1.6,7.1-1.3,10.5-2.5
					c2-0.7,3.3-2,4.7-3.5c1.2-1.3,2.6-2.3,4.4-2.8c1.5-0.5,3.2-0.5,4.7-0.2c1.7,0.4,3.2,1.4,4.8,2c4,1.5,8,0.1,10.8-2.9
					c2.4-2.5,4.7-4.8,7.9-6.1c2.7-1.1,5.7-1.3,8.4-0.1c3.1,1.4,5.2,4.2,8.1,5.9c3.4,2,7.5,1.5,11.3,2.1c3.8,0.6,6.7,3.8,10,5.6
					c1.1,0.6,2.3,1.1,3.6,1.1c0.7,0,1.5-0.2,2.2-0.3c1.1-0.1,2.2-0.1,3,0.8C1062.8,226.4,1062.7,227.4,1062.4,227.4z"/>
				<path class="st6" d="M1182.3,179.4c-5,0-88.9,0.5-94.1,0.4c-0.4,0-0.6-0.6-0.2-0.7c3.3-1.6,7.1-1.3,10.5-2.5
					c2-0.7,3.3-2,4.7-3.5c1.2-1.3,2.6-2.3,4.4-2.8c1.5-0.5,3.2-0.5,4.7-0.2c1.7,0.4,3.2,1.4,4.8,2c4,1.5,7.9,0.1,10.8-2.9
					c2.4-2.4,4.7-4.8,7.9-6.1c2.7-1.1,5.7-1.3,8.4-0.1c3.1,1.4,5.2,4.2,8.1,5.9c3.4,2,7.5,1.5,11.3,2.1c3.8,0.6,6.7,3.8,10,5.6
					c1.1,0.6,2.3,1.1,3.6,1.1c0.7,0,1.5-0.2,2.2-0.3c1.1-0.1,2.2-0.1,3,0.8C1182.6,178.4,1182.6,179.4,1182.3,179.4z"/>
				<path class="st6" d="M1125.7,146.8c-0.1,0.3-132.2,0-130.5,0c0.8,0-1.1-1.1-0.4-1.5c4.3-2.1,9-2.2,13.7-2.6
					c2.7-0.2,5.5-0.6,8-1.9c2.5-1.3,4-3.6,5.8-5.6c5.5-6.5,14.1-9.8,22.6-8.5c9.4,1.5,16.8,8.6,26.2,9.9c5.6,0.8,11-1.4,16.5-2.2
					c4.5-0.6,8.3,0.3,12.4,2.3c3,1.5,5.7,2.7,9.1,2.9c2.6,0.2,5.2-0.1,7.8-0.1c4.2,0,8.2,1.8,11.4,4.6
					C1128.7,144.4,1130,146.8,1125.7,146.8z"/>
				<path class="st4" d="M1200.3,353.8h35.7V167.4h-35.7V353.8z"/>
				<path class="st6" d="M1223.6,180.6h6.9v-7.1h-6.9V180.6z"/>
				<path class="st6" d="M1214.7,180.6h6.9v-7.1h-6.9V180.6z"/>
				<path class="st6" d="M1223.6,192.7h6.9v-7.1h-6.9V192.7z"/>
				<path class="st6" d="M1214.7,192.7h6.9v-7.1h-6.9V192.7z"/>
				<path class="st6" d="M1223.6,204.8h6.9v-7.1h-6.9V204.8z"/>
				<path class="st6" d="M1214.7,204.8h6.9v-7.1h-6.9V204.8z"/>
				<path class="st6" d="M1223.6,216.8h6.9v-7.1h-6.9V216.8z"/>
				<path class="st6" d="M1214.7,216.8h6.9v-7.1h-6.9V216.8z"/>
				<path class="st6" d="M1223.6,228.9h6.9v-7.1h-6.9V228.9z"/>
				<path class="st6" d="M1214.7,228.9h6.9v-7.1h-6.9V228.9z"/>
				<path class="st6" d="M1223.6,241h6.9v-7.1h-6.9V241z"/>
				<path class="st6" d="M1214.7,241h6.9v-7.1h-6.9V241z"/>
				<path class="st6" d="M1223.6,253.1h6.9V246h-6.9V253.1z"/>
				<path class="st6" d="M1214.7,253.1h6.9V246h-6.9V253.1z"/>
				<path class="st6" d="M1223.6,265.2h6.9v-7.1h-6.9V265.2z"/>
				<path class="st6" d="M1214.7,265.2h6.9v-7.1h-6.9V265.2z"/>
				<path class="st6" d="M1223.6,277.3h6.9v-7.1h-6.9V277.3z"/>
				<path class="st6" d="M1214.7,277.3h6.9v-7.1h-6.9V277.3z"/>
				<path class="st6" d="M1223.6,289.4h6.9v-7.1h-6.9V289.4z"/>
				<path class="st6" d="M1214.7,289.4h6.9v-7.1h-6.9V289.4z"/>
				<path class="st6" d="M1223.6,301.4h6.9v-7.1h-6.9V301.4z"/>
				<path class="st6" d="M1214.7,301.4h6.9v-7.1h-6.9V301.4z"/>
				<path class="st6" d="M1223.6,313.5h6.9v-7.1h-6.9V313.5z"/>
				<path class="st6" d="M1214.7,313.5h6.9v-7.1h-6.9V313.5z"/>
				<path class="st6" d="M1223.6,325.6h6.9v-7.1h-6.9V325.6z"/>
				<path class="st6" d="M1214.7,325.6h6.9v-7.1h-6.9V325.6z"/>
				<path class="st6" d="M1223.6,337.7h6.9v-7.1h-6.9V337.7z"/>
				<path class="st6" d="M1212.8,330.6h-6.9v7.1h6.9V330.6z"/>
				<path class="st6" d="M1212.8,318.5h-6.9v7.1h6.9V318.5z"/>
				<path class="st6" d="M1212.8,306.4h-6.9v7.1h6.9V306.4z"/>
				<path class="st6" d="M1212.8,294.3h-6.9v7.1h6.9V294.3z"/>
				<path class="st6" d="M1212.8,282.2h-6.9v7.1h6.9V282.2z"/>
				<path class="st6" d="M1212.8,270.1h-6.9v7.1h6.9V270.1z"/>
				<path class="st6" d="M1212.8,258.1h-6.9v7.1h6.9V258.1z"/>
				<path class="st6" d="M1212.8,246h-6.9v7.1h6.9V246z"/>
				<path class="st6" d="M1212.8,233.9h-6.9v7.1h6.9V233.9z"/>
				<path class="st6" d="M1212.8,221.8h-6.9v7.1h6.9V221.8z"/>
				<path class="st6" d="M1212.8,209.7h-6.9v7.1h6.9V209.7z"/>
				<path class="st6" d="M1212.8,197.6h-6.9v7.1h6.9V197.6z"/>
				<path class="st6" d="M1212.8,185.6h-6.9v7.1h6.9V185.6z"/>
				<path class="st6" d="M1212.8,173.5h-6.9v7.1h6.9V173.5z"/>
				<path class="st6" d="M1214.7,337.7h6.9v-7.1h-6.9V337.7z"/>
				<path class="st7" d="M1172.2,353.8h28.1V167.4h-28.1V353.8z"/>
				<path class="st5" d="M1180.8,330.6h-5.7v7.1h5.7V330.6z"/>
				<path class="st5" d="M1188.2,330.6h-5.7v7.1h5.7V330.6z"/>
				<path class="st5" d="M1180.8,318.5h-5.7v7.1h5.7V318.5z"/>
				<path class="st5" d="M1188.2,318.5h-5.7v7.1h5.7V318.5z"/>
				<path class="st5" d="M1180.8,306.4h-5.7v7.1h5.7V306.4z"/>
				<path class="st5" d="M1188.2,306.4h-5.7v7.1h5.7V306.4z"/>
				<path class="st5" d="M1180.8,294.3h-5.7v7.1h5.7V294.3z"/>
				<path class="st5" d="M1188.2,294.3h-5.7v7.1h5.7V294.3z"/>
				<path class="st5" d="M1180.8,282.2h-5.7v7.1h5.7V282.2z"/>
				<path class="st5" d="M1188.2,282.2h-5.7v7.1h5.7V282.2z"/>
				<path class="st5" d="M1180.8,270.1h-5.7v7.1h5.7V270.1z"/>
				<path class="st5" d="M1188.2,270.1h-5.7v7.1h5.7V270.1z"/>
				<path class="st5" d="M1180.8,258.1h-5.7v7.1h5.7V258.1z"/>
				<path class="st5" d="M1188.2,258.1h-5.7v7.1h5.7V258.1z"/>
				<path class="st5" d="M1180.8,246h-5.7v7.1h5.7V246z"/>
				<path class="st5" d="M1188.2,246h-5.7v7.1h5.7V246z"/>
				<path class="st5" d="M1180.8,233.9h-5.7v7.1h5.7V233.9z"/>
				<path class="st5" d="M1188.2,233.9h-5.7v7.1h5.7V233.9z"/>
				<path class="st5" d="M1180.8,221.8h-5.7v7.1h5.7V221.8z"/>
				<path class="st5" d="M1188.2,221.8h-5.7v7.1h5.7V221.8z"/>
				<path class="st5" d="M1180.8,209.7h-5.7v7.1h5.7V209.7z"/>
				<path class="st5" d="M1188.2,209.7h-5.7v7.1h5.7V209.7z"/>
				<path class="st5" d="M1180.8,197.6h-5.7v7.1h5.7V197.6z"/>
				<path class="st5" d="M1188.2,197.6h-5.7v7.1h5.7V197.6z"/>
				<path class="st5" d="M1180.8,185.6h-5.7v7.1h5.7V185.6z"/>
				<path class="st5" d="M1188.2,185.6h-5.7v7.1h5.7V185.6z"/>
				<path class="st5" d="M1180.8,173.5h-5.7v7.1h5.7V173.5z"/>
				<path class="st5" d="M1189.7,180.6h5.7v-7.1h-5.7V180.6z"/>
				<path class="st5" d="M1189.7,192.7h5.7v-7.1h-5.7V192.7z"/>
				<path class="st5" d="M1189.7,204.8h5.7v-7.1h-5.7V204.8z"/>
				<path class="st5" d="M1189.7,216.8h5.7v-7.1h-5.7V216.8z"/>
				<path class="st5" d="M1189.7,228.9h5.7v-7.1h-5.7V228.9z"/>
				<path class="st5" d="M1189.7,241h5.7v-7.1h-5.7V241z"/>
				<path class="st5" d="M1189.7,253.1h5.7V246h-5.7V253.1z"/>
				<path class="st5" d="M1189.7,265.2h5.7v-7.1h-5.7V265.2z"/>
				<path class="st5" d="M1189.7,277.3h5.7v-7.1h-5.7V277.3z"/>
				<path class="st5" d="M1189.7,289.4h5.7v-7.1h-5.7V289.4z"/>
				<path class="st5" d="M1189.7,301.4h5.7v-7.1h-5.7V301.4z"/>
				<path class="st5" d="M1189.7,313.5h5.7v-7.1h-5.7V313.5z"/>
				<path class="st5" d="M1189.7,325.6h5.7v-7.1h-5.7V325.6z"/>
				<path class="st5" d="M1189.7,337.7h5.7v-7.1h-5.7V337.7z"/>
				<path class="st5" d="M1188.2,173.5h-5.7v7.1h5.7V173.5z"/>
				<path class="st6" d="M1268.5,241.3h-44.8v112.6h44.8V241.3z"/>
				<path class="st5" d="M1223.7,241.3h45.8v-3.8h-45.8V241.3z"/>
				<path class="st1" d="M1264.4,246.9h-4.5v107h4.5V246.9z"/>
				<path class="st1" d="M1256.4,246.9h-4.5v107h4.5V246.9z"/>
				<path class="st1" d="M1248.4,246.9h-4.5v107h4.5V246.9z"/>
				<path class="st1" d="M1240.4,246.9h-4.5v107h4.5V246.9z"/>
				<path class="st1" d="M1232.3,246.9h-4.5v107h4.5V246.9z"/>
				<path class="st6" d="M1259.9,259.2h4.5v-7.5h-4.5V259.2z"/>
				<path class="st6" d="M1251.9,259.2h4.5v-7.5h-4.5V259.2z"/>
				<path class="st6" d="M1243.8,259.2h4.5v-7.5h-4.5V259.2z"/>
				<path class="st6" d="M1235.8,259.2h4.5v-7.5h-4.5V259.2z"/>
				<path class="st6" d="M1227.8,259.2h4.5v-7.5h-4.5V259.2z"/>
				<path class="st6" d="M1259.9,271.3h4.5v-7.5h-4.5V271.3z"/>
				<path class="st6" d="M1251.9,271.3h4.5v-7.5h-4.5V271.3z"/>
				<path class="st6" d="M1243.8,271.3h4.5v-7.5h-4.5V271.3z"/>
				<path class="st6" d="M1235.8,271.3h4.5v-7.5h-4.5V271.3z"/>
				<path class="st6" d="M1227.8,271.3h4.5v-7.5h-4.5V271.3z"/>
				<path class="st6" d="M1259.9,283.5h4.5V276h-4.5V283.5z"/>
				<path class="st6" d="M1251.9,283.5h4.5V276h-4.5V283.5z"/>
				<path class="st6" d="M1243.8,283.5h4.5V276h-4.5V283.5z"/>
				<path class="st6" d="M1235.8,283.5h4.5V276h-4.5V283.5z"/>
				<path class="st6" d="M1227.8,283.5h4.5V276h-4.5V283.5z"/>
				<path class="st6" d="M1259.9,295.7h4.5v-7.5h-4.5V295.7z"/>
				<path class="st6" d="M1251.9,295.7h4.5v-7.5h-4.5V295.7z"/>
				<path class="st6" d="M1243.8,295.7h4.5v-7.5h-4.5V295.7z"/>
				<path class="st6" d="M1235.8,295.7h4.5v-7.5h-4.5V295.7z"/>
				<path class="st6" d="M1227.8,295.7h4.5v-7.5h-4.5V295.7z"/>
				<path class="st6" d="M1259.9,307.8h4.5v-7.5h-4.5V307.8z"/>
				<path class="st6" d="M1251.9,307.8h4.5v-7.5h-4.5V307.8z"/>
				<path class="st6" d="M1243.8,307.8h4.5v-7.5h-4.5V307.8z"/>
				<path class="st6" d="M1235.8,307.8h4.5v-7.5h-4.5V307.8z"/>
				<path class="st6" d="M1227.8,307.8h4.5v-7.5h-4.5V307.8z"/>
				<path class="st6" d="M1259.9,320h4.5v-7.5h-4.5V320z"/>
				<path class="st6" d="M1251.9,320h4.5v-7.5h-4.5V320z"/>
				<path class="st6" d="M1243.8,320h4.5v-7.5h-4.5V320z"/>
				<path class="st6" d="M1235.8,320h4.5v-7.5h-4.5V320z"/>
				<path class="st6" d="M1227.8,320h4.5v-7.5h-4.5V320z"/>
				<path class="st6" d="M1259.9,332.2h4.5v-7.5h-4.5V332.2z"/>
				<path class="st6" d="M1251.9,332.2h4.5v-7.5h-4.5V332.2z"/>
				<path class="st6" d="M1243.8,332.2h4.5v-7.5h-4.5V332.2z"/>
				<path class="st6" d="M1235.8,332.2h4.5v-7.5h-4.5V332.2z"/>
				<path class="st6" d="M1227.8,332.2h4.5v-7.5h-4.5V332.2z"/>
				<path class="st6" d="M1259.9,344.4h4.5v-7.5h-4.5V344.4z"/>
				<path class="st6" d="M1251.9,344.4h4.5v-7.5h-4.5V344.4z"/>
				<path class="st6" d="M1243.8,344.4h4.5v-7.5h-4.5V344.4z"/>
				<path class="st6" d="M1235.8,344.4h4.5v-7.5h-4.5V344.4z"/>
				<path class="st6" d="M1227.8,344.4h4.5v-7.5h-4.5V344.4z"/>
				<path class="st6" d="M1264.4,349h-4.5v4.9h4.5V349z"/>
				<path class="st6" d="M1256.4,349h-4.5v4.9h4.5V349z"/>
				<path class="st6" d="M1248.4,349h-4.5v4.9h4.5V349z"/>
				<path class="st6" d="M1240.4,349h-4.5v4.9h4.5V349z"/>
				<path class="st6" d="M1232.3,349h-4.5v4.9h4.5V349z"/>
				<path class="st4" d="M1223.7,241.3H1195v112.6h28.7V241.3z"/>
				<path class="st5" d="M1193.8,241.3h30v-3.8h-30V241.3z"/>
				<path class="st5" d="M1219.7,246.9h-4.5v107h4.5V246.9z"/>
				<path class="st5" d="M1211.6,246.9h-4.5v107h4.5V246.9z"/>
				<path class="st5" d="M1203.6,246.9h-4.5v107h4.5V246.9z"/>
				<path class="st4" d="M1215.2,259.2h4.5v-7.5h-4.5V259.2z"/>
				<path class="st4" d="M1207.1,259.2h4.5v-7.5h-4.5V259.2z"/>
				<path class="st4" d="M1199.1,259.2h4.5v-7.5h-4.5V259.2z"/>
				<path class="st4" d="M1215.2,271.3h4.5v-7.5h-4.5V271.3z"/>
				<path class="st4" d="M1207.1,271.3h4.5v-7.5h-4.5V271.3z"/>
				<path class="st4" d="M1199.1,271.3h4.5v-7.5h-4.5V271.3z"/>
				<path class="st4" d="M1215.2,283.5h4.5V276h-4.5V283.5z"/>
				<path class="st4" d="M1207.1,283.5h4.5V276h-4.5V283.5z"/>
				<path class="st4" d="M1199.1,283.5h4.5V276h-4.5V283.5z"/>
				<path class="st4" d="M1215.2,295.7h4.5v-7.5h-4.5V295.7z"/>
				<path class="st4" d="M1207.1,295.7h4.5v-7.5h-4.5V295.7z"/>
				<path class="st4" d="M1199.1,295.7h4.5v-7.5h-4.5V295.7z"/>
				<path class="st4" d="M1215.2,307.9h4.5v-7.5h-4.5V307.9z"/>
				<path class="st4" d="M1207.1,307.8h4.5v-7.5h-4.5V307.8z"/>
				<path class="st4" d="M1199.1,307.8h4.5v-7.5h-4.5V307.8z"/>
				<path class="st4" d="M1215.2,320h4.5v-7.5h-4.5V320z"/>
				<path class="st4" d="M1207.1,320h4.5v-7.5h-4.5V320z"/>
				<path class="st4" d="M1199.1,320h4.5v-7.5h-4.5V320z"/>
				<path class="st4" d="M1215.2,332.2h4.5v-7.5h-4.5V332.2z"/>
				<path class="st4" d="M1207.1,332.2h4.5v-7.5h-4.5V332.2z"/>
				<path class="st4" d="M1199.1,332.2h4.5v-7.5h-4.5V332.2z"/>
				<path class="st4" d="M1215.2,344.4h4.5v-7.5h-4.5V344.4z"/>
				<path class="st4" d="M1207.1,344.4h4.5v-7.5h-4.5V344.4z"/>
				<path class="st4" d="M1199.1,344.4h4.5v-7.5h-4.5V344.4z"/>
				<path class="st4" d="M1219.7,349h-4.5v4.9h4.5V349z"/>
				<path class="st4" d="M1211.6,349h-4.5v4.9h4.5V349z"/>
				<path class="st4" d="M1203.6,349h-4.5v4.9h4.5V349z"/>
				<path class="st4" d="M1151.3,244.8h18.9v-22.2h-18.9V244.8z"/>
				<path class="st5" d="M1139.3,245.7h12v-23h-12V245.7z"/>
				<path class="st4" d="M1138.5,245.7h11.9v-13.2h-11.9V245.7z"/>
				<path class="st5" d="M1131.1,245.7h7.4v-13.2h-7.4V245.7z"/>
				<path class="st6" d="M1146.9,353.8h30.5V243.4h-30.5V353.8z"/>
				<path class="st1" d="M1164.3,252h9.6v-3.9h-9.6V252z"/>
				<path class="st1" d="M1152,252h9.6v-3.9h-9.6V252z"/>
				<path class="st1" d="M1164.3,258.7h9.6v-3.9h-9.6V258.7z"/>
				<path class="st1" d="M1152,258.7h9.6v-3.9h-9.6V258.7z"/>
				<path class="st1" d="M1164.3,265.3h9.6v-3.9h-9.6V265.3z"/>
				<path class="st1" d="M1152,265.3h9.6v-3.9h-9.6V265.3z"/>
				<path class="st1" d="M1164.3,271.9h9.6V268h-9.6V271.9z"/>
				<path class="st1" d="M1152,271.9h9.6V268h-9.6V271.9z"/>
				<path class="st1" d="M1164.3,278.6h9.6v-3.9h-9.6V278.6z"/>
				<path class="st1" d="M1152,278.6h9.6v-3.9h-9.6V278.6z"/>
				<path class="st1" d="M1164.3,285.2h9.6v-3.9h-9.6V285.2z"/>
				<path class="st1" d="M1152,285.2h9.6v-3.9h-9.6V285.2z"/>
				<path class="st1" d="M1164.3,291.8h9.6v-3.9h-9.6V291.8z"/>
				<path class="st1" d="M1152,291.8h9.6v-3.9h-9.6V291.8z"/>
				<path class="st1" d="M1164.3,298.5h9.6v-3.9h-9.6V298.5z"/>
				<path class="st1" d="M1152,298.5h9.6v-3.9h-9.6V298.5z"/>
				<path class="st1" d="M1164.3,305.1h9.6v-3.9h-9.6V305.1z"/>
				<path class="st1" d="M1152,305.1h9.6v-3.9h-9.6V305.1z"/>
				<path class="st1" d="M1164.3,311.7h9.6v-3.9h-9.6V311.7z"/>
				<path class="st1" d="M1152,311.7h9.6v-3.9h-9.6V311.7z"/>
				<path class="st1" d="M1164.3,318.3h9.6v-3.9h-9.6V318.3z"/>
				<path class="st1" d="M1152,318.3h9.6v-3.9h-9.6V318.3z"/>
				<path class="st1" d="M1164.3,325h9.6v-3.9h-9.6V325z"/>
				<path class="st1" d="M1152,325h9.6v-3.9h-9.6V325z"/>
				<path class="st1" d="M1164.3,331.6h9.6v-3.9h-9.6V331.6z"/>
				<path class="st1" d="M1152,331.6h9.6v-3.9h-9.6V331.6z"/>
				<path class="st1" d="M1164.3,338.2h9.6v-3.9h-9.6V338.2z"/>
				<path class="st1" d="M1152,338.2h9.6v-3.9h-9.6V338.2z"/>
				<path class="st5" d="M1122.2,353.8h24.7V243.4h-24.7V353.8z"/>
				<path class="st6" d="M1132.5,334.3h-7.9v3.9h7.9V334.3z"/>
				<path class="st6" d="M1142.6,334.3h-7.9v3.9h7.9V334.3z"/>
				<path class="st6" d="M1132.5,327.7h-7.9v3.9h7.9V327.7z"/>
				<path class="st6" d="M1142.6,327.7h-7.9v3.9h7.9V327.7z"/>
				<path class="st6" d="M1132.5,321.1h-7.9v3.9h7.9V321.1z"/>
				<path class="st6" d="M1142.6,321.1h-7.9v3.9h7.9V321.1z"/>
				<path class="st6" d="M1132.5,314.4h-7.9v3.9h7.9V314.4z"/>
				<path class="st6" d="M1142.6,314.4h-7.9v3.9h7.9V314.4z"/>
				<path class="st6" d="M1132.5,307.8h-7.9v3.9h7.9V307.8z"/>
				<path class="st6" d="M1142.6,307.8h-7.9v3.9h7.9V307.8z"/>
				<path class="st6" d="M1132.5,301.2h-7.9v3.9h7.9V301.2z"/>
				<path class="st6" d="M1142.6,301.2h-7.9v3.9h7.9V301.2z"/>
				<path class="st6" d="M1132.5,294.5h-7.9v3.9h7.9V294.5z"/>
				<path class="st6" d="M1142.6,294.5h-7.9v3.9h7.9V294.5z"/>
				<path class="st6" d="M1132.5,287.9h-7.9v3.9h7.9V287.9z"/>
				<path class="st6" d="M1142.6,287.9h-7.9v3.9h7.9V287.9z"/>
				<path class="st6" d="M1132.5,281.3h-7.9v3.9h7.9V281.3z"/>
				<path class="st6" d="M1142.6,281.3h-7.9v3.9h7.9V281.3z"/>
				<path class="st6" d="M1132.5,274.7h-7.9v3.9h7.9V274.7z"/>
				<path class="st6" d="M1142.6,274.7h-7.9v3.9h7.9V274.7z"/>
				<path class="st6" d="M1132.5,268h-7.9v3.9h7.9V268z"/>
				<path class="st6" d="M1142.6,268h-7.9v3.9h7.9V268z"/>
				<path class="st6" d="M1132.5,261.4h-7.9v3.9h7.9V261.4z"/>
				<path class="st6" d="M1142.6,261.4h-7.9v3.9h7.9V261.4z"/>
				<path class="st6" d="M1132.5,254.8h-7.9v3.9h7.9V254.8z"/>
				<path class="st6" d="M1142.6,254.8h-7.9v3.9h7.9V254.8z"/>
				<path class="st6" d="M1132.5,248.1h-7.9v3.9h7.9V248.1z"/>
				<path class="st6" d="M1142.6,248.1h-7.9v3.9h7.9V248.1z"/>
				<path class="st8" d="M1042.1,315.3c0,0,10.7,23.6-6.7,23.6c-17.4,0-6.2-24.4-6.2-24.4s-4-1.8,0.6-14.9
					c4.7-13.2,6.8-13.2,8.7-13.2c2.4,0,4.7,5.7,3.1,14.5C1041.6,300.9,1047.8,311.8,1042.1,315.3z"/>
				<path class="st9" d="M1033.9,354.6l1.6-35.6l1.7,35.6H1033.9z"/>
				<path class="st9" d="M1034.8,334l6.3-7.4l-5,8.3L1034.8,334z"/>
				<path class="st10" d="M1140.2,317.9c0,0-5-2-8.9,4.9c-4,7,1,11.6,5.1,8.9c0,0,3.2,6.6,9.5,5c6.3-1.6,7.3-6.6,7.3-6.6
					s5.6,0.4,5.7-3.8c0.2-4.2-3.9-7.9-3.9-7.9s-0.3-10.4-7-10.3C1141.1,308.2,1140.2,317.9,1140.2,317.9z"/>
				<path class="st9" d="M1144.8,354.6l1.4-30.8l1.5,30.8L1144.8,354.6z"/>
				<path class="st9" d="M1145.8,335.3l-4.4-8.6l5.1,7.3L1145.8,335.3z"/>
				<path class="st10" d="M1080.2,317.9c0,0-5-2-8.9,4.9c-4,7,1,11.6,5.1,8.9c0,0,3.2,6.6,9.5,5c6.3-1.6,7.3-6.6,7.3-6.6
					s5.6,0.4,5.7-3.8c0.2-4.2-4-7.9-4-7.9s-0.2-10.4-7-10.3C1081.2,308.2,1080.2,317.9,1080.2,317.9z"/>
				<path class="st9" d="M1084.9,354.6l1.4-30.8l1.4,30.8L1084.9,354.6z"/>
				<path class="st9" d="M1085.8,335.3l-4.4-8.6l5.1,7.3L1085.8,335.3z"/>
				<path class="st8" d="M1269.7,315.2c0,0,10.7,23.6-6.7,23.6c-17.4,0-6.1-24.4-6.1-24.4s-4-1.8,0.6-14.9
					c4.7-13.2,6.8-13.2,8.7-13.2c2.4,0,4.7,5.7,3.1,14.5C1269.2,300.7,1275.3,311.6,1269.7,315.2z"/>
				<path class="st9" d="M1261.4,354.5l1.7-35.6l1.7,35.6L1261.4,354.5z"/>
				<path class="st9" d="M1262.4,333.8l6.3-7.4l-5,8.3L1262.4,333.8z"/>
				<path class="st8" d="M1233.9,315.2c0,0,10.7,23.6-6.7,23.6c-17.4,0-6.2-24.4-6.2-24.4s-4-1.8,0.6-14.9
					c4.7-13.2,6.8-13.2,8.7-13.2c2.4,0,4.7,5.7,3.1,14.5C1233.4,300.7,1239.5,311.6,1233.9,315.2z"/>
				<path class="st9" d="M1225.6,354.5l1.6-35.6l1.7,35.6L1225.6,354.5z"/>
				<path class="st9" d="M1226.6,333.8l6.3-7.4l-5,8.3L1226.6,333.8z"/>
				<path class="st8" d="M1095.2,320.2c0,0-9.3,20.7,5.9,20.7c15.3,0,5.4-21.4,5.4-21.4s3.5-1.6-0.6-13.1
					c-4.1-11.5-5.9-11.5-7.6-11.5c-2.1,0-4.1,5-2.7,12.7C1095.6,307.5,1090.3,317.1,1095.2,320.2z"/>
				<path class="st9" d="M1102.5,354.6l-1.5-31.1l-1.4,31.1H1102.5z"/>
				<path class="st9" d="M1101.7,336.5l-5.6-6.4l4.4,7.3L1101.7,336.5z"/>
				<path class="st8" d="M1180,320.2c0,0-9.3,20.7,5.9,20.7c15.3,0,5.4-21.4,5.4-21.4s3.5-1.6-0.6-13.1c-4.1-11.5-5.9-11.5-7.6-11.5
					c-2.1,0-4.1,5-2.7,12.7C1180.5,307.5,1175.1,317.1,1180,320.2z"/>
				<path class="st9" d="M1187.4,354.6l-1.5-31.1l-1.4,31.1H1187.4z"/>
				<path class="st9" d="M1186.5,336.5l-5.6-6.4l4.4,7.3L1186.5,336.5z"/>
				<path class="st10" d="M1230.2,317.7c0,0-5-2-8.9,4.9c-4,7,1,11.6,5.1,8.9c0,0,3.2,6.6,9.5,5c6.3-1.6,7.3-6.6,7.3-6.6
					s5.6,0.4,5.7-3.8c0.2-4.2-4-7.9-4-7.9s-0.3-10.4-7-10.3C1231.2,308.1,1230.2,317.7,1230.2,317.7z"/>
				<path class="st9" d="M1234.9,354.5l1.4-30.8l1.4,30.8H1234.9z"/>
				<path class="st9" d="M1235.8,335.2l-4.3-8.6l5.2,7.3L1235.8,335.2z"/>
				<path class="st9" d="M881.4,354.4l48.7-0.2l48.7-0.1l97.4-0.2l97.4,0.2l48.7,0.1l48.7,0.2l-48.7,0.2l-48.7,0.1l-97.4,0.2
					l-97.4-0.2l-48.7-0.1L881.4,354.4z"/>
			</g>
		</g>
		<path class="st11" d="M98.9,343.6L97.2,359h1.1l2-13.7h3.6l5.4,13.7h1.5l-5.5-15.4H98.9z"/>
		<path class="st11" d="M136.6,343.6l-1.7,15.4h1.1l2-13.7h3.6L147,359h1.5l-5.5-15.4H136.6z"/>
		<path class="st11" d="M98.6,324l3.5,17.6h-1.3L97.6,324H98.6z"/>
		<path class="st11" d="M115.1,324l3.6,17.6h-1.4l-3.2-17.6H115.1z"/>
		<path class="st11" d="M131.9,324l3.6,17.6h-1.4l-3.2-17.6H131.9z"/>
		<path class="st12" d="M137.4,328.5H94.2l-0.6-3.1h43.2L137.4,328.5z"/>
		<path class="st13" d="M137.4,328.5H95.1l-0.6-3.1h42.3L137.4,328.5z"/>
		<path class="st12" d="M138.1,332.2H94.9l-0.6-3.1h43.2L138.1,332.2z"/>
		<path class="st13" d="M138.1,332.2H95.8l-0.6-3.1h42.3L138.1,332.2z"/>
		<path class="st12" d="M138.9,335.8H95.7l-0.6-3.1h43.2L138.9,335.8z"/>
		<path class="st13" d="M138.9,335.8H96.5l-0.6-3.1h42.3L138.9,335.8z"/>
		<path class="st12" d="M139.6,339.4H96.4l-0.6-3.1H139L139.6,339.4z"/>
		<path class="st13" d="M139.6,339.4H97.3l-0.6-3.1H139L139.6,339.4z"/>
		<path class="st11" d="M98.8,327c0,0.1-0.1,0.2-0.2,0.2c-0.1,0-0.2-0.1-0.2-0.2c0-0.1,0.1-0.2,0.2-0.2
			C98.7,326.8,98.8,326.9,98.8,327z"/>
		<path class="st11" d="M99.6,330.6c0,0.1-0.1,0.2-0.2,0.2c-0.1,0-0.2-0.1-0.2-0.2c0-0.1,0.1-0.2,0.2-0.2
			C99.5,330.4,99.6,330.5,99.6,330.6z"/>
		<path class="st11" d="M100.3,334.2c0,0.1-0.1,0.2-0.2,0.2c-0.1,0-0.2-0.1-0.2-0.2c0-0.1,0.1-0.2,0.2-0.2
			C100.2,334,100.3,334.1,100.3,334.2z"/>
		<path class="st11" d="M101,337.9c0,0.1-0.1,0.2-0.2,0.2c-0.1,0-0.2-0.1-0.2-0.2s0.1-0.2,0.2-0.2C100.9,337.6,101,337.7,101,337.9z
			"/>
		<path class="st11" d="M115.4,327c0,0.1-0.1,0.2-0.2,0.2c-0.1,0-0.2-0.1-0.2-0.2c0-0.1,0.1-0.2,0.2-0.2
			C115.3,326.8,115.4,326.9,115.4,327z"/>
		<path class="st11" d="M116.1,330.6c0,0.1-0.1,0.2-0.2,0.2c-0.1,0-0.2-0.1-0.2-0.2c0-0.1,0.1-0.2,0.2-0.2
			C116,330.4,116.1,330.5,116.1,330.6z"/>
		<path class="st11" d="M116.8,334.2c0,0.1-0.1,0.2-0.2,0.2c-0.1,0-0.2-0.1-0.2-0.2c0-0.1,0.1-0.2,0.2-0.2
			C116.7,334,116.8,334.1,116.8,334.2z"/>
		<path class="st11" d="M117.5,337.9c0,0.1-0.1,0.2-0.2,0.2c-0.1,0-0.2-0.1-0.2-0.2s0.1-0.2,0.2-0.2
			C117.4,337.6,117.5,337.7,117.5,337.9z"/>
		<path class="st11" d="M132.2,327c0,0.1-0.1,0.2-0.2,0.2c-0.1,0-0.2-0.1-0.2-0.2c0-0.1,0.1-0.2,0.2-0.2
			C132.1,326.8,132.2,326.9,132.2,327z"/>
		<path class="st11" d="M132.9,330.6c0,0.1-0.1,0.2-0.2,0.2c-0.1,0-0.2-0.1-0.2-0.2c0-0.1,0.1-0.2,0.2-0.2
			C132.8,330.4,132.9,330.5,132.9,330.6z"/>
		<path class="st11" d="M133.6,334.2c0,0.1-0.1,0.2-0.2,0.2c-0.1,0-0.2-0.1-0.2-0.2c0-0.1,0.1-0.2,0.2-0.2
			C133.5,334,133.6,334.1,133.6,334.2z"/>
		<path class="st11" d="M134.4,337.9c0,0.1-0.1,0.2-0.2,0.2s-0.2-0.1-0.2-0.2s0.1-0.2,0.2-0.2C134.3,337.6,134.4,337.7,134.4,337.9z
			"/>
		<path class="st12" d="M148.9,346.3h-42.6l-0.8-2.2h42.6L148.9,346.3z"/>
		<path class="st13" d="M148.9,346.3h-41.8l-0.8-2.2h41.8L148.9,346.3z"/>
		<path class="st12" d="M148,343.6H97.7v-1.9H147L148,343.6z"/>
		<path class="st13" d="M148,343.6H98.6v-1.9H147L148,343.6z"/>
		<path class="st14" d="M277.7,339.5c0,0-0.8,10.3-0.8,10.3c0,2,0,3.8,0.1,4.7c0,0,0,0,0,0c0,0.3,0.1,0.6,0.1,0.6c0,0,0,0,0,0
			c0.6,0.4,16.9,1,17.4,0.8c0.6-0.2,0.1-1.8-0.5-2.3c-0.6-0.5-6.7-3.5-6.7-3.5l0.6-10.3L277.7,339.5z"/>
		<path class="st1" d="M276.9,347.7c0,0,0,2.2,0,2.2c0,2,0,3.8,0.1,4.7c0,0,0,0,0,0c0.1,0.3,0.1,0.6,0.1,0.6c0,0,0,0,0,0
			c0.6,0.4,16.9,1,17.4,0.8c0.6-0.2,0.1-1.8-0.5-2.3c-0.6-0.5-6.7-3.5-6.7-3.5l0-2.2L276.9,347.7z"/>
		<path class="st8" d="M294.6,356.1c-0.6,0.2-16.8-0.4-17.4-0.8c-0.2-0.2-0.3-2.5-0.3-5.4c0,0,0-0.1,0-0.1l10.5,0.2l0,0.2
			c0,0,6.1,3,6.7,3.5C294.7,354.2,295.2,355.9,294.6,356.1z"/>
		<path class="st15" d="M294.5,355.4c-2.7-0.2-13.8-0.5-16.5-0.5c0,0,0,0,0,0C280.7,355.2,291.7,355.5,294.5,355.4
			C294.5,355.5,294.5,355.4,294.5,355.4z"/>
		<path class="st15" d="M288.3,350.3c-1.1-0.2-2.4-0.1-3.2,0.6c0,0,0,0.1,0,0.1c1.1-0.3,2.1-0.5,3.2-0.5
			C288.3,350.4,288.3,350.3,288.3,350.3z"/>
		<path class="st15" d="M289,350.8c-1.1-0.2-2.4-0.1-3.2,0.6c0,0,0,0.1,0,0.1c1.1-0.3,2.1-0.5,3.2-0.5
			C289.1,350.9,289.1,350.8,289,350.8z"/>
		<path class="st15" d="M289.8,351.3c-1.1-0.2-2.4-0.1-3.2,0.6c0,0,0,0.1,0,0.1c1.1-0.3,2.1-0.5,3.2-0.5
			C289.9,351.4,289.9,351.3,289.8,351.3z"/>
		<path class="st15" d="M276.3,350.3l11.4-0.2c0,0,1.4-20.4,1.1-27.2c-0.3-7.4-3.5-29.3-3.5-29.3h-9.6c0,0,2.5,22,2.5,29.4
			C278.3,329.9,276.3,350.3,276.3,350.3z"/>
		<path class="st13" d="M284.6,293.6l-6.7,23.1c-0.7-9.4-2.2-23.1-2.2-23.1H284.6z"/>
		<path class="st8" d="M277.5,294.7l0.6,6.6l0.6,6.6c0.4,4.4,0.7,8.7,1,13.1c0.1,1.1,0.1,2.2,0.1,3.3c0,1.1-0.1,2.2-0.1,3.3
			c-0.1,2.2-0.3,4.4-0.4,6.6c-0.2,2.2-0.3,4.4-0.5,6.6l-0.6,6.6l0.5-6.6c0.2-2.2,0.3-4.4,0.5-6.6c0.1-2.2,0.3-4.4,0.4-6.6
			c0.1-1.1,0.1-2.2,0.1-3.3c0-1.1,0-2.2-0.1-3.3c-0.2-4.4-0.6-8.8-0.9-13.1L277.5,294.7z"/>
		<path class="st8" d="M287.2,348.2c-1.8,0-1.3,0-3,0c-0.9,0-6.6,0-7.4,0.2c0,0,0,0,0,0c0.8,0.1,6.5,0,7.4,0
			C285.9,348.3,285.4,348.3,287.2,348.2C287.2,348.3,287.2,348.2,287.2,348.2z"/>
		<path class="st14" d="M259.7,334c0,0-5.5,8.9-5.5,8.9c-0.9,1.8-1.6,3.4-2,4.3c0,0,0,0,0,0c-0.1,0.3-0.2,0.5-0.1,0.6c0,0,0,0,0,0
			c0.4,0.6,14.8,8.1,15.4,8.2c0.6,0.1,0.9-1.6,0.6-2.3c-0.3-0.7-4.5-6.1-4.5-6.1l5.4-8.9L259.7,334z"/>
		<path class="st1" d="M252.1,347.8C252.1,347.8,252.1,347.8,252.1,347.8c0.4,0.6,14.8,8.2,15.4,8.3c0.6,0.1,0.9-1.6,0.6-2.3
			c-0.3-0.7-4.6-6.1-4.6-6.1l1-1.6c-2.4-1.2-6.6-3.4-9.3-4.8c-0.6,0.9-1,1.6-1,1.6c-0.9,1.8-1.6,3.4-2,4.3c0,0,0,0,0,0
			C252.2,347.5,252.1,347.8,252.1,347.8z"/>
		<path class="st8" d="M267.5,356.1c-0.6-0.1-15-7.6-15.4-8.2c-0.1-0.2,0.8-2.4,2.1-5c0,0,0-0.1,0-0.1l9.3,4.7l-0.1,0.2
			c0,0,4.2,5.3,4.5,6.1C268.4,354.5,268.1,356.2,267.5,356.1z"/>
		<path class="st15" d="M267.6,355.4c-2.4-1.3-12.2-6.4-14.7-7.6c0,0,0,0,0,0C255.3,349.2,265.1,354.3,267.6,355.4
			C267.7,355.5,267.7,355.5,267.6,355.4z"/>
		<path class="st15" d="M264.3,348.1c-0.9-0.7-2.1-1.1-3.2-0.8c0,0,0,0.1,0,0.1c1.1,0.2,2.1,0.5,3.1,0.9
			C264.3,348.3,264.4,348.2,264.3,348.1z"/>
		<path class="st15" d="M264.8,348.9c-0.9-0.7-2.1-1.1-3.2-0.8c0,0,0,0.1,0,0.1c1.1,0.2,2.1,0.5,3.1,0.9
			C264.8,349.1,264.8,349,264.8,348.9z"/>
		<path class="st15" d="M265.2,349.7c-0.9-0.7-2.1-1.1-3.2-0.8c0,0,0,0.1,0,0.1c1.1,0.2,2.1,0.5,3.1,0.9
			C265.3,349.8,265.3,349.7,265.2,349.7z"/>
		<path class="st15" d="M284.9,293.6C284.9,293.6,284.9,293.6,284.9,293.6c0,0.2-0.7,3.3-1.4,6c-0.5,1.9-1,3.7-1.3,3.8
			c-0.3,0.2-2,0.9-2.5,1.2c0,0-3.7,18.4-5.7,24.2c-1.8,5.3-9.3,19.4-9.3,19.4l-10.9-5.5c0,0,8.5-14.3,9.4-16.9
			c1.4-4,6.8-22.4,6.8-22.4s-0.2-1.1-0.1-1.7c0.1-2,1.3-6.3,2.2-8.1H284.9z"/>
		<path class="st8" d="M264.5,346c-1.6-0.9-1.1-0.6-2.7-1.5c-0.8-0.4-5.8-3.1-6.6-3.4c0,0,0,0,0,0c0.7,0.5,5.7,3.1,6.5,3.5
			C263.3,345.5,262.9,345.2,264.5,346C264.5,346,264.5,346,264.5,346z"/>
		<path class="st8" d="M272.5,300.6c0.3-0.1,0.6-0.1,0.9-0.1c0.2,0,0.5-0.1,0.7-0.1c0.5-0.1,0.9-0.3,1.3-0.5
			c0.4-0.3,0.6-0.8,0.8-1.3c0.1-0.3,0.2-0.6,0.4-0.8c0.1-0.1,0.1-0.3,0.2-0.4c0.1-0.2,0.2-0.3,0.2-0.5c0,0,0,0,0,0
			c0,0.1-0.1,0.2-0.1,0.4c0,0.1-0.1,0.3-0.1,0.4c-0.1,0.2-0.1,0.5-0.2,0.7c-0.1,0.4-0.3,0.9-0.5,1.3c-0.4,0.7-1.2,1-2,1.1
			c-0.2,0-0.5,0-0.7,0.1C273.1,300.7,272.8,300.8,272.5,300.6C272.5,300.7,272.5,300.7,272.5,300.6z"/>
		<path class="st8" d="M283,303c-1.2,0.4-2.3,1-3.4,1.6c0,0,0,0.1,0,0.1c1.1-0.5,2.3-1,3.4-1.5C283.2,303.1,283.1,302.9,283,303z"/>
		<path class="st8" d="M283.4,295.2C283.4,295.1,283.3,295.1,283.4,295.2c-0.1,1.4-0.2,2.5-0.3,3.8c-0.1,0.6-0.5,3.8-1.6,3.6
			c-0.2,0-0.3-0.2-0.3-0.5c0-0.3,0.1-0.7,0.1-1c0.1-0.7,0.2-1.4,0.3-2c0.1-1.3,0.1-2.6,0-3.8c0,0-0.1,0-0.1,0c0,1.8,0,3.5-0.3,5.3
			c-0.1,0.8-0.6,2.1,0.3,2.2c0.9,0.1,1.5-2,1.6-2.6C283.5,298.6,283.5,296.8,283.4,295.2z"/>
		<path class="st8" d="M281.6,302.7c-0.1,0.2-0.2,0.4-0.2,0.7c0,0.2-0.1,0.4-0.1,0.6c0,0,0.1,0,0.1,0c0.1-0.2,0.2-0.4,0.2-0.5
			c0.1-0.2,0.2-0.4,0.2-0.6C281.9,302.6,281.7,302.5,281.6,302.7z"/>
		<path class="st8" d="M256.7,340.8c1.5-2.9,3.1-5.8,4.7-8.6c0.8-1.4,1.6-2.8,2.4-4.2c0.7-1.4,1.2-2.9,1.7-4.4
			c1-3.1,1.9-6.2,2.7-9.3c0.9-3.1,1.7-6.3,2.4-9.4c0.2-0.8,0.3-1.8,0.2-2.7c-0.1-1.7,1.9-7.7,2-8.1c0,0,0.1,0,0.1,0
			c-0.5,1.5-1.9,6.4-1.9,8.1c0,0.8-0.1,2-0.2,2.7c-0.7,3.2-1.2,5.2-2.1,8.3c-0.8,3.1-1.7,6.3-2.7,9.4c-0.5,1.5-0.9,3-1.5,4.5
			c-0.7,1.4-1.5,2.8-2.3,4.2c-1.6,2.9-3.2,5.7-4.9,8.5C257.2,340.2,257,340.5,256.7,340.8C256.8,340.9,256.7,340.9,256.7,340.8z"/>
		<path class="st14" d="M281.8,280.9c0.4,2.6,2.3,10.2,4.7,11.3c1.6,0.7,8,2.3,9.7,1.3c0.7-0.4,1.1-5.9,0.1-5.9
			c-0.9,0-6.4-0.5-7-0.8c-0.6-0.3-4.2-7-5.8-8.7C281.1,275.1,281.6,279.5,281.8,280.9z"/>
		<path class="st16" d="M293.9,287.4l-0.9,7c0,0-6.6-1.2-7.9-2.9c-0.7-1-3.4-7.9-3.8-12.9c-0.1-1.9,1.4-2.1,2.6-0.3
			c1.2,1.7,5.3,8.2,5.7,8.5C290,286.9,293.9,287.4,293.9,287.4z"/>
		<path class="st15" d="M291.5,293.5c0-0.5,0.1-1,0.1-1.4c0.1-0.5,0.1-0.9,0.2-1.4c0.1-0.5,0.1-0.9,0.2-1.4c0-0.2,0.1-0.5,0.1-0.7
			c0-0.1,0-0.2,0.1-0.4c0-0.1,0.1-0.3,0.1-0.4c0,0,0,0,0,0c0,0.1,0,0.3,0,0.4c0,0.1,0,0.2,0,0.4c0,0.2,0,0.5-0.1,0.7
			c0,0.5-0.1,0.9-0.2,1.4c-0.1,0.5-0.1,0.9-0.2,1.4C291.7,292.6,291.7,293.1,291.5,293.5C291.5,293.5,291.5,293.5,291.5,293.5z"/>
		<path class="st17" d="M290.4,293.8c-2-0.5-4.6-1.3-5.3-2.4c-0.7-1-3.4-7.9-3.8-12.9c0-0.7,0.1-1.1,0.4-1.4L290.4,293.8z"/>
		<path class="st1" d="M297.1,288.6c0,0.3-0.1,0.6-0.1,0.9c-0.3,1.1-0.8,2.1-1.7,2.8c-1,0.9-2.4,1.4-3.8,1.3c0,0-0.1,0-0.1,0
			c-0.1,0-0.1,0-0.2,0c-1.2-0.1-2.3-0.7-3.2-1.6c-0.1-0.1-0.2-0.2-0.3-0.3c-0.7-0.9-1.2-2-1.2-3.3c0-0.1,0-0.3,0-0.4
			c0.1-1.2,0.5-2.2,1.2-3.1c0.4-0.4,0.8-0.8,1.2-1.1c0.2-0.1,0.4-0.3,0.7-0.4c0.8-0.4,1.6-0.5,2.5-0.5c0,0,0,0,0,0
			c0.1,0,0.2,0,0.2,0c1.6,0.2,2.9,1,3.8,2.2c0,0,0.1,0.1,0.1,0.1C296.8,286.3,297.1,287.4,297.1,288.6z"/>
		<path class="st15" d="M297.1,288.6c-0.2,4.7-6.1,6.8-9.3,3.3c-2-2.1-1.8-5.7,0.4-7.6C291.7,281.2,297.3,283.9,297.1,288.6z
			 M297.1,288.6c0.2-4.7-5.4-7.3-8.8-4.2c-2.1,1.8-2.3,5.3-0.4,7.4C291,295.4,296.8,293.3,297.1,288.6z"/>
		<path class="st15" d="M296.5,289.8c-0.1-0.2-0.2-0.4-0.3-0.7c-0.2-0.4-0.5-0.8-0.8-1.2c-0.1-0.1-0.1-0.2-0.1-0.3
			c0.1-0.5,0.1-1.1,0.1-1.6c0-0.2,0-0.3-0.1-0.5c0.2,0,0.7-0.1,0.8-0.1c0,0-0.1-0.1-0.1-0.1c-0.3,0-0.5,0.1-0.7,0.1c0,0-0.1,0-0.1,0
			c-0.5-0.3-0.9-0.6-1.4-0.8c-0.2-0.1-0.3-0.1-0.5-0.2c0,0-0.1,0-0.1-0.1c-0.2-0.4-0.5-0.8-0.9-1.1c-0.1,0-0.2,0-0.2,0c0,0,0,0,0,0
			c0.3,0.4,0.7,0.7,0.9,1.1c0,0,0,0,0,0.1c-0.2,0.2-0.4,0.3-0.6,0.5c-0.3,0.3-0.6,0.6-0.9,0.8c0,0-0.1,0-0.1,0c-0.4,0-0.9,0-1.3,0
			c-0.4,0-0.8,0.1-1.2,0.2c-0.1,0-0.1,0-0.1-0.1c-0.1-0.3-0.3-0.6-0.4-0.9c0-0.1,0-0.1,0-0.2c0.3-0.4,0.7-0.8,1.2-1.1
			c-0.2,0.1-0.5,0.2-0.7,0.4c-0.1,0.1-0.2,0.2-0.2,0.2c-0.1,0.1-0.3,0.3-0.4,0.5c-0.1,0.1-0.1,0.1-0.2,0.2c-0.1,0.1-0.3,0.2-0.4,0.3
			c-0.7,0.8-1.1,1.9-1.2,3.1c0,0.1,0,0.3,0,0.4c0-0.1,0-0.1,0.1-0.2c0,0,0-0.1,0-0.1c0.1,0,0.3,0,0.4,0.1c0.2,0,0.3,0.1,0.5,0.1
			c0.1,0,0.1,0,0.1,0.1c0.3,0.8,0.7,1.5,1.2,2.1c0.1,0.1,0.1,0.2,0.2,0.3c0,0,0,0.1,0,0.1c-0.1,0.5-0.1,0.9-0.1,1.4c0,0,0,0,0,0.1
			c-0.2-0.1-0.4-0.2-0.6-0.3c-0.2-0.1-0.4-0.2-0.6-0.3c0.1,0.1,0.2,0.2,0.3,0.3c0.3,0.1,0.6,0.3,0.9,0.4c0,0,0.1,0,0.1,0.1
			c0,0,0,0,0,0c0.3,0.3,0.8,0.5,1.2,0.7c0.2,0.1,0.3,0.1,0.5,0.2c0.1,0,0.2,0.1,0.3,0.1c0.1,0,0.1,0.1,0.1,0.1c0.1,0,0.1,0,0.2,0
			c0,0,0,0-0.1-0.1c0,0,0,0-0.1-0.1c0.5-0.2,1-0.6,1.4-0.9c0,0,0.1,0,0.1,0c0.7,0.1,1.4-0.1,2.1-0.3c0.1,0,0.2-0.1,0.3-0.1
			c0,0.1,0.1,0.1,0.1,0.2c0.8-0.7,1.4-1.7,1.7-2.8C296.8,289.6,296.6,289.7,296.5,289.8z M291.3,290.7c-0.5,0-1,0-1.4,0
			c-0.3,0-0.6,0-0.8,0c0,0-0.1,0-0.1-0.1c-0.5-0.7-0.9-1.4-1.3-2.2c0,0,0-0.1,0-0.1c0.2-0.7,0.5-1.3,0.9-1.9
			c0.2-0.3,0.3-0.4,0.7-0.4c0.7-0.1,1.4-0.1,2.1-0.1c0.1,0,0.1,0,0.2,0.1c0.4,0.7,0.9,1.4,1.3,2.1c0,0.1,0,0.1,0,0.2
			c-0.2,0.6-0.5,1.1-0.9,1.7c-0.2,0.3-0.3,0.5-0.5,0.7C291.4,290.7,291.4,290.7,291.3,290.7z M296.2,290.2c-0.3,0.6-0.5,1.1-0.9,1.6
			c0,0.1-0.1,0.1-0.2,0.1c-0.5,0.2-1,0.4-1.6,0.5c-0.2,0-0.5,0-0.7,0c-0.1,0-0.1,0-0.2-0.1c-0.3-0.4-0.6-0.8-0.9-1.2
			c-0.1-0.1-0.2-0.3-0.2-0.4c0.2-0.3,0.5-0.7,0.7-1c0.3-0.5,0.5-1,0.7-1.5c0-0.1,0.1-0.1,0.2-0.1c0.6-0.1,1.2-0.1,1.8-0.2
			c0.2,0,0.2,0,0.3,0.1c0.3,0.5,0.6,0.9,0.9,1.4C296.3,289.7,296.3,289.9,296.2,290.2z"/>
		<path class="st14" d="M296.9,286.1c0.3,0.9,1.3,2.1,1.3,2.9c0,0.7-0.5,0.8-0.5,0.8s0.7,0.4,0.6,1.1c0,0.3-0.6,0.6-0.6,0.6
			s0.5,0.4,0.4,1c-0.1,0.5-0.7,0.6-0.7,0.6s0.4,0.6,0.1,1c-0.5,0.9-4.6,0.5-5.1-1c-0.2-0.7,0.8-0.6,0.8-0.6s-1.4-0.6-1.3-1.4
			c0.1-0.8,1.3-0.6,1.3-0.6s-1.3-0.5-1.2-1.4c0.2-0.9,1.4-0.4,1.4-0.4s-0.9-0.7-0.6-1.3c0.4-1.1,2,0.5,3,0.3l0.6-1.4L296.9,286.1z"
			/>
		<path class="st14" d="M297.6,287.4c-0.2-0.9,0.9-1.9,0.8-2.8c-0.2-1.2-1.6-0.2-2.1,1.5l-0.1,1.4L297.6,287.4z"/>
		<path class="st15" d="M297.3,293.1C297.3,293.1,297.3,293.1,297.3,293.1c-1.4,0.2-3,0-4.2-0.6c0,0,0-0.1,0-0.1
			C294.5,292.8,295.8,293.1,297.3,293.1z"/>
		<path class="st15" d="M297.6,291.5C297.6,291.5,297.6,291.5,297.6,291.5c-1.4,0.2-3.2,0-4.6-1c0,0-0.1-0.1,0-0.1
			C294,291,296.3,291.4,297.6,291.5z"/>
		<path class="st15" d="M293.2,288.5c1.3,0.8,2.8,1.1,4.3,1.3c0,0,0,0,0,0c-0.8,0.2-1.8,0-2.5-0.2
			C294.4,289.4,293.8,289.1,293.2,288.5C293.2,288.6,293.2,288.5,293.2,288.5z"/>
		<path class="st16" d="M285.8,296.2l-14.7-0.4c0,0-0.6-0.8-0.4-1.8c0.4-3.6,5.5-15.3,7.6-16.8c0.9-0.7,2.9-1.2,4-0.4
			c1.7,1.4,3.2,11.2,4.2,16.8C286.8,295.2,285.8,296.2,285.8,296.2z"/>
		<path class="st8" d="M286.4,295.3c0,0.1-0.1,0.2-0.1,0.2l-15.5-0.4c0-0.1,0-0.1-0.1-0.2L286.4,295.3z M286.6,293.9l-15.8-0.4
			c0,0.1,0,0.2,0,0.2l15.8,0.4C286.6,294,286.6,294,286.6,293.9z M286.4,292.5l-15.2-0.4c0,0.1,0,0.1-0.1,0.2l15.3,0.4
			C286.4,292.6,286.4,292.5,286.4,292.5z M286.1,291l-14.5-0.4c0,0.1,0,0.1-0.1,0.2l14.6,0.4C286.1,291.2,286.1,291.1,286.1,291z
			 M285.9,289.6l-13.8-0.4c0,0.1-0.1,0.1-0.1,0.2l13.9,0.4C285.9,289.8,285.9,289.7,285.9,289.6z M285.6,288.2l-13-0.4
			c0,0.1-0.1,0.1-0.1,0.2l13.1,0.4C285.7,288.4,285.6,288.3,285.6,288.2z M285.4,286.8l-12.2-0.3c0,0.1-0.1,0.1-0.1,0.2l12.3,0.3
			C285.4,286.9,285.4,286.9,285.4,286.8z M285.1,285.4l-11.3-0.3c0,0.1-0.1,0.1-0.1,0.2l11.4,0.3
			C285.1,285.5,285.1,285.4,285.1,285.4z M284.8,284l-10.4-0.3c0,0.1-0.1,0.1-0.1,0.2l10.5,0.3C284.9,284.1,284.8,284,284.8,284z
			 M284.5,282.5l-9.4-0.3c0,0.1-0.1,0.1-0.1,0.2l9.5,0.3C284.5,282.7,284.5,282.6,284.5,282.5z M284.2,281.1l-8.3-0.2
			c0,0.1-0.1,0.1-0.1,0.2l8.5,0.2C284.2,281.3,284.2,281.2,284.2,281.1z M283.8,279.7l-7.1-0.2c0,0.1-0.1,0.1-0.1,0.2l7.3,0.2
			C283.8,279.8,283.8,279.8,283.8,279.7z M283.3,278.3l-5.7-0.2c-0.1,0.1-0.1,0.1-0.2,0.2l6,0.2
			C283.3,278.4,283.3,278.3,283.3,278.3z M282.4,276.9C282.4,276.9,282.4,276.8,282.4,276.9l-3.1-0.1c-0.2,0.1-0.3,0.1-0.5,0.2
			l3.8,0.1C282.5,277,282.5,276.9,282.4,276.9z"/>
		<path class="st16" d="M276.8,278.1c-5,3.9-9.1,7.6-9.3,9.8c-0.3,3.2,3.7,2.4,4.6,2c1.5-0.8,4.8-5.9,6.7-9.9
			C280.9,275.5,278,277.1,276.8,278.1z"/>
		<path class="st15" d="M278.6,280.3c-0.8,2-1.9,3.9-3.1,5.8c-0.6,0.9-1.3,1.8-2,2.6c-0.4,0.4-0.8,0.8-1.2,1.1
			c-0.5,0.3-1.1,0.4-1.6,0.4c0.3,0,0.5-0.1,0.8-0.2c0.8-0.2,1.4-0.8,1.9-1.4c0.7-0.8,1.3-1.7,1.9-2.6
			C276.5,284.2,277.6,282.3,278.6,280.3z"/>
		<path class="st15" d="M278.6,281c-0.2,0.4-0.4,0.8-0.8,1.1C278,281.7,278.2,281.3,278.6,281z"/>
		<path class="st14" d="M281.9,280.1c-0.9,0-2.1-1.8-2.4-3.1c0-0.1,0.3-0.8,0.7-1.8c0.2-0.6,0.5-1.2,0.6-1.8l3.5,2
			c0,0-0.7,1.2-1,2.2c0,0.1,0,0.2,0,0.3c0,0,0,0,0,0C283.2,278.3,282.8,280.1,281.9,280.1z"/>
		<path class="st15" d="M284.4,275.3c0,0-0.5,0.7-0.8,1.6c-1.8,0.5-3.6-1.2-3.6-1.2c0.1-0.2,0.1-0.3,0.2-0.5
			c0.2-0.6,0.5-1.2,0.6-1.8L284.4,275.3z"/>
		<path class="st15" d="M283.6,267.4c0,0-1.5-0.4-2.3,1c-0.8,1.3-0.9,2.8-0.8,2.9C280.6,271.4,283.6,267.4,283.6,267.4z"/>
		<path class="st14" d="M287.3,271c-0.1,1.4-2.4,4.9-3.6,5.3c-1.8,0.6-4.1-0.1-4.4-2.1c-0.4-1.9,2.6-6.4,4-6.7
			C285.2,266.9,287.5,268.8,287.3,271z"/>
		<path class="st15" d="M282.9,271.7C282.9,271.7,282.9,271.8,282.9,271.7c-0.2,0.3-0.3,0.5-0.1,0.8c0,0,0,0,0,0
			C282.5,272.3,282.7,271.9,282.9,271.7z"/>
		<path class="st15" d="M283.2,271.6c0.4,0.2-0.1,1-0.4,0.8C282.4,272.2,282.9,271.5,283.2,271.6z"/>
		<path class="st15" d="M281.4,270.8C281.4,270.8,281.4,270.8,281.4,270.8c-0.2,0.3-0.3,0.5-0.6,0.5c0,0,0,0,0,0
			C281.1,271.4,281.4,271.1,281.4,270.8z"/>
		<path class="st15" d="M281.4,270.5c-0.4-0.2-0.8,0.5-0.5,0.7C281.2,271.4,281.7,270.7,281.4,270.5z"/>
		<path class="st15" d="M283.7,271.5c-0.1-0.1-0.2-0.2-0.3-0.2c-0.1-0.1-0.2-0.2-0.2-0.3c0-0.1,0-0.2,0.1-0.2c0.2-0.1,0.3,0,0.5,0.1
			c0.1,0.1,0.2,0.2,0.3,0.4C284.1,271.5,283.8,271.6,283.7,271.5z"/>
		<path class="st15" d="M281.3,269.9c0.1,0,0.2,0.1,0.3,0.1c0.1,0,0.2,0.1,0.4,0c0.1,0,0.1-0.1,0.1-0.2c0-0.2-0.2-0.3-0.3-0.3
			c-0.2-0.1-0.3-0.1-0.5,0C281.2,269.6,281.2,269.9,281.3,269.9z"/>
		<path class="st15" d="M281.9,274.2c-0.1,0-0.2,0.1-0.3,0c-0.1,0-0.2-0.1-0.2-0.2c0,0,0,0,0,0c0,0.1,0.1,0.3,0.2,0.3
			C281.7,274.4,281.8,274.3,281.9,274.2C281.9,274.2,281.9,274.2,281.9,274.2z"/>
		<path class="st15" d="M281.9,273.2c-0.3,0.1-0.5,0.1-0.7,0c-0.1,0-0.2-0.1-0.3-0.2c0,0,0,0-0.1,0c0,0,0,0,0,0c0,0,0-0.1,0-0.1v0
			c0,0,0,0,0,0c0,0,0,0,0,0l0,0c0.1-0.2,0.3-0.4,0.3-0.4c-0.1,0-0.5-0.1-0.5-0.1c0.5-0.8,1.1-1.6,1.7-2.2c0,0,0.1,0,0,0
			c-0.5,0.7-1.1,1.4-1.5,2.1c0.1,0,0.4,0.1,0.4,0.1c0,0-0.4,0.5-0.4,0.6c0,0,0,0,0,0C281.2,273.1,281.5,273.1,281.9,273.2
			C281.9,273.1,281.9,273.1,281.9,273.2z"/>
		<path class="st15" d="M281,273c0,0,0,0.3,0.2,0.5c0.1,0.1,0.2,0.1,0.3,0.2c0.2,0.1,0.3-0.1,0.4-0.3c0-0.1,0-0.3,0-0.3
			S281.4,273.2,281,273z"/>
		<path class="st18" d="M281.2,273.5c0.1,0.1,0.2,0.1,0.3,0.2c0.2,0.1,0.3-0.1,0.4-0.3C281.6,273.3,281.3,273.3,281.2,273.5z"/>
		<path class="st15" d="M285.2,274.7c-0.5-0.2,0-1.8,0.2-2.3c0.2-0.5,1.1-1.9,1.1-2c0-0.1-2.7-0.2-3.5-1.3c-0.8-1.1-0.8-2.5-0.5-3
			c0.3-0.4,2.4-0.5,3.6,0.2c1.1,0.8,1.6,3.3,1.6,3.3s0-1,0-1c0.1,0,0.5,0.8,0.3,1.4c0,0,0.3-0.7,0.4-0.7c0.1,0,0.2,1-0.2,1.3
			c0,0,0.2,1-0.2,1.7C287.6,273,285.8,274.9,285.2,274.7z"/>
		<path class="st15" d="M282.5,268.3c0.2,0.4,0.4,0.8,0.7,1.1c0.3,0.3,0.8,0.5,1.2,0.7c0.5,0.1,0.9,0.2,1.4,0.2
			c0.4,0,0.8-0.1,1.3-0.1c0.1,0,0.1,0.2,0,0.2c-0.9,0.3-2,0.3-2.9-0.1C283.3,269.9,282.7,269.2,282.5,268.3
			C282.5,268.3,282.5,268.3,282.5,268.3z"/>
		<path class="st14" d="M285,273.7c0,0,1.4-0.7,1.8-0.1s-1.1,1.9-1.9,1.8c-0.7-0.1-0.6-0.8-0.6-0.8L285,273.7z"/>
		<path class="st15" d="M286.4,273.9C286.4,273.9,286.4,273.9,286.4,273.9c-0.5,0-1,0.2-1.4,0.6c0.2-0.1,0.4-0.1,0.6,0.2
			c0,0,0,0,0,0c-0.2-0.1-0.3-0.2-0.5-0.1c-0.1,0.1-0.3,0.1-0.4,0.2c0,0-0.1,0-0.1-0.1c0,0,0,0,0,0
			C284.9,274.2,285.8,273.7,286.4,273.9z"/>
		<path class="st14" d="M268.4,289.7c1.5,0.9,5.4,1,12-0.5c0.9-0.2-1.3-6.5-2.3-6.3c-1.2,0.2-6,1.4-6.3,1.5
			C268.8,285.4,267.4,289.1,268.4,289.7z"/>
		<path class="st14" d="M276.3,283.7c0,0,0.4-0.1,2.2-1.2c1.3-0.7,4.9-1.7,8.2,0.9c1.3,1,1.1,2.3-0.4,1.5c-1.1-0.6-1.7-1.1-2.1-1.1
			c0,0,0.7,1.7,0.2,2.6c-0.2,0.4-1,1.5-1.6,2.2c0,0-0.2-0.1-0.5-0.3c0,0-0.7,1.1-2.2,0.9L276.3,283.7z"/>
		<path class="st14" d="M279.9,281.9c0.8,0.1,2.4,0.5,3.6,1.2c1.4,0.8,3.8,2.8,3.2,3.8c-0.5,0.7-1.4,0.1-1.4,0.1s0.8,1,0.3,1.6
			c-0.5,0.5-1.2,0-1.2,0s0.4,0.7-0.2,1.1c-0.7,0.5-1.4-1.1-2.6-1.2C281.2,288.5,279.9,281.9,279.9,281.9z"/>
		<path class="st15" d="M282.4,284.5c0.7,0.3,2.1,1.3,2.8,2.5c0,0,0,0.1,0,0C284.1,285.8,282.9,284.9,282.4,284.5
			C282.4,284.5,282.4,284.5,282.4,284.5z"/>
		<path class="st15" d="M281.6,285.9c0.6,0.3,2,1.4,2.7,2.7c0,0,0,0.1,0,0C283.2,287.3,282.1,286.3,281.6,285.9
			C281.6,285.9,281.6,285.9,281.6,285.9z"/>
		<path class="st16" d="M276.7,282.9l2.1,7.2c0,0-9.8,1-10.7-0.5c-0.9-1.5,1.7-4.8,3.4-5.3C273.1,283.7,276.7,282.9,276.7,282.9z"/>
		<path class="st15" d="M270.6,285.1c0.2-0.2,0.9-0.8,1.9-1.2c0.9-0.3,3.6-1,4.2-1c0,0,0,0,0,0c-0.6,0.1-3.1,0.8-4.1,1.1
			C271.6,284.4,270.8,285,270.6,285.1C270.6,285.2,270.6,285.1,270.6,285.1z"/>
		<path class="st15" d="M276.8,289.5c-0.1-0.5-0.2-0.9-0.3-1.4c-0.1-0.5-0.3-0.9-0.4-1.4c-0.1-0.5-0.7-2.3-0.9-2.8c0,0,0,0,0,0
			c0.1,0.5,0.6,2.4,0.7,2.8c0.1,0.5,0.3,0.9,0.4,1.4C276.5,288.6,276.6,289.1,276.8,289.5C276.8,289.5,276.8,289.5,276.8,289.5z"/>
		<path class="st15" d="M278.6,289.6c0.1,0.2,0.1,0.4,0.2,0.6l0,0c-3.1,0.4-6.2,0.7-9.3,0.1c3.1,0.3,6.2,0,9.3-0.1l0,0
			C278.7,289.9,278.7,289.8,278.6,289.6z"/>
		<path class="st6" d="M279.1,274.9c0-0.1-1.6,0.2-3.2,0.2c-1.9-0.1-3-0.6-3.1-0.5c-0.2,0.1-0.1,0.4-0.1,0.5s-0.7,1.8-0.3,3.1
			c0.4,1.3,2.9,1.6,4.3,1.5c1.4-0.1,4.1-1.3,2.3-4.4C279,275.2,279.2,275.1,279.1,274.9z"/>
		<path class="st19" d="M277.9,276.4c-1-0.7-3.2-1.4-4.2-0.5c-1,0.8-1.1,2.3,0.1,3.4c0.6,0.6,2.4,0.9,2.4,0.9s2.4,1.6,3.6,1.4
			c0.7-0.1,1.7-1.2,0.9-2.4C279.9,278,279.1,277.2,277.9,276.4z"/>
		<path class="st19" d="M280,281.5c0.8-0.1,2.4-3,1.6-3.4c-0.6-0.3-2.8,1.1-2.7,2.2C278.8,280.9,279.5,281.5,280,281.5z"/>
		<path class="st11" d="M279.5,279c0.3-0.3,0.6-0.5,0.9-0.7c0.3-0.2,0.7-0.3,1-0.2c0.1,0,0.2,0.1,0.3,0.2c0.1,0.2,0,0.6,0,0.8
			c-0.1,0.2-0.1,0.4-0.2,0.6c-0.1,0.3-0.3,0.7-0.5,1c-0.1,0.2-0.2,0.3-0.3,0.4c-0.1,0.2-0.2,0.2-0.1,0.1c0.1-0.1,0.2-0.3,0.3-0.4
			c0.2-0.3,0.4-0.6,0.5-0.9c0.1-0.3,0.2-0.6,0.3-0.9c0.1-0.2,0.1-0.6-0.1-0.7c-0.1-0.1-0.3,0-0.4,0c-0.3,0.1-0.6,0.2-0.9,0.4
			c-0.3,0.2-0.5,0.4-0.8,0.6c-0.3,0.2-0.5,0.5-0.8,0.8c0,0,0,0,0,0C278.9,279.6,279.2,279.3,279.5,279z"/>
		<path class="st11" d="M275,278.4c0.1,0.3,0.3,0.6,0.5,0.9c0.1,0.1,0.2,0.3,0.3,0.4c0.1,0.1,0.2,0.3,0.4,0.4c0,0,0,0,0,0
			c-0.1-0.1-0.2-0.1-0.2-0.1c-0.1-0.1-0.1-0.1-0.2-0.2c-0.1-0.1-0.2-0.3-0.3-0.4C275.2,279.1,275.1,278.8,275,278.4
			C275,278.4,275,278.4,275,278.4z"/>
		<path class="st11" d="M278.3,276.6c0.4,0.3,0.7,0.6,1.1,0.9c0.2,0.2,0.3,0.3,0.5,0.5c0.2,0.2,0.3,0.3,0.4,0.5c0,0,0,0,0,0
			c-0.2-0.1-0.3-0.3-0.5-0.5c-0.2-0.2-0.3-0.3-0.5-0.5C279,277.2,278.6,276.9,278.3,276.6C278.2,276.6,278.3,276.6,278.3,276.6z"/>
		<path class="st16" d="M272.8,274.6c2,1.5,5.8,1.3,6,1.1c0,0,0.4-1.3-0.9-4.1c-0.4-0.8-2.2-1.1-2.9-0.7
			C273.4,272.1,272.8,274.6,272.8,274.6z"/>
		<g class="st20">
			<path class="st1" d="M272.8,274.6c2,1.5,5.8,1.3,6,1.1c0,0,0.4-1.3-0.9-4.1c-0.4-0.8-2.2-1.1-2.9-0.7
				C273.4,272.1,272.8,274.6,272.8,274.6z"/>
		</g>
		<path class="st19" d="M279.3,277.4c-0.4-0.1-2.6-0.5-3.7-1.5c-1.2-1-1.5-2.1-1.5-2.8c-0.2-1.7,1-2.4,1.7-1.6c0.8,1,1.4,2,1.9,2.5
			c0.7,0.6,2,1.3,2.2,1.4C280.3,275.9,279.8,277.5,279.3,277.4z"/>
		<path class="st19" d="M279.7,275.5c0.2-0.1,0.8-0.2,1-0.3s0.4-0.5,0.6-0.3c0.2,0.2-0.3,0.7-0.4,0.8c-0.1,0.1,1.5,0.3,1.4,0.6
			c0,0.4-1.1,0.2-1.1,0.2c0,0.1,1.1,0.4,1,0.7c-0.1,0.3-1.2-0.2-1.2-0.1c0,0,0.9,0.1,0.9,0.4c0,0.3-1.2,0-1.2,0.1
			c0,0.1,0.6,0.4,0.4,0.7c-0.2,0.2-1-0.5-1.1-0.5c-0.1,0-0.8-0.3-0.9-0.5C279.1,277.2,279.6,275.6,279.7,275.5z"/>
		<path class="st11" d="M274.6,274.8c0.5,0.7,1.1,1.2,1.9,1.7c0.4,0.2,0.9,0.4,1.3,0.6c0.5,0.2,0.9,0.3,1.4,0.4c0,0,0,0,0,0
			c0.2,0.1,0.4,0.2,0.7,0.3c0.2,0.1,0.4,0.2,0.6,0.3c0.1,0.1,0.5,0.4,0.7,0.2c0.1-0.1-0.1-0.3-0.2-0.3c-0.1-0.1-0.2-0.2-0.3-0.3
			c0,0,0,0,0,0c0.2,0,0.4,0.1,0.6,0.1c0.1,0,0.2,0,0.3,0c0.1,0,0.2,0,0.2,0c0,0,0.1-0.1,0.1-0.1c0,0-0.1-0.1-0.1-0.1
			c-0.1,0-0.2-0.1-0.3-0.1c-0.2-0.1-0.4-0.1-0.6-0.2c0,0,0,0,0,0c0.2,0,0.3,0.1,0.5,0.2c0.1,0,0.2,0.1,0.3,0.1c0,0,0.1,0,0.1,0
			c0.1,0,0.1,0,0.2,0c0.1,0,0.1,0,0.2-0.1c0.1-0.1,0-0.1-0.1-0.2c-0.1,0-0.1-0.1-0.2-0.1c-0.2-0.1-0.5-0.3-0.8-0.4c0,0,0,0,0,0
			c0.2,0.1,0.3,0.2,0.5,0.2c0.1,0,0.2,0.1,0.2,0.1c0.1,0,0.1,0.1,0.2,0.1c0.1,0.1,0.1,0.2,0,0.3c-0.1,0.1-0.2,0.1-0.3,0c0,0,0,0,0,0
			c0.1,0.1,0,0.2-0.2,0.3c-0.1,0-0.2,0-0.2,0c-0.1,0-0.2,0-0.3,0c-0.2,0-0.4,0-0.5-0.1c0.1,0.1,0.2,0.2,0.3,0.3
			c0.1,0.1,0.2,0.1,0.2,0.3c0,0.1-0.1,0.2-0.1,0.2c-0.1,0-0.2,0-0.3,0c-0.3-0.1-0.5-0.3-0.8-0.5c-0.3-0.2-0.6-0.2-0.9-0.4
			c0,0,0,0,0,0c-0.4-0.1-0.8-0.2-1.1-0.3c-0.4-0.1-0.7-0.2-1.1-0.4c-0.6-0.3-1.3-0.6-1.7-1.1C274.9,275.4,274.7,275.1,274.6,274.8
			C274.5,274.8,274.6,274.8,274.6,274.8z"/>
		<path class="st16" d="M276.8,273l-2.3,1.8c0,0-0.7-1.1-0.5-2.2c0.1-1.1,0.9-2.1,1.9-0.9C276.7,272.7,276.8,273,276.8,273z"/>
		<path class="st21" d="M276.8,273l-2.3,1.8c0,0-0.7-1.1-0.5-2.2c0.1-1.1,0.9-2.1,1.9-0.9C276.7,272.7,276.8,273,276.8,273z"/>
		<path class="st11" d="M275.4,273.6c0.4-0.3,0.7-0.5,1.1-0.8c0,0,0,0,0,0C276.1,273.1,275.8,273.4,275.4,273.6
			c-0.3,0.3-0.6,0.6-1,0.8c0,0,0,0,0,0C274.7,274.1,275,273.8,275.4,273.6z"/>
		<path class="st11" d="M275.9,271.8c0.1,0.1,0.2,0.2,0.2,0.3c0,0-0.1-0.1-0.1-0.1c0,0,0,0,0,0c0,0,0.1,0.1,0.1,0.1
			c0,0,0,0.1,0.1,0.1c0.1,0.1,0.1,0.1,0.2,0.2c0.1,0.1,0.2,0.2,0.2,0.3c0.1,0.1,0.2,0.3,0.2,0.3c0,0,0,0-0.1,0c0,0,0,0,0,0
			c0,0,0,0,0,0c0,0-0.2-0.2-0.2-0.3c-0.1-0.1-0.1-0.2-0.2-0.3C276.2,272.2,276.1,272,275.9,271.8
			C275.9,271.8,275.9,271.8,275.9,271.8z"/>
		<path class="st11" d="M273.9,273.1c0-0.2,0-0.4,0-0.6c0,0,0,0,0,0c0,0.4,0,0.8,0.1,1.2c0.1,0.4,0.2,0.8,0.4,1.1c0,0,0,0,0,0
			c-0.2-0.3-0.4-0.7-0.5-1.1c0-0.2-0.1-0.3-0.1-0.5c0,0,0,0,0,0C273.9,273.2,273.9,273.2,273.9,273.1c0-0.1,0-0.1,0-0.2c0,0,0,0,0,0
			C273.9,273,273.9,273.1,273.9,273.1z"/>
		<path class="st16" d="M277.5,271.5c0.1,0.2,0,0.5-0.7,0.4c-0.4,0-1.1-0.2-1.1-0.6C275.6,271,277.3,271.2,277.5,271.5z"/>
		<path class="st19" d="M277.8,271.2c-0.2,0.1-0.3,0.2-0.4,0.4c-0.1,0.3-1.3,0.2-1.5-0.2c-0.2-0.4-0.4-0.5-0.6-0.6
			C275.1,270.7,277.8,271.2,277.8,271.2z"/>
		<path class="st19" d="M273.6,269.2c0.5,1.3,1.8,1.7,2.5,1.9c1.1,0.2,4.1,0.3,4.7-1.7c0.1-0.4,0.2-1.1,0.1-1.8
			c-0.1-1.3-0.5-2.8-1-3.3c-1-1.1-3.3-1.6-5.1-0.6C273.4,264.5,273.1,267.9,273.6,269.2z"/>
		<path class="st11" d="M277,266.8c0.1,0,0.2-0.1,0.2-0.1c0.1,0,0.2-0.1,0.2-0.1c0,0,0-0.1,0-0.2c-0.1-0.1-0.2-0.1-0.3,0
			c-0.1,0-0.2,0.1-0.3,0.2C276.8,266.7,276.9,266.8,277,266.8z"/>
		<path class="st11" d="M279.8,266.6c-0.1,0-0.2,0-0.3-0.1c-0.1,0-0.2,0-0.2-0.1c0,0,0-0.1,0-0.2c0.1-0.1,0.2-0.1,0.3-0.1
			c0.1,0,0.2,0.1,0.3,0.2C280,266.5,279.9,266.6,279.8,266.6z"/>
		<path class="st11" d="M278,268.8c0,0,0,0,0,0.1c0,0.1,0,0.4,0.2,0.5c0.1,0,0.2,0,0.3,0c0.2-0.1,0.4-0.3,0.4-0.3
			C278.3,269.1,278,268.8,278,268.8z"/>
		<path class="st22" d="M277.9,268.9c0,0.1,0,0.4,0.2,0.5c0.1,0,0.2,0,0.3,0c0-0.1-0.1-0.2-0.2-0.3C278.1,269,278,268.9,277.9,268.9
			z"/>
		<path class="st11" d="M279,266.9c0.1,0.5,0,0.4,0.2,0.9c0.1,0,0.7,0,0.6,0c-0.1,0.2-0.6,0.5-0.6,0.5c0.1,0.1,0.3,0.3,0.3,0.3
			c-0.7,0.7-1.3,0.4-1.6,0.1c0,0,0,0,0,0c0.2,0.2,0.9,0.4,1.4-0.1c-0.1-0.1-0.2-0.2-0.2-0.3c0,0,0.3-0.3,0.5-0.4c-0.2,0-0.4,0-0.5,0
			C279.1,267.9,279,267.5,279,266.9C279,266.9,279,266.9,279,266.9z"/>
		<path class="st11" d="M279.7,267.4c0-0.1,0-0.1-0.1-0.2c-0.1,0-0.1-0.1-0.2-0.1c-0.1,0-0.1,0.1-0.2,0.1c0,0.1,0,0.1,0,0.2
			c0,0,0,0.1,0,0.1c0,0.1,0,0.2,0.1,0.2c0-0.1,0-0.1,0-0.2c0-0.1,0-0.1,0-0.2c0-0.1,0.1-0.2,0.2-0.2
			C279.5,267.3,279.6,267.3,279.7,267.4c0,0.1,0,0.2,0,0.4C279.8,267.6,279.8,267.5,279.7,267.4z"/>
		<path class="st11" d="M279.6,267.2c0.1,0,0.1,0.1,0.2,0.1c0.1,0,0.2-0.1,0.2-0.2c0,0,0,0,0,0c0,0.1,0,0.3-0.2,0.3
			C279.7,267.5,279.6,267.4,279.6,267.2C279.5,267.2,279.6,267.2,279.6,267.2z"/>
		<path class="st11" d="M277.1,267.6c0-0.1,0-0.1,0.1-0.2c0-0.1,0.1-0.1,0.2-0.1c0.1,0,0.2,0,0.2,0.1c0,0.1,0.1,0.1,0.1,0.2
			c0,0,0,0.1,0,0.1c0,0.1,0,0.2,0,0.2c0-0.1,0-0.1,0-0.2c0-0.1,0-0.1,0-0.2c0-0.1-0.1-0.2-0.2-0.2
			C277.3,267.4,277.3,267.5,277.1,267.6c0.1,0.1,0,0.2,0,0.4C277.1,267.8,277.1,267.7,277.1,267.6z"/>
		<path class="st11" d="M277.3,267.4c-0.1,0-0.1,0.1-0.2,0.1c-0.1,0-0.2-0.1-0.2-0.1c0,0,0,0,0,0c0,0.1,0.1,0.3,0.2,0.3
			C277.2,267.7,277.3,267.5,277.3,267.4C277.3,267.4,277.3,267.3,277.3,267.4z"/>
		<path class="st11" d="M275.5,265.1c0.3,0.2,0.7,0.3,1.1,0.4c0.4,0.1,0.8,0.1,1.2,0c0.6-0.1,1.3-0.4,1.9-0.1c0,0,0,0,0,0
			c-0.8-0.3-1.6,0.3-2.4,0.3C276.7,265.7,275.9,265.5,275.5,265.1C275.4,265.1,275.5,265.1,275.5,265.1z"/>
		<path class="st11" d="M274.3,268.6c0.1-0.3,0.3-0.5,0.5-0.7c0.3-0.2,0.5-0.4,0.7-0.7c0.4-0.7,0.3-1.5,0.1-2.1c0,0,0,0,0,0
			c0.3,0.6,0.4,1.3,0.2,1.9c-0.1,0.3-0.3,0.5-0.6,0.7C274.9,268,274.6,268.2,274.3,268.6C274.4,268.6,274.3,268.6,274.3,268.6z"/>
		<path class="st11" d="M273.7,269.7c0.3-0.1,0.8-0.5,0.9-1c0-0.5,0.3-0.8,0.3-0.9c0-0.1,1.1-0.6,0.8-2.5c0,0,1,0.3,2.1-0.1
			c1.3-0.4,2.3,0,2.8,0.5c0.3,0.2,0-1.5-1.6-2.3c-0.7-0.3-1.2-0.4-1.6-0.5c-0.2-0.1-0.4-0.1-0.5-0.2c-0.4-0.3-0.5-0.9-0.2-1.3
			c0.6-0.8,1.8-0.7,2.4,0c0,0,0,0,0,0c-0.1-0.2-0.3-0.4-0.5-0.5c0,0,0,0,0,0c-0.2-0.1-0.4-0.2-0.7-0.3c0.3,0.1,0.7,0.2,1,0.4
			c0,0,0,0,0,0c-0.5-0.4-1.2-0.6-1.8-0.6c0.5-0.1,1,0,1.4,0.2c0,0,0,0,0,0c-0.5-0.3-1.3-0.4-1.9-0.1c-0.2,0.1-0.3,0.2-0.4,0.3
			c-0.1,0.1-0.2,0.3-0.3,0.5c-0.5-0.8-1.6-1.2-2.6-0.7c0,0,0,0,0,0c0.7-0.3,1.4-0.2,2,0.2c0.1,0.1,0.3,0.2,0.4,0.4
			c0,0-0.1-0.1-0.2-0.1c-0.7-0.5-1.7-0.3-2.3,0.2c0,0,0,0,0,0c0.1-0.1,0.3-0.2,0.5-0.3c-0.1,0.1-0.2,0.1-0.4,0.3c0,0,0,0,0,0
			c0.2-0.1,0.3-0.2,0.5-0.2c-0.3,0.1-0.5,0.3-0.7,0.5c0,0,0,0,0,0c0.4-0.5,1.1-0.6,1.7-0.3c0.1,0,0.1,0.1,0.2,0.1
			c0.1,0.1,0.2,0.2,0.3,0.3c0.1,0.1,0.1,0.2,0.1,0.4c0,0,0,0,0,0c0,0.1,0,0.1,0,0.2c0,0,0,0,0,0c0,0,0,0.1,0,0.1c0,0,0,0,0,0.1
			c0,0,0,0,0,0c-0.1,0.2-0.3,0.6-0.8,0.9c-0.6,0.5-2.5,1.3-2.2,4C272.8,268.7,273.7,269.7,273.7,269.7z"/>
		<path class="st11" d="M276.7,261.5c0.4-0.6,1.4-0.6,2-0.2c0,0,0,0,0,0c-0.5-0.3-1.4-0.3-1.8,0.2c-0.4,0.6-0.2,1.3,0.4,1.6
			c0,0,0,0.1,0,0.1C276.6,262.8,276.3,262.1,276.7,261.5z"/>
		<path class="st11" d="M274.1,261.6C274.1,261.6,274.1,261.6,274.1,261.6c0.5-0.2,1.4-0.2,1.6,0.4c0.3,0.6-0.1,1.3-0.7,1.6
			c0,0-0.1,0,0-0.1c0.4-0.3,0.8-0.8,0.7-1.4C275.5,261.5,274.6,261.5,274.1,261.6z"/>
		<path class="st11" d="M272.4,266.3c0.2-1.1,1-1.8,1.9-2.4c0,0,0,0,0,0c-0.8,0.6-1.6,1.3-1.8,2.3c-0.1,0.6-0.1,1.2,0.1,1.7
			c0.2,0.5,0.6,0.9,1,1.3c0,0,0,0.1-0.1,0.1c-0.4-0.4-0.8-0.8-1.1-1.3C272.3,267.5,272.3,266.9,272.4,266.3z"/>
		<path class="st11" d="M277,262.8c0.4,0.2,0.8,0.2,1.2,0.3c0.4,0.1,0.9,0.2,1.3,0.4c0.6,0.3,1.1,1.2,1,1.9c0,0-0.1,0-0.1,0
			c0-0.4-0.1-0.9-0.4-1.2c-0.3-0.4-0.6-0.6-1.1-0.8c-0.4-0.1-0.7-0.2-1.1-0.2C277.6,263.1,277.3,263,277,262.8
			C277,262.8,277,262.8,277,262.8z"/>
		<path class="st11" d="M273.2,270.3c0.7-0.5,0.1-1.4-0.2-1.9c0,0,0,0,0,0C273.3,268.9,274.1,269.9,273.2,270.3
			C273.2,270.4,273.2,270.4,273.2,270.3z"/>
		<path class="st11" d="M273.7,270.5c0.3-0.5,0.1-1.1-0.2-1.5c0,0,0-0.1,0.1,0C273.9,269.4,274,270,273.7,270.5
			C273.7,270.5,273.7,270.5,273.7,270.5z"/>
		<path class="st11" d="M273.2,270.1c0.5-0.4-0.1-1.2-0.3-1.6c0,0,0-0.1,0.1,0C273.3,268.8,273.9,269.8,273.2,270.1
			C273.2,270.1,273.2,270.1,273.2,270.1z"/>
		<path class="st19" d="M275,268.1c0,0-0.9-0.9-1.5-0.8c-0.7,0.1-0.5,1.4,0.1,1.7c0.7,0.4,1.4,0,1.4,0L275,268.1z"/>
		<path class="st11" d="M273.9,268c-0.1-0.1-0.2-0.1-0.4-0.1c0,0,0,0,0,0c0.5,0.1,1.1,0.4,1.2,1c0,0,0,0,0,0c0,0-0.1-0.1-0.1-0.1
			c-0.1-0.1-0.2-0.2-0.4-0.3c-0.2-0.1-0.3-0.1-0.5,0c0,0,0,0,0,0c0.2-0.1,0.5-0.1,0.7,0.1c-0.1-0.1-0.2-0.2-0.3-0.3
			C274.1,268.1,274,268,273.9,268z"/>
		<path class="st11" d="M275,269.1C275,269.1,275,269.1,275,269.1C275,269.1,275,269.1,275,269.1z"/>
		<path class="st16" d="M276.3,262.4c0,0,0.6-1.5,0.8-1c0.2,0.5,0.1,0.9,0.1,0.9s0.4,0.5,0.2,0.7c-0.2,0.2-1-0.1-1-0.2
			C276.4,262.6,276.3,262.4,276.3,262.4z"/>
		<path class="st23" d="M276.3,262.4c0,0,0,0.2,0.1,0.3c0,0.1,0.2,0.2,0.4,0.2c0-0.1,0-0.3,0-0.4c0-0.2-0.3-0.4-0.4-0.5
			C276.4,262.2,276.3,262.4,276.3,262.4z"/>
		<path class="st16" d="M276.1,262.4c0,0-1.5-1.3-1.6-0.7c-0.1,0.6,0.3,0.9,0.3,0.9s-0.3,0.7,0,0.8c0.3,0.1,1.3-0.5,1.3-0.6
			C276.1,262.6,276.1,262.4,276.1,262.4z"/>
		<path class="st23" d="M275.7,262.7c0,0.1,0.1,0.2,0.2,0.3c0.2-0.1,0.3-0.2,0.3-0.3c0-0.2-0.1-0.4-0.1-0.4s-0.1-0.1-0.2-0.2
			C275.8,262.4,275.7,262.6,275.7,262.7z"/>
		<path class="st16" d="M275.9,262.7c0,0.2,0.3,0.4,0.5,0.4c0.2,0,0.4-0.3,0.4-0.5c0-0.2-0.3-0.4-0.5-0.4
			C276,262.2,275.8,262.5,275.9,262.7z"/>
		<path class="st24" d="M260,355.7c-0.4-0.1-11.1-5.2-11.4-5.6c-0.1-0.2,0.6-1.8,1.4-3.7c0.2-0.4,0.4-0.8,0.6-1.3
			c1.3-2.8,2.7-5.7,2.7-5.7l7.1,3.4l-2.9,5.6l-0.6,1.2c0,0,3.2,3.8,3.5,4.3C260.6,354.5,260.4,355.7,260,355.7z"/>
		<path class="st1" d="M260,355.7c-0.4-0.1-11.1-5.2-11.4-5.6c-0.1-0.2,0.9-2.5,2-4.9l6.9,3.3l-0.6,1.2c0,0,3.2,3.8,3.4,4.3
			C260.6,354.5,260.4,355.7,260,355.7z"/>
		<path class="st25" d="M260,355.7c-0.4-0.1-11.1-5.2-11.4-5.6c-0.1-0.2,0.6-1.8,1.4-3.7l6.9,3.3c0,0,3.2,3.8,3.5,4.3
			C260.6,354.5,260.4,355.7,260,355.7z"/>
		<path class="st11" d="M260,355.2c-1.8-0.9-9-4.4-10.8-5.1c0,0,0,0,0,0C251,351,258.2,354.4,260,355.2
			C260,355.2,260.1,355.2,260,355.2z"/>
		<path class="st11" d="M259.8,353.3c-0.4-0.2-0.9-0.2-1.3-0.1c-0.3,0.1-0.7,0.4-0.9,0.8c0,0,0,0,0,0
			C258.2,353.3,259.1,353,259.8,353.3C259.8,353.3,259.9,353.3,259.8,353.3z"/>
		<path class="st11" d="M257.5,350.2c-0.7-0.4-1.7-0.5-2.4-0.1c0,0,0,0.1,0,0.1C255.9,350.1,256.7,350.1,257.5,350.2
			C257.5,350.3,257.5,350.2,257.5,350.2z"/>
		<path class="st11" d="M257.9,350.7c-0.7-0.4-1.7-0.5-2.4-0.1c0,0,0,0.1,0,0.1C256.4,350.6,257.1,350.6,257.9,350.7
			C258,350.8,258,350.7,257.9,350.7z"/>
		<path class="st11" d="M258.4,351.1c-0.7-0.4-1.7-0.5-2.4-0.1c0,0,0,0.1,0,0.1C256.8,351,257.6,351.1,258.4,351.1
			C258.4,351.2,258.4,351.2,258.4,351.1z"/>
		<path class="st11" d="M258.8,351.6c-0.7-0.4-1.7-0.5-2.4-0.1c0,0,0,0.1,0,0.1C257.3,351.5,258,351.6,258.8,351.6
			C258.9,351.7,258.9,351.6,258.8,351.6z"/>
		<path class="st11" d="M250.5,348.6c-0.8-0.4-1.4,0.9-0.6,1.2C250.7,350.2,251.3,349,250.5,348.6z"/>
		<path class="st11" d="M259.2,348.7c-0.2-0.5-0.8-0.4-1.2-0.2c-0.6,0.3-1.2,0.9-1.5,1.5c0,0,0,0,0,0c0,0.1,0,0.1,0.1,0.1
			c0.7-0.1,1.4-0.1,2-0.4C259,349.5,259.4,349.1,259.2,348.7z M257.6,349.7c-0.3,0.1-0.7,0.1-1,0.2c0.3-0.3,0.6-0.6,0.9-0.9
			c0.2-0.1,0.3-0.3,0.5-0.4c0.3-0.2,1.3-0.4,1,0.4C258.8,349.5,258,349.7,257.6,349.7z"/>
		<path class="st11" d="M254.6,349.4c0.6,0.4,1.3,0.5,2,0.7c0.1,0,0.1,0,0.1-0.1c0,0,0,0,0,0c-0.3-0.6-0.7-1.3-1.3-1.7
			c-0.3-0.3-0.9-0.4-1.2,0C253.9,348.7,254.2,349.1,254.6,349.4z M254.3,348.8c-0.2-0.8,0.8-0.4,1-0.3c0.2,0.1,0.3,0.3,0.4,0.4
			c0.3,0.3,0.5,0.6,0.8,1c-0.3-0.1-0.6-0.2-1-0.3C255.2,349.5,254.4,349.2,254.3,348.8z"/>
		<path class="st17" d="M248.6,350c0.2,0.4,6.7,3.5,9.8,5l-8.7-7.9C249,348.6,248.5,349.9,248.6,350z"/>
		<path class="st25" d="M250.6,344.9l7.2,3.1c0,0,5.2-8.9,4.8-12.5c-0.5-4-4.8-16.1-4.8-16.1h-8.1c0,0,4.6,11.8,4.9,15.9
			C254.7,337,250.6,344.9,250.6,344.9z"/>
		<path class="st26" d="M250.6,344.9l7.2,3.1c0,0,5.2-8.9,4.8-12.5c-0.5-4-4.8-16.1-4.8-16.1h-8.1c0,0,4.6,11.8,4.9,15.9
			C254.7,337,250.6,344.9,250.6,344.9z"/>
		<path class="st11" d="M251.7,343.8c1.1,0.4,2.2,0.8,3.3,1.3c0.5,0.2,1.1,0.5,1.6,0.7c0.5,0.2,1.1,0.5,1.6,0.8c0,0,0,0,0,0
			c-0.6-0.2-1.1-0.4-1.7-0.6c-0.5-0.2-1.1-0.4-1.6-0.7C253.8,344.9,252.7,344.4,251.7,343.8C251.6,343.9,251.6,343.8,251.7,343.8z"
			/>
		<path class="st11" d="M255,337.7c0.1-0.4,0.3-0.8,0.4-1.2c0.1-0.4,0.3-0.8,0.3-1.2c0-0.4-0.1-0.9-0.2-1.3
			c-0.1-0.4-2.4-6.8-2.9-8.4c-0.6-1.8-1.2-3.6-1.8-5.4c0-0.1,0.1-0.1,0.1,0c1.2,3.2,4.5,12.9,4.6,13.3c0.1,0.4,0.2,0.8,0.3,1.2
			c0.1,0.8-0.2,1.6-0.5,2.3c-0.3,0.8-1.8,4.7-2.6,6.4c0,0,0,0,0,0C253.3,342,254.7,338.5,255,337.7z"/>
		<path class="st24" d="M258.6,356.1c-0.4,0.1-12.2,0-12.6-0.3c-0.2-0.1-0.3-1.8-0.3-3.9c0-0.4,0-0.9,0-1.4c0-3,0-6.3,0-6.3l7.9,0.1
			l-0.2,6.3l0,1.4c0,0,4.5,2,4.9,2.4C258.7,354.8,259.1,356,258.6,356.1z"/>
		<path class="st1" d="M258.6,356.1c-0.4,0.1-12.2,0-12.6-0.3c-0.2-0.1-0.3-2.6-0.3-5.3l7.7,0.1l0,1.4c0,0,4.5,2,4.9,2.4
			C258.7,354.8,259.1,356,258.6,356.1z"/>
		<path class="st25" d="M258.6,356.1c-0.4,0.1-12.2,0-12.6-0.3c-0.2-0.1-0.3-1.8-0.3-3.9l7.6,0.1c0,0,4.5,2,4.9,2.4
			C258.7,354.8,259.1,356,258.6,356.1z"/>
		<path class="st11" d="M257.5,354c-0.5,0-0.9,0.2-1.2,0.5c-0.2,0.3-0.5,0.6-0.5,1c0,0,0,0,0,0C256,354.7,256.7,354.1,257.5,354
			C257.5,354,257.5,354,257.5,354z"/>
		<path class="st11" d="M254.1,352.2c-0.8,0-1.7,0.3-2.2,0.9c0,0,0,0.1,0,0C252.6,352.8,253.3,352.5,254.1,352.2
			C254.1,352.3,254.1,352.2,254.1,352.2z"/>
		<path class="st11" d="M254.7,352.4c-0.8,0-1.7,0.3-2.2,0.9c0,0,0,0.1,0,0C253.2,353,253.9,352.7,254.7,352.4
			C254.7,352.5,254.7,352.4,254.7,352.4z"/>
		<path class="st11" d="M255.3,352.7c-0.8,0-1.7,0.3-2.2,0.9c0,0,0,0.1,0,0C253.8,353.2,254.5,353,255.3,352.7
			C255.4,352.8,255.3,352.7,255.3,352.7z"/>
		<path class="st11" d="M255.9,352.9c-0.8,0-1.7,0.3-2.2,0.9c0,0,0,0.1,0,0C254.4,353.5,255.1,353.2,255.9,352.9
			C256,353,255.9,352.9,255.9,352.9z"/>
		<path class="st11" d="M247.1,353.7c-0.9,0-0.9,1.4,0,1.4C248,355.1,248,353.7,247.1,353.7z"/>
		<path class="st11" d="M254.9,350.1c-0.4-0.3-0.9,0-1.2,0.3c-0.4,0.6-0.7,1.3-0.7,2c0,0,0,0,0,0c0,0.1,0.1,0.1,0.1,0.1
			c0.6-0.4,1.2-0.7,1.7-1.3C255.1,350.9,255.3,350.4,254.9,350.1z M254,351.8c-0.3,0.2-0.6,0.4-0.8,0.6c0.1-0.4,0.3-0.8,0.5-1.2
			c0.1-0.2,0.2-0.4,0.3-0.5c0.2-0.3,1-0.9,1-0.1C254.9,351.1,254.3,351.5,254,351.8z"/>
		<path class="st11" d="M251.1,352.7c0.7,0.1,1.4-0.1,2.1-0.2c0.1,0,0.1-0.1,0.1-0.1c0,0,0,0,0,0c-0.5-0.5-1.2-0.9-1.9-1
			c-0.4-0.1-1,0-1.1,0.5C250.2,352.4,250.7,352.6,251.1,352.7z M250.6,352.2c-0.5-0.7,0.5-0.7,0.8-0.6c0.2,0,0.4,0.1,0.6,0.2
			c0.4,0.2,0.8,0.4,1.1,0.6c-0.3,0-0.7,0.1-1,0.1C251.7,352.5,250.9,352.6,250.6,352.2z"/>
		<path class="st25" d="M245.4,350.2h8.2c0,0,0.2-8.5,0.5-11.6c0.3-3.3,0.3-13.5,0.3-13.5l0.9-0.3c1.2-0.7,2.3-4.4,2.5-5.4h-10.7
			c0,0-1.6,4.4-0.7,7.2c0,0,0,9.6-0.2,11.4C245.8,341.2,245.4,350.2,245.4,350.2z"/>
		<path class="st26" d="M245.4,350.2h8.2c0,0,0.2-8.5,0.5-11.6c0.3-3.3,0.3-13.5,0.3-13.5l0.9-0.3c1.2-0.7,2.3-4.4,2.5-5.4h-10.7
			c0,0-1.6,4.4-0.7,7.2c0,0,0,9.6-0.2,11.4C245.8,341.2,245.4,350.2,245.4,350.2z"/>
		<path class="st11" d="M255.6,324.7c-0.9,0.2-1.7,0.6-2.5,0.9c0,0,0,0.1,0,0C254,325.4,254.8,325.1,255.6,324.7
			C255.7,324.8,255.6,324.7,255.6,324.7z"/>
		<path class="st11" d="M255.8,320.3C255.8,320.3,255.8,320.3,255.8,320.3c0,0.8-0.1,1.4-0.2,2.1c0,0.3-0.4,2.2-1.1,2
			c-0.1,0-0.2-0.1-0.2-0.3c0-0.2,0.1-0.4,0.1-0.6c0.1-0.4,0.2-0.8,0.2-1.2c0.1-0.7,0.1-1.4,0-2.2c0,0-0.1,0,0,0c0,1,0,2-0.2,3
			c-0.1,0.5-0.4,1.2,0.2,1.3c0.7,0.1,1.1-1.1,1.2-1.5C255.9,322.2,255.9,321.2,255.8,320.3z"/>
		<path class="st11" d="M254.5,324.5c-0.1,0.1-0.1,0.3-0.2,0.4c0,0.1-0.1,0.2-0.1,0.3c0,0,0,0,0.1,0c0.1-0.1,0.1-0.2,0.2-0.3
			c0.1-0.1,0.1-0.2,0.2-0.4C254.7,324.5,254.6,324.4,254.5,324.5z"/>
		<path class="st11" d="M245.9,348.8c1.2-0.1,2.3-0.1,3.5-0.1c0.6,0,1.2,0,1.7,0c0.6,0,1.2,0,1.8,0.1c0,0,0,0,0,0
			c-0.6,0-1.2,0.1-1.8,0.1c-0.6,0-1.2,0-1.7,0C248.3,349,247.1,349,245.9,348.8C245.9,348.9,245.9,348.8,245.9,348.8z"/>
		<path class="st11" d="M254.4,325.1C254.4,325.1,254.4,325.1,254.4,325.1c0.1,2.7-0.5,18.9-0.7,20.5c0,0,0,0,0,0
			C253.7,344.1,254.3,325.9,254.4,325.1z"/>
		<path class="st11" d="M248,323.2c0.7-0.1,1.5-0.2,2-0.8c0.2-0.3,0.4-0.6,0.5-1c0.1-0.4,0.2-0.8,0.3-1.2c0,0,0,0,0,0
			c0,0.4,0,0.9-0.2,1.3c-0.1,0.4-0.3,0.7-0.5,1C249.6,323.2,248.8,323.3,248,323.2C248,323.3,248,323.2,248,323.2z"/>
		<path class="st11" d="M247.3,329c0.1-1,0.1-1.9-0.1-2.9c-0.1-0.5-0.2-1-0.3-1.5c0-0.5,0-1.1,0.1-1.6c0.1-1,0.3-2.1,0.6-3
			c0,0,0.1,0,0.1,0c-0.3,0.9-0.5,1.9-0.6,2.8c-0.1,1-0.2,1.9,0.1,2.9c0.1,0.4,0.2,0.9,0.3,1.3c0,0.5,0,0.9,0,1.4
			c0,1-0.6,17.7-0.8,19.9c0,0,0,0,0,0C246.7,346.3,247.3,329.9,247.3,329z"/>
		<path class="st24" d="M255.1,308.4c0.5,1.7,2.5,7.7,4.5,9c1.3,0.9,7,0.5,8.4,0c0.6-0.2-0.3-4.6-0.9-4.7c-0.7-0.1-5,0.7-5.4,0.5
			c-0.4-0.2-3.1-3.6-4.8-5.3C255.8,306.9,254.8,307.5,255.1,308.4z"/>
		<path class="st24" d="M266.4,317.8c1,0,4.6-0.7,5.3-1.1c0.7-0.3,2.5-1.3,2.3-1.9c-0.2-0.5-0.8-0.3-0.8-0.3s0.8-0.6,0.5-1.1
			c-0.2-0.4-1.1-0.1-1.1-0.1s0.8-0.7,0.5-1.1c-0.3-0.4-1.1,0.2-1.1,0.2s0.6-0.7,0.2-1c-0.5-0.4-1.6,0.8-2.3,1
			c-0.2,0.1-4.6,0.3-4.6,0.3L266.4,317.8z"/>
		<path class="st11" d="M272,312.5c-0.9,0.8-1.3,1.1-2.4,1.3c0,0,0,0,0,0C270.7,313.6,271.2,313.3,272,312.5
			C272.1,312.4,272.1,312.4,272,312.5z"/>
		<path class="st11" d="M272.7,313.5c-0.9,0.8-1.5,1-2.6,1.4c0,0,0,0,0,0C271.2,314.6,271.9,314.4,272.7,313.5
			C272.7,313.4,272.7,313.4,272.7,313.5z"/>
		<path class="st11" d="M273.2,314.6c-0.9,0.7-1.5,1-2.7,1.2c0,0,0,0,0,0C271.7,315.8,272.5,315.4,273.2,314.6
			C273.3,314.6,273.3,314.6,273.2,314.6z"/>
		<path class="st24" d="M265.3,312.9c0,0,1.3-0.5,1.9-0.8s2.1-1.3,2.6-1.1c0.6,0.3-0.5,1.6-1.5,2.1c0,0,0.3,1.9-0.7,2.4
			c-0.2,0.1-1.5,0.3-1.7,0.1L265.3,312.9z"/>
		<path class="st11" d="M268.2,313.2c0.1,0.7,0.1,1.7-0.5,2.2c0,0,0,0,0,0c0.7-0.5,0.8-1.6,0.6-2.2
			C268.3,313.1,268.2,313,268.2,313.2z"/>
		<path class="st27" d="M265.3,312.9l1.1,4.9c0,0-0.3,0.8-1.2,0.8c-0.9,0-4.7-0.2-5.9-1.1c-1.1-1-3.5-5.7-4.2-8.5
			c-0.7-2.8,1.5-1.4,1.8-1c0.4,0.4,4.6,5.1,4.8,5.2c0.2,0.1,1.8-0.3,2.5-0.4C265,312.7,265.3,312.9,265.3,312.9z"/>
		<path class="st17" d="M261.3,318.2c-0.8-0.2-1.5-0.4-1.9-0.8c-1.1-1-3.5-5.7-4.2-8.5c0-0.2-0.1-0.3-0.1-0.5L261.3,318.2z"/>
		<path class="st11" d="M265.1,318.1c-0.1-0.4-0.2-0.8-0.3-1.2c-0.1-0.4-0.2-0.8-0.2-1.2c-0.1-0.8-0.3-1.6-0.4-2.4c0,0,0,0,0,0
			c0.2,0.8,0.4,1.6,0.5,2.5c0.1,0.4,0.1,0.8,0.2,1.2C265,317.3,265.1,317.7,265.1,318.1C265.1,318.1,265.1,318.1,265.1,318.1z"/>
		<path class="st27" d="M245.2,326.7c0,0,5.8-0.1,10-0.3l0.5-2.1l1.1,2c1.8-0.1,3.4-0.1,3.4-0.1c0,0-1.2-6.2-1.2-6.7
			c-0.9-4.7-2.2-10.1-2.8-11.5c-0.4-0.9-1.9-1.5-3.3-0.5C249.1,310.4,245.1,324.1,245.2,326.7z"/>
		<path class="st11" d="M255.8,324.3c-0.1-1.3-0.1-2.6-0.1-3.8c0-1.3-0.1-2.6-0.1-3.8c0-1.3,0-2.6,0-3.8l0-1.9c0-0.6,0-1.3,0-1.9
			c0,0.6,0.1,1.3,0.1,1.9l0.1,1.9c0,1.3,0.1,2.6,0.1,3.8c0,1.3,0,2.6,0,3.8C255.9,321.8,255.8,323,255.8,324.3z"/>
		<path class="st11" d="M255.3,310.8c0,0.1-0.1,0.2-0.2,0.2c-0.1,0-0.2-0.1-0.2-0.2c0-0.1,0.1-0.2,0.2-0.2
			C255.2,310.6,255.3,310.7,255.3,310.8z"/>
		<path class="st11" d="M255.3,313.1c0,0.1-0.1,0.2-0.2,0.2c-0.1,0-0.2-0.1-0.2-0.2c0-0.1,0.1-0.2,0.2-0.2
			C255.2,312.9,255.3,313,255.3,313.1z"/>
		<path class="st11" d="M255.3,315.4c0,0.1-0.1,0.2-0.2,0.2c-0.1,0-0.2-0.1-0.2-0.2c0-0.1,0.1-0.2,0.2-0.2
			C255.2,315.2,255.3,315.3,255.3,315.4z"/>
		<path class="st11" d="M255.3,317.7c0,0.1-0.1,0.2-0.2,0.2c-0.1,0-0.2-0.1-0.2-0.2s0.1-0.2,0.2-0.2
			C255.2,317.5,255.3,317.6,255.3,317.7z"/>
		<path class="st11" d="M255.3,320c0,0.1-0.1,0.2-0.2,0.2c-0.1,0-0.2-0.1-0.2-0.2c0-0.1,0.1-0.2,0.2-0.2
			C255.2,319.8,255.3,319.9,255.3,320z"/>
		<path class="st11" d="M255.3,322.3c0,0.1-0.1,0.2-0.2,0.2c-0.1,0-0.2-0.1-0.2-0.2c0-0.1,0.1-0.2,0.2-0.2
			C255.2,322.1,255.3,322.2,255.3,322.3z"/>
		<path class="st17" d="M252.1,320.8l-3.4,1.8l0.3,0.5l3.4-1.8L252.1,320.8z"/>
		<path class="st17" d="M259,322.1l-1.5-0.8l0.3-0.5l1.1,0.6C258.9,321.6,259,321.8,259,322.1z"/>
		<path class="st24" d="M254.3,308.8c-1.5,1-6.7,4.4-9.1,4.1c-1.7-0.2-5.9-4.3-6.7-5.6c-0.3-0.5,3.4-3.5,3.9-3.1
			c0.6,0.4,3.5,3.9,3.9,4c0.5,0.1,4.4-0.8,6.9-1C254.8,307.1,255.2,308.2,254.3,308.8z"/>
		<path class="st24" d="M239.6,308.7c-0.8-0.7-3.1-3.6-3.4-4.3c-0.3-0.7-1.1-2.7-0.6-3c0.5-0.3,0.8,0.3,0.8,0.3s-0.2-1,0.3-1.2
			c0.5-0.1,0.9,0.7,0.9,0.7s-0.2-1.1,0.4-1.2c0.5-0.1,0.8,0.9,0.8,0.9s-0.1-0.9,0.5-0.9c0.6,0,0.7,1.6,1.2,2.4
			c0.1,0.2,3.4,3.3,3.4,3.3L239.6,308.7z"/>
		<path class="st11" d="M238.8,300.7c0.2,1.2,0.3,1.7,1,2.6c0,0,0,0,0,0C239,302.5,238.8,302,238.8,300.7
			C238.7,300.7,238.8,300.7,238.8,300.7z"/>
		<path class="st11" d="M237.6,301.1c0.2,1.2,0.5,1.8,1.1,2.8c0,0,0,0,0,0C237.9,303,237.6,302.3,237.6,301.1
			C237.5,301,237.6,301,237.6,301.1z"/>
		<path class="st11" d="M236.4,301.7c0.3,1.2,0.5,1.8,1.3,2.7c0,0,0,0.1,0,0C236.8,303.5,236.4,302.8,236.4,301.7
			C236.3,301.6,236.4,301.6,236.4,301.7z"/>
		<path class="st24" d="M243.7,305.5c0,0-0.6-1.3-0.9-1.9s-0.8-2.5-1.4-2.6c-0.6-0.2-0.7,1.6-0.2,2.7c0,0-1.5,1.3-1.1,2.4
			c0.1,0.2,1,1.2,1.3,1.2L243.7,305.5z"/>
		<path class="st11" d="M241.2,303.9c-0.6,0.5-1.2,1.3-1.1,2.1c0,0,0,0,0,0c-0.2-0.8,0.5-1.8,1-2.2
			C241.2,303.7,241.4,303.7,241.2,303.9z"/>
		<path class="st27" d="M243.7,305.5l-4.1,3.1c0,0-0.3,0.8,0.4,1.4c0.7,0.6,3.9,3,5.4,3c1.5,0,6.1-2.2,8.6-3.9
			c2.4-1.7-0.2-2.1-0.8-2c-0.5,0.1-6.6,0.9-6.8,0.9c-0.2-0.1-1.2-1.5-1.7-2C244.1,305.5,243.7,305.5,243.7,305.5z"/>
		<path class="st11" d="M240.5,309.8c0.4-0.2,0.7-0.5,1-0.8c0.3-0.3,0.7-0.5,1-0.8c0.7-0.5,1.3-1.1,2-1.7c0,0,0,0,0,0
			c-0.7,0.5-1.4,1-2.1,1.6c-0.3,0.3-0.7,0.6-1,0.8C241,309.2,240.7,309.5,240.5,309.8C240.4,309.8,240.4,309.8,240.5,309.8z"/>
		<path class="st11" d="M250,311.4c0.8-0.6,1.8-1.1,2.7-1.5C251.9,310.6,251,311.1,250,311.4z"/>
		<path class="st11" d="M252.7,310.3c-0.3,0.2-0.6,0.2-0.9,0.2C252,310.4,252.3,310.4,252.7,310.3z"/>
		<path class="st24" d="M253.4,307.4c0.1,0.2,1.2,1.6,2.2,1.5c0.3,0,0.3-1.9,0.3-1.9l0-0.1l0.3-1.9l-2.6-1.5
			C253.7,303.6,253.4,307.3,253.4,307.4z"/>
		<path class="st11" d="M256.3,305.1l-0.3,1.9l0,0.1c0,0,0,0.3,0,0.7c-1.4-0.2-2.1-1.2-2.4-1.9c0.1-1.1,0.2-2.4,0.2-2.4L256.3,305.1
			z"/>
		<path class="st24" d="M258.9,300.3c2.2,3.9,0.1,5.6-0.8,6.1c-0.8,0.4-3.4,1.8-6-1.9c-2.6-3.6-1.4-5.9,0.3-6.9
			C254.1,296.5,256.7,296.4,258.9,300.3z"/>
		<path class="st1" d="M257.8,303.8c0,0-0.1,0.3-0.3,0.5c-0.1,0.1-0.2,0.1-0.3,0.1c-0.2,0-0.3-0.2-0.3-0.3c0-0.1,0-0.3,0-0.3
			S257.3,303.9,257.8,303.8z"/>
		<path class="st4" d="M257.7,304C257.7,304,257.7,304.1,257.7,304c-0.1,0.1-0.2,0.1-0.2,0.1C257.5,304.1,257.6,304.1,257.7,304z"/>
		<path class="st4" d="M257.2,304.1c-0.1,0-0.1,0-0.2,0c0,0-0.1,0-0.1,0c0,0,0,0,0,0c0,0,0,0,0,0C257,304.1,257.1,304.1,257.2,304.1
			z"/>
		<path class="st11" d="M257.8,300.6c-0.1,0-0.2,0-0.3,0.1c-0.1,0-0.2,0.1-0.3,0c-0.1,0-0.1-0.1-0.1-0.2c0-0.1,0.2-0.2,0.3-0.2
			c0.2,0,0.3,0,0.4,0C258,300.4,257.9,300.6,257.8,300.6z"/>
		<path class="st11" d="M255.1,302c0.1-0.1,0.2-0.1,0.2-0.2c0.1-0.1,0.2-0.1,0.2-0.2c0-0.1,0-0.1-0.1-0.2c-0.1-0.1-0.3,0-0.4,0.1
			c-0.1,0.1-0.2,0.2-0.2,0.4C254.8,302,255,302.1,255.1,302z"/>
		<path class="st11" d="M256.8,304.7c0.1,0.1,0.2,0.2,0.3,0.1c0.1,0,0.2-0.1,0.3-0.1c0,0,0,0,0,0c-0.1,0.1-0.2,0.2-0.4,0.2
			C256.9,304.9,256.8,304.8,256.8,304.7C256.8,304.7,256.8,304.6,256.8,304.7z"/>
		<path class="st11" d="M257.7,303.1c0,0,0.2,0.4,0.3,0.6c0,0,0,0-0.1,0.1c0,0,0,0,0,0c-0.3,0.2-0.7,0.3-1.1,0.1c0,0,0,0,0,0
			c0.3,0.1,0.6,0,1-0.1c0-0.1-0.4-0.7-0.4-0.7c0.1,0,0.4-0.1,0.5-0.1c-0.2-0.3-0.6-1-0.9-1.4c0,0,0-0.1,0,0c0.5,0.6,0.8,1,1.1,1.5
			C258.2,303,257.8,303,257.7,303.1z"/>
		<path class="st11" d="M257.6,301.6c0-0.1,0-0.1,0-0.2c0-0.1,0.1-0.1,0.2-0.2c0.1,0,0.2,0,0.3,0c0.1,0,0.1,0.1,0.2,0.2
			c0,0,0,0.1,0.1,0.1c0,0.1,0.1,0.2,0.1,0.3c0-0.1-0.1-0.1-0.1-0.2c0-0.1-0.1-0.1-0.1-0.1c-0.1-0.1-0.2-0.2-0.3-0.1
			c-0.1,0-0.1,0.1-0.1,0.3c0,0.1,0,0.3,0.1,0.4C257.7,301.9,257.6,301.7,257.6,301.6z"/>
		<path class="st11" d="M255.5,302.7c0-0.1,0-0.1,0-0.2s0.1-0.2,0.2-0.2c0.1,0,0.2,0,0.3,0c0.1,0,0.1,0.1,0.2,0.2c0,0,0,0.1,0.1,0.1
			c0,0.1,0.1,0.2,0.1,0.3c0-0.1-0.1-0.1-0.1-0.2c0-0.1-0.1-0.1-0.1-0.1c-0.1-0.1-0.2-0.2-0.3-0.1c-0.1,0-0.1,0.1-0.1,0.3
			c0,0.1,0.1,0.3,0.1,0.4C255.6,302.9,255.6,302.8,255.5,302.7z"/>
		<g class="st28">
			<path d="M254.9,303.9C254.9,304,254.9,304,254.9,303.9c-0.1,0.1-0.1,0.1-0.1,0C254.7,303.9,254.8,303.9,254.9,303.9
				C254.8,303.9,254.9,303.9,254.9,303.9z"/>
			<path d="M256.3,303.6C256.4,303.6,256.3,303.7,256.3,303.6c-0.1,0.1-0.1,0.1-0.1,0C256.2,303.6,256.2,303.6,256.3,303.6
				C256.3,303.5,256.3,303.6,256.3,303.6z"/>
			<path d="M255.9,304.2C255.9,304.3,255.9,304.3,255.9,304.2c-0.1,0.1-0.1,0.1-0.1,0C255.8,304.2,255.8,304.2,255.9,304.2
				C255.9,304.1,255.9,304.2,255.9,304.2z"/>
			<path d="M254.8,303.3C254.8,303.4,254.8,303.4,254.8,303.3c-0.1,0.1-0.1,0.1-0.1,0C254.7,303.3,254.7,303.3,254.8,303.3
				C254.8,303.3,254.8,303.3,254.8,303.3z"/>
			<path d="M255.6,303.6C255.6,303.7,255.6,303.7,255.6,303.6c-0.1,0.1-0.1,0.1-0.1,0C255.4,303.6,255.5,303.6,255.6,303.6
				C255.5,303.5,255.6,303.6,255.6,303.6z"/>
			<path d="M259.1,302C259.1,302,259.1,302.1,259.1,302c-0.1,0.1-0.1,0.1-0.1,0C258.9,302,259,301.9,259.1,302
				C259,301.9,259.1,302,259.1,302z"/>
			<path d="M258.6,302.5C258.6,302.5,258.6,302.6,258.6,302.5c-0.1,0.1-0.1,0.1-0.1,0C258.4,302.5,258.5,302.4,258.6,302.5
				C258.5,302.4,258.6,302.4,258.6,302.5z"/>
			<path d="M258.8,302.9C258.8,303,258.8,303,258.8,302.9c-0.1,0.1-0.1,0.1-0.1,0C258.7,302.9,258.7,302.9,258.8,302.9
				C258.8,302.9,258.8,302.9,258.8,302.9z"/>
			<path d="M259.2,302.5C259.2,302.6,259.2,302.6,259.2,302.5c-0.1,0.1-0.1,0.1-0.1,0C259.1,302.5,259.1,302.5,259.2,302.5
				C259.2,302.5,259.2,302.5,259.2,302.5z"/>
		</g>
		<path class="st11" d="M250.3,300.6c0,0-0.5,1.4-0.3,2.1c0.3,0.6,2.4,2.7,2.9,2.4c0.5-0.3-0.3-2.2-0.3-2.2s0.9-1,1.7-1.7
			c-0.1-0.9-0.5-1.4-0.5-1.5c0.5,0.3,0.8,0.8,0.9,1.1c0.3-0.3,0.6-0.5,0.9-0.6c0.1-0.1,0.3-0.1,0.4-0.2c-0.2-0.5-0.4-1-0.5-1.1
			c0.3,0.2,0.5,0.7,0.7,1c0.1,0,0.2-0.1,0.3-0.1c-0.3-0.7-0.9-1.7-1-1.7c1,0.4,1.5,1.1,1.8,1.4c0.6-0.2,1-0.3,1-0.3
			c-0.9-1.9-2.7-3.2-4.8-2.8c-2.4,0.5-3.3,3.5-3.3,3.5s-0.4-0.5-0.5-0.4c-0.2,0.1,0.3,0.7,0.3,0.7s-0.5,0.3-0.5,0.5
			C249.8,301,250.3,300.6,250.3,300.6z"/>
		<path class="st24" d="M253.1,304.1c0,0-1.5-0.9-1.9-0.3c-0.4,0.6,1.1,2.1,1.8,2.1c0.8,0,0.8-0.8,0.8-0.8L253.1,304.1z"/>
		<path class="st11" d="M251.7,304.3C251.6,304.3,251.6,304.3,251.7,304.3c0.6,0,1,0.3,1.4,0.7c-0.2-0.1-0.5-0.1-0.6,0.1
			c0,0,0,0,0,0c0.2-0.1,0.3-0.2,0.5-0.1c0.1,0.1,0.3,0.2,0.4,0.3c0,0,0.1,0,0.1-0.1c0,0,0,0,0,0
			C253.2,304.7,252.3,304.1,251.7,304.3z"/>
		<path class="st11" d="M224.4,266.5c0.3,0,1.6-0.2,2.5,0.9c0.9,1,1.4,4.3,1.6,5.1c0.2,0.7,1.2,0.8,1.5,1.6c0.2,0.7-0.3,1-0.3,1.5
			c0,0.4,0.4,1,0.1,1.6c-0.3,0.6-0.9,0.5-1.3,0.7c-0.4,0.2-0.5,1.1-1.2,1.3c-0.7,0.3-1.3-0.3-1.7-0.3c-0.4,0-0.7,1.1-1.9,1.1
			c-1.2,0-1.6-1-2.1-1.1c-0.5-0.2-1.7,0.3-2.3-0.3c-0.6-0.6-0.7-1.4-1-1.6c-0.3-0.3-0.8-0.2-1.1-0.9c-0.4-0.7,0.3-1.1,0.3-1.7
			c0-0.4-0.4-0.8-0.1-1.4c0.3-0.9,1.4-0.8,1.7-1.7c0.3-0.7,0.7-3.8,2.5-4.7C223,266,224.4,266.5,224.4,266.5z"/>
		<path class="st11" d="M228.5,272.2c0.1,0.2,0.2,0.3,0.3,0.4l0.4,0.3c0.3,0.2,0.5,0.4,0.7,0.7c0.2,0.3,0.3,0.6,0.2,0.9
			c0,0.1-0.1,0.3-0.2,0.4c-0.1,0.1-0.2,0.3-0.3,0.5c-0.1,0.2,0,0.4,0.1,0.5c0.1,0.2,0.1,0.3,0.2,0.5c0.1,0.3,0.2,0.6,0,0.9
			c-0.1,0.1-0.2,0.3-0.3,0.3c-0.1,0.1-0.3,0.1-0.5,0.1c-0.2,0-0.3,0-0.5,0c-0.2,0-0.3,0-0.5,0.1c0.1-0.1,0.3-0.1,0.5-0.1
			c0.2,0,0.3,0,0.5,0c0.2,0,0.3,0,0.5-0.1c0.2-0.1,0.3-0.2,0.4-0.4c0.2-0.3,0.1-0.7,0-1c-0.1-0.2-0.1-0.3-0.2-0.5
			c-0.1-0.2-0.1-0.3-0.1-0.4c0.1-0.3,0.4-0.5,0.5-0.9c0.1-0.3,0-0.7-0.2-1c-0.2-0.3-0.5-0.5-0.8-0.6l-0.4-0.3
			C228.7,272.4,228.6,272.4,228.5,272.2z"/>
		<path class="st11" d="M220.1,268.4c-0.3,0.5-0.4,1.1-0.7,1.7c-0.1,0.3-0.2,0.6-0.3,0.8c-0.1,0.1-0.1,0.3-0.2,0.4
			c0,0,0,0.1-0.1,0.1c0,0,0,0-0.1,0.1c-0.1,0-0.1,0.1-0.2,0.1c-0.3,0.1-0.5,0.3-0.8,0.4c-0.3,0.2-0.5,0.4-0.6,0.7
			c-0.1,0.1-0.1,0.3-0.1,0.5c0,0.2,0.1,0.3,0.2,0.4c0.2,0.3,0.3,0.5,0.3,0.8c0-0.3-0.1-0.6-0.3-0.9c-0.1-0.1-0.1-0.3-0.1-0.4
			c0-0.1,0-0.3,0.1-0.4c0.1-0.3,0.3-0.5,0.6-0.6c0.2-0.2,0.5-0.3,0.8-0.4c0.1,0,0.1-0.1,0.2-0.1c0.1,0,0.1-0.1,0.2-0.2
			c0.1-0.1,0.2-0.3,0.2-0.4c0.1-0.3,0.2-0.6,0.3-0.8l0.3-0.9C220,269,220,268.7,220.1,268.4z"/>
		<path class="st11" d="M218.2,276.8c0.1,0.2,0.2,0.4,0.2,0.6c0.1,0.2,0.1,0.4,0.2,0.6c0.1,0.2,0.2,0.4,0.3,0.6
			c0.1,0.2,0.3,0.4,0.5,0.5c0.4,0.2,0.9,0.2,1.3,0.1c0.2-0.1,0.4-0.1,0.6-0.2c0.2-0.1,0.4-0.1,0.6,0c-0.2-0.1-0.4-0.1-0.6-0.1
			c-0.2,0-0.4,0.1-0.6,0.1c-0.4,0.1-0.9,0.1-1.2-0.1c-0.2-0.1-0.3-0.3-0.4-0.4c-0.1-0.2-0.2-0.4-0.3-0.6c-0.1-0.2-0.2-0.4-0.2-0.6
			c0-0.1-0.1-0.2-0.1-0.3C218.3,277,218.3,276.9,218.2,276.8z"/>
		<path class="st29" d="M227.1,279.4c1,1.8,4.8,8.4,5.1,8.7c0.3,0.3,5.8,5.9,6.7,6.8c0.7,0.6-4.5,4.5-5.1,4
			c-1.3-1.2-4.9-4.9-6.2-6.8c-1-1.5-3.3-10.4-3.4-12.6C224.1,277.3,225.5,276.4,227.1,279.4z"/>
		<path class="st29" d="M237.2,301.3c-0.4-0.2-0.5,0-0.2,0.7c0.3,0.7,2.1,3.1,1.2,3.6c-0.9,0.6-3.4-2.8-3.8-4
			c-0.4-1.2-0.7-3.2-0.7-3.2C234.3,299,235.9,300.2,237.2,301.3z"/>
		<path class="st29" d="M238.2,294.3c1.8,1.6,4,3.7,4.7,6.2c0.1,0.5,0,0.9,0,0.9c0.3,1.1-0.1,1.6-0.1,1.6c0,1.2-0.5,1.6-0.5,1.6
			s0.4,1.4-0.4,1.7c-0.9,0.4-1.2-1.6-2.1-2.5c-2-2.2-5.4-4.8-6-5.4L238.2,294.3z"/>
		<path class="st11" d="M239.3,300c0.6,0.7,1.1,1.3,1.6,2c0.5,0.8,0.9,1.7,1.3,2.6c0,0,0.1,0,0,0C241.8,302.9,240.6,301.2,239.3,300
			C239.3,300,239.3,300,239.3,300z"/>
		<path class="st11" d="M240.5,298.6c0.5,0.7,1.4,1.9,2.3,4.4c0,0,0,0,0,0C242.4,301.3,241.7,299.9,240.5,298.6
			C240.5,298.6,240.4,298.6,240.5,298.6z"/>
		<path class="st11" d="M241.1,297.9c0.8,1.2,1.2,2,1.8,3.5c0,0,0,0,0,0C242.4,299.7,242.1,299.1,241.1,297.9
			C241.1,297.8,241.1,297.9,241.1,297.9z"/>
		<path class="st8" d="M232.7,298.4l6-4.2c0,0-6.4-5.9-6.6-6.4c-0.2-0.5-4.5-8.1-5.5-9.6c-1-1.5-2.7-1.7-2.4,2.1
			c0.4,3.8,2.4,9.6,2.9,11.2C227.6,292.8,232.7,298.4,232.7,298.4z"/>
		<path class="st11" d="M232.1,296.9c0.2-0.2,2.1-1.5,2.5-1.8c0.4-0.3,2.1-1.5,2.6-1.7c0,0,0,0,0,0c-0.4,0.3-2.1,1.5-2.5,1.8
			C234.3,295.5,232.4,296.8,232.1,296.9C232.1,296.9,232.1,296.9,232.1,296.9z"/>
		<path class="st8" d="M225.5,277.3c0,0,2.8,5.1,4.5,11.8c1.1,4.3,4.2,17.8,4.4,20.6c0.1,2.8-5,12.8-7.4,12.2
			C224.6,321.2,225.5,277.3,225.5,277.3z"/>
		<g class="st30">
			<path d="M225.5,277.3c0,0,2.8,5.1,4.5,11.8c1.1,4.3,4.2,17.8,4.4,20.6c0.1,2.8-5,12.8-7.4,12.2
				C224.6,321.2,225.5,277.3,225.5,277.3z"/>
		</g>
		<path class="st29" d="M214.8,353.5c-0.6-0.2-13.3-10.3-13.6-11c-0.1-0.3,9.7-12.7,9.7-12.7l7.8,6.3l-6.3,8.3c0,0,3.1,6,3.3,6.8
			C216,352.1,215.4,353.7,214.8,353.5z"/>
		<path class="st8" d="M213.8,346.9C213.7,346.9,213.7,346.8,213.8,346.9C213.7,346.8,213.7,346.9,213.8,346.9z"/>
		<path class="st11" d="M214.8,353.5c-0.6-0.2-13.3-10.3-13.6-11c-0.1-0.2,1-1.8,2.4-3.7c2,2.3,9.7,11.2,10.5,10.6
			c0.3-0.2,0-1.4-0.3-2c0.9,1.7,1.8,3.6,1.9,4C216,352.1,215.4,353.7,214.8,353.5z"/>
		<path class="st8" d="M206.9,335l8.1,6.4c0,0,13.4-15.7,13.9-18.1c0.6-2.7,2.1-23.7,2.1-24.7c0-1.3-1.4-6.9-1.4-6.9h-10
			c0,0-1.4,27.5-1.7,28.3C217.5,321,206.9,335,206.9,335z"/>
		<path class="st31" d="M206.9,335l8.1,6.4c0,0,13.4-15.7,13.9-18.1c0.6-2.7,2.1-23.7,2.1-24.7c0-1.3-1.4-6.9-1.4-6.9h-10
			c0,0-1.4,27.5-1.7,28.3C217.5,321,206.9,335,206.9,335z"/>
		<path class="st8" d="M215.8,339.4c-1.3-1.2-6.3-5.2-7-5.6c0,0,0,0,0,0C209.3,334.4,213.6,337.9,215.8,339.4
			C215.8,339.4,215.8,339.4,215.8,339.4z"/>
		<path class="st8" d="M230,295.9c-0.1-0.1-0.3-0.1-0.4-0.1c-0.1,0-0.3-0.1-0.4-0.2c-0.3-0.1-0.5-0.3-0.8-0.5
			c-0.2-0.2-0.4-0.6-0.6-1c-0.1-0.2-0.5-1.3-0.5-1.3c0,0,0,0,0,0c0,0.1,0.3,1.1,0.4,1.3c0.2,0.4,0.3,0.8,0.6,1.1
			c0.3,0.3,0.6,0.5,0.9,0.6c0.2,0.1,0.3,0.1,0.5,0.1C229.7,296,229.9,296,230,295.9C230,296,230,295.9,230,295.9z"/>
		<path class="st8" d="M221.1,292.3l-0.2,5.5l-0.2,5.5l-0.5,11c-0.1,1.8-0.2,3.7-0.3,5.5c0,0.2,0,0.5-0.1,0.7c0,0,0,0.1,0,0.1
			c0,0,0,0.1,0,0.1c0,0.1-0.1,0.1-0.1,0.2c-0.1,0.1-0.1,0.2-0.2,0.3c-0.3,0.4-0.5,0.7-0.8,1.1c-0.6,0.7-1.1,1.5-1.7,2.2
			c-1.2,1.4-2.3,2.9-3.5,4.3l-3.5,4.3l3.4-4.3c1.1-1.4,2.3-2.9,3.4-4.3c0.6-0.7,1.1-1.5,1.7-2.2c0.3-0.4,0.6-0.7,0.8-1.1
			c0.1-0.1,0.1-0.2,0.2-0.3c0.1-0.1,0.1-0.2,0.1-0.3c0-0.2,0-0.4,0.1-0.7c0.1-1.8,0.2-3.7,0.3-5.5l0.6-11l0.3-5.5L221.1,292.3z"/>
		<path class="st8" d="M229.1,321.9c-0.1,0.7-0.1,1.2-0.2,1.5c-0.3,1.3-4.6,6.9-8.4,11.5l-2.6-16.1c0.5-5.7,1.5-26.9,1.5-26.9h5
			L229.1,321.9z"/>
		<path class="st29" d="M243.9,353.2c-0.5,0.3-16.6,3.2-17.2,2.9c-0.3-0.1-3.1-15.6-3.1-15.6l10-1.7l2.1,10.2c0,0,6.6,1.6,7.3,2
			C243.6,351.4,244.4,352.9,243.9,353.2z"/>
		<path class="st8" d="M238.2,349.6C238.2,349.6,238.2,349.6,238.2,349.6C238.2,349.6,238.2,349.6,238.2,349.6z"/>
		<path class="st11" d="M243.9,353.2c-0.5,0.3-16.6,3.2-17.2,2.9c-0.2-0.1-0.7-1.9-1.2-4.3c3,0,14.9,0.1,15-0.9
			c0.1-0.4-1-0.9-1.7-1.1c1.8,0.5,3.9,1,4.2,1.2C243.6,351.4,244.4,352.9,243.9,353.2z"/>
		<path class="st8" d="M228.3,291.8c0,0-0.3,4.3-1.4,7.3c0,0-1.7,1.1-1.9,1.2l10.2,45.5l-10.4,2c0,0-4.1-22.1-4.4-23.6
			c-0.6-2.4-5-23.1-5.2-24.2c-0.4-2.5,1.9-8.3,1.9-8.3H228.3z"/>
		<path class="st31" d="M228.3,291.8c0,0-0.3,4.3-1.4,7.3c0,0-1.7,1.1-1.9,1.2l10.2,45.5l-10.4,2c0,0-4.1-22.1-4.4-23.6
			c-0.6-2.4-5-23.1-5.2-24.2c-0.4-2.5,1.9-8.3,1.9-8.3H228.3z"/>
		<path class="st8" d="M234,343.6c-2.9,0.4-8.3,1.6-9,1.9c0,0,0,0,0,0C225.8,345.4,232.4,344.1,234,343.6
			C234.1,343.6,234.1,343.6,234,343.6z"/>
		<path class="st8" d="M218.2,295.9c0.2,0,0.4,0,0.6-0.1c0.2,0,0.4-0.1,0.7-0.1c0.4-0.1,0.8-0.3,1.2-0.5c0.4-0.2,0.6-0.5,0.9-0.9
			c0.1-0.2,0.7-1.2,0.7-1.3c0,0,0.1,0,0.1,0c0,0.1-0.4,1.1-0.5,1.3c-0.2,0.4-0.5,0.8-0.9,1.1c-0.4,0.3-0.9,0.4-1.3,0.5
			c-0.2,0-0.5,0.1-0.7,0.1C218.7,296.1,218.4,296.1,218.2,295.9C218.2,296,218.2,295.9,218.2,295.9z"/>
		<path class="st8" d="M227.1,299c-0.9,0.3-1.9,0.8-2.7,1.2c0,0,0,0.1,0,0.1c0.9-0.4,1.9-0.8,2.8-1.2
			C227.2,299,227.2,298.9,227.1,299z"/>
		<path class="st8" d="M227.4,292.7C227.4,292.7,227.4,292.6,227.4,292.7c-0.1,1.1-0.1,2-0.2,3.1c0,0.5-0.5,3.1-1.3,2.9
			c-0.1,0-0.2-0.2-0.2-0.4c0-0.2,0.1-0.6,0.1-0.8c0.1-0.5,0.2-1.1,0.2-1.6c0.1-1,0.1-2.1,0-3.1c0,0-0.1,0-0.1,0
			c0,1.4-0.1,2.8-0.3,4.3c-0.1,0.7-0.5,1.7,0.3,1.8c0.7,0.1,1.2-1.6,1.3-2.1C227.5,295.4,227.5,294,227.4,292.7z"/>
		<path class="st8" d="M225.9,298.7c-0.1,0.2-0.1,0.4-0.2,0.5c0,0.1-0.1,0.3-0.1,0.4c0,0,0,0,0.1,0c0.1-0.1,0.1-0.3,0.2-0.4
			c0.1-0.2,0.1-0.3,0.2-0.5C226.1,298.6,226,298.6,225.9,298.7z"/>
		<path class="st8" d="M217.8,291.8c-0.3,1.1-0.6,2.2-0.8,3.3c-0.2,1.1-0.5,2.2-0.6,3.3l0,0.4c0,0.1,0,0.3,0,0.4l0.1,0.8l0.3,1.6
			l0.7,3.3l2.8,13.1l2.8,13.1l1.4,6.6l1.3,6.6l-1.5-6.5l-1.4-6.5l-2.8-13.1c-0.9-4.4-1.8-8.8-2.7-13.1l-0.6-3.3l-0.3-1.6l-0.1-0.8
			c0-0.3,0-0.6,0.1-0.8c0.2-1.1,0.4-2.2,0.7-3.3C217.2,293.9,217.5,292.9,217.8,291.8z"/>
		<path class="st11" d="M229.9,291.8l-0.9-4.9c0,0,1.4-1.8,0.8-3c-0.5-1-3.3-5.9-5-7.1c-1.6-1.1-3.2,0-3.9,1
			c-2.1,2.8-3.5,7.2-4.3,13.9H229.9z"/>
		<path class="st32" d="M227.1,286.2c-0.6,0.1-1.2,0.2-1.7,0.4c-0.3,0.1-0.6,0.2-0.8,0.3c-0.1,0.1-0.3,0.1-0.4,0.2
			c-0.1,0.1-0.3,0.1-0.4,0.1c0,0,0,0,0,0c0.1,0,0.3,0,0.4,0c0.1,0,0.3-0.1,0.4-0.1c0.3-0.1,0.6-0.2,0.8-0.3
			C225.9,286.6,226.5,286.4,227.1,286.2C227.1,286.3,227.1,286.2,227.1,286.2z"/>
		<path class="st32" d="M228.5,286.8c-0.5,0-1-0.1-1.4-0.1c-0.2,0-0.5,0-0.7,0.1c-0.1,0-0.2,0-0.3,0.1c-0.1,0-0.2,0.1-0.4,0.1
			c0,0,0,0,0,0c0.1,0,0.2,0,0.4,0c0.1,0,0.2,0,0.4,0c0.2,0,0.5,0,0.7,0C227.6,286.9,228.1,286.9,228.5,286.8
			C228.6,286.9,228.6,286.8,228.5,286.8z"/>
		<path class="st29" d="M222.7,277c0.1,0.3,1.5,1.8,2.7,1.6c0.4,0,0.2-2.1,0.2-2.1l0-0.2l0.4-2.2l-2.7-1.5l-0.4-0.2
			c0,0-0.1,0.6-0.1,1.4c0,0,0,0.1,0,0.1c0,0,0,0.1,0,0.1c0,0.1,0,0.2,0,0.4c0,0.1,0,0.2,0,0.3c0,0.1,0,0.2,0,0.3
			C222.6,275.9,222.7,276.8,222.7,277z"/>
		<path class="st11" d="M225.6,276.5c0,0,0,0.3,0,0.6c-0.8-0.3-2.1-1-3-2.4c0,0,0,0,0-0.1c0-0.1,0-0.2,0-0.3c0-0.1,0-0.2,0-0.4
			c0,0,0-0.1,0-0.1c0,0,0-0.1,0-0.1c0.1-0.8,0.1-1.4,0.1-1.4l0.4,0.2l2.7,1.5l-0.3,2.3L225.6,276.5z"/>
		<path class="st29" d="M228.5,270.8c0.9,3.9-1.3,4.9-2.2,5.1c-0.8,0.2-3.4,0.7-4.7-3.1c-1.3-3.8,0.2-5.4,1.9-5.9
			C225.3,266.4,227.6,266.9,228.5,270.8z"/>
		<path class="st11" d="M227.8,270.6c-0.1,0-0.2,0-0.3,0c-0.1,0-0.2,0-0.3-0.1c0,0-0.1-0.1,0-0.2c0.1-0.1,0.2-0.1,0.3-0.1
			c0.1,0,0.2,0,0.4,0.1C228,270.5,228,270.6,227.8,270.6z"/>
		<path class="st11" d="M225.2,271c0.1,0,0.2-0.1,0.3-0.1c0.1,0,0.2-0.1,0.2-0.2c0,0,0-0.1,0-0.2c-0.1-0.1-0.2-0.1-0.4,0
			c-0.1,0-0.2,0.1-0.3,0.2C224.9,270.9,225,271,225.2,271z"/>
		<path class="st11" d="M225.9,271.6C225.9,271.6,225.9,271.6,225.9,271.6c0,0.3,0.1,0.6-0.2,0.7c0,0,0,0,0,0
			C226,272.3,226,271.9,225.9,271.6z"/>
		<path class="st11" d="M225.6,271.4c-0.4,0-0.3,0.9,0.1,0.9C226.1,272.2,225.9,271.3,225.6,271.4z"/>
		<path class="st11" d="M225.4,271.5c-0.1,0.1-0.1,0.2-0.2,0.2c-0.1,0-0.2-0.1-0.3-0.1c0,0,0,0,0,0c0,0.2,0.1,0.3,0.3,0.3
			C225.4,271.8,225.5,271.7,225.4,271.5C225.5,271.5,225.4,271.4,225.4,271.5z"/>
		<path class="st11" d="M227.4,271.3C227.4,271.3,227.4,271.3,227.4,271.3c0.1,0.3,0.1,0.6,0.4,0.7c0,0,0,0,0,0
			C227.4,271.9,227.3,271.5,227.4,271.3z"/>
		<path class="st11" d="M227.6,271c0.4-0.1,0.6,0.8,0.2,0.9C227.4,271.9,227.2,271,227.6,271z"/>
		<path class="st11" d="M227.7,271c0.1,0,0.2,0.1,0.2,0.1c0.1,0,0.1-0.1,0.2-0.2c0,0,0,0,0,0c0,0.2,0,0.3-0.1,0.4
			C227.9,271.3,227.8,271.2,227.7,271C227.7,271,227.7,271,227.7,271z"/>
		<path class="st11" d="M226.2,273.9c0.1,0.1,0.1,0.1,0.2,0.1c0.1,0,0.2-0.1,0.3-0.1c0,0,0,0,0,0c-0.1,0.1-0.2,0.2-0.3,0.2
			C226.3,274.1,226.2,274,226.2,273.9C226.2,273.9,226.2,273.9,226.2,273.9z"/>
		<path class="st11" d="M227.2,272.7c0,0,0.1,0.4,0.1,0.6c0,0,0,0-0.1,0c0,0,0,0,0,0c-0.3,0.1-0.7,0-0.9-0.2c0,0,0,0,0,0
			c0.3,0.1,0.6,0.1,0.9,0.1c0-0.1-0.2-0.7-0.2-0.7c0.1,0,0.3,0,0.4,0c-0.2-0.8-0.6-1.6-0.8-2.4c0,0,0,0,0,0c0.4,0.8,0.7,1.7,1,2.6
			C227.7,272.8,227.2,272.8,227.2,272.7z"/>
		<path class="st11" d="M227.2,273.3c0,0-0.1,0.3-0.4,0.4c-0.1,0.1-0.2,0.1-0.3,0.1c-0.2,0-0.3-0.2-0.3-0.4c0-0.1,0-0.3,0-0.3
			S226.7,273.4,227.2,273.3z"/>
		<path class="st33" d="M226.8,273.7c-0.1,0.1-0.2,0.1-0.3,0.1c-0.2,0-0.3-0.2-0.3-0.4C226.5,273.4,226.8,273.5,226.8,273.7z"/>
		<path class="st11" d="M221.7,273c0.9-0.5,0.8-1.4,0.8-1.4c1.1-0.6,1.6-1.5,1.6-1.6c0,0.1-0.2,0.7-0.2,1c2.5-0.7,3.1-2.7,3.1-2.7
			c0.9,0.8,1.1,1.3,1.2,1.5c0,0-0.1-1.6-1-2.5c-1.1-1.2-2.4-0.8-2.4-0.8s-2-0.4-3.4,1.4C219.9,269.8,221.7,273,221.7,273z"/>
		<path class="st11" d="M225.8,270.5c-0.4,0.3-0.8,0.5-1.3,0.6c0,0,0,0,0,0c0.7-0.3,1.3-0.7,1.8-1.3c0.2-0.2,0.4-0.5,0.5-0.8
			c0.1-0.3,0.3-0.7,0.3-1c0,0,0,0,0,0c0,0.4,0,0.7-0.1,1c-0.1,0.3-0.3,0.6-0.5,0.9C226.3,270.1,226,270.3,225.8,270.5z"/>
		<path class="st29" d="M222.4,272.6c0,0-1-1.1-1.6-0.7c-0.5,0.4,0.4,2.1,1.1,2.2c0.7,0.1,0.8-0.5,0.8-0.5L222.4,272.6z"/>
		<path class="st11" d="M221.1,272.4C221.1,272.4,221.1,272.4,221.1,272.4c0.5,0.1,0.8,0.5,1,0.9c-0.2-0.1-0.4-0.2-0.6,0
			c0,0,0,0,0,0c0.2-0.1,0.3-0.1,0.5,0.1c0.1,0.1,0.2,0.2,0.3,0.3c0,0,0.1,0,0.1,0c0,0,0,0,0,0C222.3,273.1,221.7,272.3,221.1,272.4z
			"/>
		<path class="st8" d="M222.7,276.5c-0.8,1.8-1.4,7.4-1,11.8c0.4,4.4,2.1,17.9,2.2,20.7c0.1,2.8-11.3,12.6-13.7,12
			c-2.4-0.7-3.4-7.7,1.3-23.5c1.2-4.2,5.1-14.4,8.2-18.7C221.8,275.9,222.7,276.5,222.7,276.5z"/>
		<g class="st30">
			<path d="M221.6,299.8c-0.6,0.4-1.2,0.8-1.7,1.3c-0.5,0.4-1,0.8-1.6,1.2c-0.5,0.4-1.1,0.7-1.7,1c-0.6,0.3-1.2,0.5-1.9,0.7
				c0,0,0,0,0,0c2.1,0,3.9-1.4,5.4-2.7C220.7,300.8,221.2,300.3,221.6,299.8C221.7,299.8,221.6,299.7,221.6,299.8z"/>
			<path d="M221.5,300.6c-0.7,0.8-1.4,1.5-2.2,2.1c-0.8,0.6-1.7,1.1-2.6,1.5c-0.5,0.2-1.1,0.4-1.6,0.6c0,0,0,0.1,0,0.1
				c2.1-0.2,4-1.2,5.5-2.7C220.9,301.6,221.3,301.2,221.5,300.6C221.6,300.6,221.5,300.6,221.5,300.6z"/>
			<path d="M221.5,301.7c0,1.4-0.3,3.9-0.4,4.4c-0.1,0.5-0.2,1-0.5,1.4c-0.5,0.8-1.5,1.3-2.4,1.6c-0.8,0.3-1.8,0.4-2.6-0.2
				c-0.4-0.3-0.5-0.9-0.6-1.4c-0.1-0.6-0.2-1.3-0.2-1.9c0,0,0,0,0,0c0,0.6,0,1.2,0,1.7c0,0.5,0,1.1,0.3,1.6c0.5,0.8,1.6,1,2.5,0.8
				c0.5-0.1,1.1-0.3,1.6-0.6c0.5-0.2,0.9-0.5,1.3-0.9c0.4-0.4,0.6-0.8,0.8-1.3C221.5,306.2,221.7,303.1,221.5,301.7
				C221.5,301.7,221.5,301.7,221.5,301.7z"/>
		</g>
		<path class="st29" d="M221.4,279.9c-0.7,2-2.6,9.2-2.6,9.6c0,0.4-0.7,8.3-0.6,9.6c0,0.9-6.4-0.4-6.4-1.2c0-1.8,0.4-6.9,1-9.1
			c0.5-1.8,5.6-9.3,7.2-10.9C221.6,276.3,222.6,276.7,221.4,279.9z"/>
		<path class="st29" d="M216.6,302.2c0.2-0.4,0.4-0.3,0.5,0.5c0.1,0.8-0.2,3.8,0.9,3.9c1.1,0,1.5-4.3,1.2-5.6
			c-0.2-1.3-1.1-3.2-1.1-3.2C217.8,298.6,217,300.6,216.6,302.2z"/>
		<path class="st29" d="M211.7,296.7c-0.6,2.4-1.5,5.3-0.7,7.9c0.2,0.5,0.5,0.7,0.5,0.7c0.3,1.2,1,1.4,1,1.4c0.7,1,1.4,1.1,1.4,1.1
			s0.4,1.4,1.3,1.3c1-0.1,0.2-2.1,0.5-3.4c0.5-3,2.1-7.2,2.4-8L211.7,296.7z"/>
		<path class="st11" d="M214,302.3c-0.1,0.9-0.3,1.8-0.3,2.7c0,1,0.1,2,0.3,2.9c0,0,0,0,0,0C213.4,306.1,213.4,304,214,302.3
			C214,302.2,214,302.2,214,302.3z"/>
		<path class="st11" d="M212.2,301.7c-0.1,0.9-0.2,2.4,0.4,5.1c0,0,0,0,0,0C211.9,305.1,211.8,303.4,212.2,301.7
			C212.2,301.6,212.2,301.6,212.2,301.7z"/>
		<path class="st11" d="M211.2,301.4c-0.1,1.5,0,2.5,0.3,4c0,0,0,0,0,0C211,303.7,211,303,211.2,301.4
			C211.2,301.3,211.2,301.3,211.2,301.4z"/>
		<path class="st8" d="M211.4,296.1l7.1,1.8c0,0,0.2-8.2,0.5-8.6c0.2-0.5,2.5-8.7,3-10.5c0.5-1.7,0-3.1-2.6-0.4
			c-2.7,2.8-5.7,8.2-6.5,9.6C212.1,289.1,211.4,296.1,211.4,296.1z"/>
		<path class="st11" d="M221.6,281.3c-0.1,0.2-0.3,0.4-0.4,0.6c0,0,0,0.1,0,0.1c0.1-0.3,0.2-0.7,0.3-1c0,0,0,0,0,0
			c-0.2,0.6-0.4,1.2-0.6,1.8c-0.2,0.6-2,6.2-2.1,6.7c-0.1,0.6-0.3,8.2-0.2,8.3c0.1,0.1,0.1,0.1,0.1-0.1c0,0,0.2-7.7,0.3-8.2
			c0.1-0.5,2.1-6.9,2.1-7.1c0.1-0.2,0.2-0.3,0.3-0.5C221.4,281.8,221.5,281.6,221.6,281.3C221.6,281.3,221.6,281.3,221.6,281.3z"/>
		<path class="st11" d="M212.1,294.7c0.3,0,2.5,0.6,3,0.7c0.5,0.1,2.5,0.6,3,0.8c0,0,0,0,0,0c-0.5-0.1-2.6-0.6-3.1-0.7
			C214.6,295.4,212.3,294.9,212.1,294.7C212.1,294.8,212.1,294.7,212.1,294.7z"/>
		<path class="st10" d="M75.8,300.8c-1.3,1.1-2.4,2.7-1.6,4.5c0.8,2.1,3.3,2.9,5.2,3.1c2.1,0.3,4.7,0.1,6.1-1.8
			c0.9-1.2,1.1-3,0.2-4.2c3.5,0.3,7.8,0.1,9.6-3.6c0.7-1.4,0.9-3.1,0.3-4.5c-0.6-1.5-2-2.4-3.4-3c-3.4-1.5-7.2-2.1-10.8-1.8
			c-1.8,0.1-3.6,0.5-5.3,1.1c-1.3,0.5-2.7,1.3-3.4,2.6c-0.7,1.4-0.6,3.1,0.1,4.5C73.5,299.2,74.6,300.1,75.8,300.8z"/>
		<path class="st10" d="M42.5,296.7c0,0.5,0.6,0.9,0.9,0.4c3.1-4.3,6.4-8.6,10.7-11.6c7.9-5.5,17.9-5,26.8-3.3c5,1,10,2.4,15.1,3.3
			c2.5,0.5,5,0.8,7.5,0.9c2.4,0.1,5-0.1,7.2,1c0.3,0.2,0.6-0.2,0.6-0.5c0,0,0-0.1,0-0.2c-0.5-2-1.4-3.8-2.6-5.4
			c-5.2-6.6-13.8-7.7-21.4-7.7c-2.3-4.4-7.1-6.6-11.6-7.8c-4.7-1.2-9.7-1.4-14.4,0.1c-4,1.2-7.6,3.7-10.2,7.1
			c-1.3,1.6-2.3,3.5-3,5.4c-0.4,1-0.9,3.3-1.1,4.4c-0.1,0.6-2.5,1.2-4.1,5.9C41.9,291.3,42.4,294.1,42.5,296.7z"/>
		<path class="st34" d="M43.9,300.8c2.1,3.3,6.4,5.2,10.6,5c1.3,2.5,4.2,3.8,7,4.5c3.2,0.9,6.7,1.1,10,0.6c2.8-0.3,6.1-1.1,7.3-3.6
			c0.5-1,0.6-2.2-0.1-3.2c-0.8-1.1-2.2-1.7-3.5-2.2c-1.1-0.5-2.3-0.8-3.5-1.1c2.4-0.5,4.7-1.5,6.6-3.1c5.3,1.1,10.8,1.2,16.1,0.2
			c2.4-0.4,4.7-1,7-1.8c2-0.7,4-1.5,5.8-2.7c1.5-1,2.9-2.3,3.6-3.9c0.7-1.7,0.5-3.5-0.4-5.1c-2.1-3.7-7.2-5.1-11.5-5.8
			c-5-0.7-10-0.4-14.9,0.4c-1.1-3.4-5.4-5.2-8.8-6.4c-3.7-1.3-7.8-2-11.8-2c-3.8,0-7.8,0.5-11.3,1.9c-3.4,1.3-5.8,3.8-6.1,7.2
			c-0.2,3.1,1.5,5.9,3.9,7.9c-1.9,0.4-3.6,1.4-4.9,2.7C42,293.3,41.8,297.5,43.9,300.8z"/>
		<path class="st10" d="M68.1,308.4C68.1,308.4,68.1,308.4,68.1,308.4C68.1,308.4,68.1,308.4,68.1,308.4
			C68.1,308.4,68.1,308.4,68.1,308.4C68.1,308.4,68.1,308.4,68.1,308.4c-1.6-0.9-0.9-3.3-0.4-4.6c0-0.1,1.2,1.7,1.2,2.6
			C69,307.1,68.6,308,68.1,308.4z"/>
		<path class="st10" d="M72.5,307.5c0,0-2.2-1-3.2,0.4c0,0,0.4,0.7,1.4,0.7C71.7,308.5,72.5,307.5,72.5,307.5z"/>
		<path class="st10" d="M53.2,300.9c0,0,2.4-0.5,3.1,1c0,0-0.5,0.6-1.5,0.4C53.8,302.1,53.2,300.9,53.2,300.9z"/>
		<path class="st10" d="M108.5,285c0,0-0.2,2.6-1.7,2.9c0,0-0.4-0.7,0-1.6C107.3,285.3,108.5,285,108.5,285z"/>
		<path class="st10" d="M105.2,290.8c0,0,0.3-1.3,1.4-1.9c1.1-0.6,2.4-0.6,2.4-0.6S107.8,291.6,105.2,290.8z"/>
		<path class="st10" d="M70.3,306.4c0,0-0.7-1,1.3-2.3C71.5,304,71.6,305.9,70.3,306.4z"/>
		<path class="st10" d="M56.3,300.9c0,0,0.6-1-1.4-2.2C54.8,298.7,54.9,300.5,56.3,300.9z"/>
		<path class="st10" d="M88.4,288.9c0,0-2.4-0.5-3.1,1c0,0,0.5,0.6,1.5,0.4C87.8,290.1,88.4,288.9,88.4,288.9z"/>
		<path class="st10" d="M85.3,289c0,0-0.6-1,1.4-2.2C86.7,286.7,86.6,288.5,85.3,289z"/>
		<path class="st10" d="M104.7,289.6c0,0-1-0.5,0.1-2.7C104.8,286.9,105.7,288.5,104.7,289.6z"/>
		<path class="st16" d="M94.3,292.9c0,0-0.4,0.2-1,0.4h0c-2.1,0.8-6.9,2.4-9.6,3.3c-1,0.4-1.7,0.6-1.8,0.8c-0.7,0.6-3.8,5-4.3,6.8
			c0,0.2-0.1,0.8-0.1,1.7c0,2.9,0.1,9.2,0.3,16.4c0,1.8,0.1,3.7,0.1,5.6c0.1,2.9,0.2,5.8,0.2,8.6c0,0,0,0,0,0c0,0.2,0,0.5,0,0.7
			c0,0,0,0,0,0c0.1,2.8,0.2,5.5,0.2,7.9v0c0.2,5.9,0.3,10,0.3,10H61.6c0,0,0.4-3.3,1-8.3v0c0.2-1.9,0.5-4.1,0.7-6.4
			c0.3-2.4,0.6-4.9,0.9-7.5c0,0,0,0,0,0c0.1-1.2,0.3-2.4,0.4-3.5c0.2-1.6,0.4-3.3,0.6-4.9c0.1-0.8,0.2-1.7,0.3-2.5c0,0,0,0,0,0
			c0.1-0.7,0.2-1.3,0.2-2c0.1-1.1,0.2-2.1,0.4-3.1c0-0.1,0-0.1,0-0.2c0.1-0.5,0.1-0.9,0.2-1.4c0,0,0,0,0,0c0,0,0,0,0,0
			c0.8-6.7,1.3-11.6,1.3-11.9c0-0.9-3.7-11-3.7-11l0.8-0.5c0,0,3.8,8.3,5.4,9.1c0.2,0.1,0.4,0.2,0.7,0.2c0,0,0,0,0,0
			c1.5,0.3,2.9-0.8,3.7-2.2c0.6-1.1,1.5-3.7,2.2-5.4c0.3-0.7,0.5-1.3,0.6-1.4c0.1-0.2,0.8-0.1,0.8,0.1c0.1,1.3-2.2,6.5-1.6,7.2
			c0.2,0.2,1-0.6,2.2-1.7h0c1.7-1.7,3.9-4.4,5.4-6.2c0,0,0,0,0,0c0.8-1,1.4-1.7,1.5-1.8c0.5-0.4,0.8,0.5,0.7,0.6
			c-0.1,0.2-4.1,4.6-3.9,5.2c0.2,0.6,11.2-3.8,11.4-3.6C94.2,292.4,94.4,292.6,94.3,292.9z"/>
		<path class="st16" d="M66.3,315.4C66.3,315.4,66.3,315.4,66.3,315.4c0,0.2-0.2,3.1-0.4,5.1c-0.2,1.7-0.3,2.8-0.3,1.6c0,0,0,0,0,0
			c0-1-0.9-3.4-2-6c-1.9-4.4-4.4-9.6-4.3-10.2c0.1-0.9,0.7-0.7,0.7-0.7c0.3,0,1.1,1.9,2.6,5.1C64,313.5,65.9,316.7,66.3,315.4z"/>
		<g class="st20">
			<path d="M94.3,292.9c0,0-0.4,0.2-1,0.4h0c-2.1,0.8-6.9,2.4-9.6,3.3c-1,0.4-1.7,0.6-1.8,0.8c-0.7,0.6-3.8,5-4.3,6.8
				c0,0.2-0.1,0.8-0.1,1.7c0,2.9,0.1,9.2,0.3,16.4c0,1.8,0.1,3.7,0.1,5.6c0.1,2.9,0.2,5.8,0.2,8.6c0,0,0,0,0,0c0,0.2,0,0.5,0,0.7
				c0,0,0,0,0,0c0.1,2.8,0.2,5.5,0.2,7.9v0c0.2,5.9,0.3,10,0.3,10H61.6c0,0,0.4-3.3,1-8.3v0c0.2-1.9,0.5-4.1,0.7-6.4
				c0.3-2.4,0.6-4.9,0.9-7.5c0,0,0,0,0,0c0.1-1.2,0.3-2.4,0.4-3.5c0.2-1.6,0.4-3.3,0.6-4.9c0.1-0.8,0.2-1.7,0.3-2.5c0,0,0,0,0,0
				c0.1-0.7,0.2-1.3,0.2-2c0.1-1.1,0.2-2.1,0.4-3.1c0-0.1,0-0.1,0-0.2c0.1-0.5,0.1-0.9,0.2-1.4c0,0,0,0,0,0c0,0,0,0,0,0
				c0.8-6.7,1.3-11.6,1.3-11.9c0-0.9-3.7-11-3.7-11l0.8-0.5c0,0,3.8,8.3,5.4,9.1c0.2,0.1,0.4,0.2,0.7,0.2c0,0,0,0,0,0
				c1.5,0.3,2.9-0.8,3.7-2.2c0.6-1.1,1.5-3.7,2.2-5.4c0.3-0.7,0.5-1.3,0.6-1.4c0.1-0.2,0.8-0.1,0.8,0.1c0.1,1.3-2.2,6.5-1.6,7.2
				c0.2,0.2,1-0.6,2.2-1.7h0c1.7-1.7,3.9-4.4,5.4-6.2c0,0,0,0,0,0c0.8-1,1.4-1.7,1.5-1.8c0.5-0.4,0.8,0.5,0.7,0.6
				c-0.1,0.2-4.1,4.6-3.9,5.2c0.2,0.6,11.2-3.8,11.4-3.6C94.2,292.4,94.4,292.6,94.3,292.9z"/>
			<path d="M66.3,315.4C66.3,315.4,66.3,315.4,66.3,315.4c0,0.2-0.2,3.1-0.4,5.1c-0.2,1.7-0.3,2.8-0.3,1.6c0,0,0,0,0,0
				c0-1-0.9-3.4-2-6c-1.9-4.4-4.4-9.6-4.3-10.2c0.1-0.9,0.7-0.7,0.7-0.7c0.3,0,1.1,1.9,2.6,5.1C64,313.5,65.9,316.7,66.3,315.4z"/>
		</g>
		<g class="st30">
			<path d="M70.2,325c-0.1,2.3-0.4,4.6-0.9,6.8c-0.8,4.1-2,8.1-2.7,12.1c-0.4,2.1-0.7,4.3-0.9,6.5c-0.1,1.1-0.2,2.2-0.2,3.3
				c0,0.4,0,0.9,0,1.3h-1.2c0-0.7,0.1-1.4,0.1-2c0.1-1.2,0.1-2.5,0.3-3.7c0.4-4.2,1.4-8.2,2.5-12.2c1.1-4,2.2-8,2.6-12.2
				C69.8,324.8,70.2,324.7,70.2,325z"/>
			<path d="M69.5,308.5c-0.5,1.9-0.9,3.9-1.3,5.9c-0.4,2-0.9,3.9-1.2,5.9c-0.6,3.9-0.4,7.8-0.1,11.7c0,0.2,0.3,0.2,0.3,0
				c0.1-3.9,0-7.8,0.5-11.7c0.5-3.9,1.4-7.8,2.1-11.7C69.8,308.5,69.6,308.4,69.5,308.5z"/>
			<path d="M70.2,319c-0.2-1.6-0.2-3.1-0.1-4.7c0-0.1-0.2-0.1-0.2,0c-0.4,1.4-0.2,3-0.1,4.5c0.1,1.6,0,3.1,0,4.7
				c0,0.2,0.2,0.2,0.3,0C70.6,322.1,70.4,320.5,70.2,319z"/>
			<path d="M68.8,320.6c-0.3,0.9-0.3,1.9-0.4,2.8c-0.1,1-0.1,2,0,3c0,0.1,0.2,0.1,0.2,0c0.1-1,0.2-1.9,0.3-2.9
				c0.1-0.9,0.2-1.9,0.2-2.9C69,320.4,68.8,320.4,68.8,320.6z"/>
			<path d="M77,352.4c-0.3-2.3-0.4-4.5-0.6-6.8c-0.2-2.2-0.3-4.5-0.4-6.7c-0.1-2.2-0.1-4.5-0.1-6.7c0-2.3,0.3-4.6,0.3-6.8
				c0-0.3-0.4-0.3-0.4-0.1c-0.5,2.1-0.6,4.5-0.8,6.7c-0.2,2.3-0.2,4.7-0.2,7c0.1,2.3,0.2,4.6,0.5,6.8c0.3,2.3,0.7,4.5,1.3,6.7
				C76.6,352.7,77,352.7,77,352.4z"/>
			<path d="M74.2,355.1h-1.1c-0.1-0.6-0.2-1.2-0.2-1.8c-0.2-1.5-0.1-3.1-0.1-4.6c0-3.3,0.3-6.6,0.4-9.9c0-0.2,0.3-0.2,0.4,0
				c0.1,3.2,0.3,6.4,0.3,9.6c0,1.5,0,3.1,0.1,4.6C74,353.8,74.1,354.4,74.2,355.1z"/>
			<path d="M73.8,332c0-0.3-0.4-0.3-0.4,0c-0.1,1.6-0.2,3.2,0,4.8c0,0.1,0.2,0.1,0.2,0C73.8,335.3,73.8,333.6,73.8,332z"/>
			<path d="M71.2,330.9c0-0.2-0.4-0.2-0.5,0c-0.3,1.8-0.3,3.7-0.5,5.5c-0.2,1.9-0.4,3.8-0.8,5.6c-0.6,3.7-1.4,7.4-2.4,11
				c0,0.1,0.2,0.2,0.2,0.1c1.6-3.5,2.7-7.1,3.3-10.9c0.3-1.8,0.6-3.7,0.7-5.6C71.4,334.8,71.5,332.8,71.2,330.9z"/>
			<path d="M71.5,348.9c0,0.9,0,1.8,0,2.7c0,1-0.1,1.9-0.2,2.9c0,0.2,0,0.4,0,0.6h-1c0-0.3,0-0.5,0-0.7c0-0.9,0-1.8,0.1-2.8
				c0.1-0.9,0.2-1.8,0.4-2.7c0.1-0.9,0.2-1.9,0.5-2.8c0-0.1,0.2-0.1,0.2,0C71.6,347,71.5,348,71.5,348.9z"/>
			<path d="M64.7,340c-0.7,2.2-1.4,4.5-2.1,6.7c0,0,0,0,0,0c0.2-1.9,0.5-4.1,0.7-6.4c0-0.1,0-0.1,0.1-0.2c0.4-1.2,0.7-2.3,0.9-3.5
				c0.1-1.2,0.1-2.4,0-3.6c0,0,0-0.1,0-0.1c0,0,0,0,0,0c0.1-1.2,0.3-2.4,0.4-3.5c0.3,1.2,0.6,2.4,0.7,3.7
				C65.7,335.5,65.4,337.7,64.7,340z"/>
			<path d="M77.9,322.3c-0.1-0.3-0.1-0.5-0.2-0.8c-0.2-0.8-0.4-1.7-0.5-2.5c-0.3-1.6-0.4-3.3-0.4-5c0-1.7,0.1-3.3,0.3-5
				c0.1-0.9,0.3-1.7,0.4-2.6c0-0.2,0.1-0.4,0.1-0.5C77.6,308.9,77.7,315.2,77.9,322.3z"/>
			<path d="M72.7,310.5c0-0.2-0.2-0.1-0.2,0c-0.1,1.7-0.1,3.5-0.2,5.2c-0.1,1.7-0.2,3.4-0.3,5.1c-0.1,1.7-0.1,3.4,0,5.1
				c0.1,1.7,0.3,3.4,0.6,5c0,0.1,0.2,0.1,0.2,0c0-3.4,0.2-6.9,0.2-10.4C73,317.4,73.2,313.9,72.7,310.5z"/>
			<path d="M74.9,307.3c0-0.1-0.2-0.1-0.2,0c0.1,3.2,0.1,6.5-0.1,9.8c-0.2,3.2-0.7,6.4-0.3,9.7c0,0.1,0.2,0.2,0.2,0
				c0-1.7,0.2-3.3,0.4-5c0.2-1.6,0.3-3.1,0.4-4.7C75.5,313.8,75.2,310.5,74.9,307.3z"/>
			<path d="M78.5,345.1c-0.1-0.8-0.3-1.5-0.4-2.3c-0.3-1.7-0.7-3.4-0.8-5.2c-0.1-1.7,0.1-3.5,0.2-5.2c0.2-1.5,0.3-3,0.5-4.5
				c0.1,2.9,0.2,5.8,0.2,8.6c0,0,0,0,0,0c0,0.2,0,0.5,0,0.7c0,0,0,0,0,0C78.4,340,78.5,342.7,78.5,345.1z"/>
			<path d="M66.1,316.8c-0.7-0.4-1.2-1.4-1.7-2.1c-0.5-0.7-0.9-1.4-1.4-2.2c0-0.1-0.1,0-0.1,0c0.4,1,0.8,2,1.4,2.9
				c0.4,0.6,1,1.6,1.8,1.5C66.1,317,66.2,316.8,66.1,316.8z"/>
			<path d="M62.2,310.4c-0.2-0.4-0.4-0.7-0.6-1.1c-0.1-0.1-0.2,0-0.2,0.1c0.1,0.4,0.2,0.8,0.4,1.2c0.1,0.3,0.3,0.8,0.6,0.9
				c0.1,0,0.2,0,0.2-0.1C62.6,311.1,62.4,310.7,62.2,310.4z"/>
			<path d="M65.8,322.4c-0.2,0.7-0.3,1.4-0.5,2.1c0.1-0.8,0.2-1.7,0.3-2.5c0,0,0,0,0,0c0-1-0.9-3.4-2-6c0.8,1.2,1.6,2.4,2.1,3.8
				c0,0.1,0,0.1,0.1,0.2c0,0.1,0.1,0.3,0.1,0.4C66,321.1,65.9,321.8,65.8,322.4z"/>
			<path d="M68.4,306.2c-0.9,2.6-1.2,5.5-1,8.3c0,0.1,0.2,0.2,0.3,0c0.4-2.8,0.3-5.6,1-8.3C68.6,306.2,68.4,306.1,68.4,306.2z"/>
			<path d="M71.2,305.2c0-0.1-0.2-0.1-0.2,0c-0.2,3.4-0.3,6.9,0.1,10.3c0,0.1,0.2,0.1,0.2,0C71.5,312.1,71.4,308.6,71.2,305.2z"/>
			<path d="M67.9,299.4c-0.1-0.2-0.3,0-0.3,0.2c1.2,2.4,1.7,5,2.3,7.6c0,0.2,0.3,0.1,0.3,0C70.4,304.3,69.2,301.7,67.9,299.4z"/>
			<path d="M76.7,293.7c0,1-0.4,2.2-0.7,3.1c-0.3,1-0.7,2-1.1,3c-0.4,0.8-1,1.6-1.8,2c-0.8,0.4-1.5,0-2.2-0.5
				c1.5,0.3,2.9-0.8,3.7-2.2C75.2,297.9,76.1,295.3,76.7,293.7z"/>
			<path d="M75.7,300.8c-0.5,0.7-0.9,1.4-1.4,2.2c-0.4,0.7-0.8,1.5-1,2.3c-0.2,0.8-0.3,1.7-0.2,2.5c0,0.9,0.3,1.8,0.5,2.7
				c0,0.1,0.2,0.1,0.2,0c-0.1-0.8,0-1.7,0.1-2.5c0-0.8,0.1-1.6,0.3-2.4c0.4-1.6,1.2-3,1.9-4.5C76,300.8,75.8,300.6,75.7,300.8z"/>
			<path d="M72.5,305.5c0-0.8-0.1-1.6-0.3-2.4c0-0.1-0.2-0.1-0.2,0c-0.1,0.8,0,1.6,0.1,2.4c0.1,0.9,0.1,1.7,0.2,2.6
				c0,0.1,0.2,0.1,0.2,0C72.5,307.2,72.6,306.3,72.5,305.5z"/>
			<path d="M70.5,301.8c-0.1-0.1-0.2,0-0.2,0.1c0.3,0.5,0.4,1.1,0.6,1.7c0.1,0.1,0.2,0.1,0.2-0.1C71.1,302.9,70.8,302.3,70.5,301.8z
				"/>
			<path d="M79.2,299c-1.1,1.2-2.1,2.6-2.7,4.2c-0.7,1.8-0.6,3.6-0.4,5.5c0,0.2,0.2,0.2,0.3,0c0.1-1.7,0.3-3.6,0.8-5.2
				c0.5-1.6,1.4-2.9,2.3-4.3C79.5,299.1,79.3,298.9,79.2,299z"/>
			<path d="M84.2,291.7c-0.2,0.3-0.4,0.5-0.5,0.8c-0.5,0.8-1,1.6-1.5,2.4c-0.9,1.3-2,2.3-3.4,2.9C80.5,296.1,82.7,293.5,84.2,291.7z
				"/>
			<path d="M82.6,296.4c-0.5,0.2-1.1,0.5-1.5,0.9c-0.4,0.3-0.9,0.6-1,1.1c0,0,0,0.1,0.1,0.1c0.4-0.1,0.9-0.6,1.2-0.8
				c0.4-0.4,0.9-0.7,1.3-1.1C82.7,296.5,82.6,296.4,82.6,296.4z"/>
			<path d="M93.3,293.3c-2.1,0.8-6.9,2.4-9.6,3.3c1.6-0.9,3.3-1.5,4.9-2.1C90.2,294.1,91.8,293.6,93.3,293.3z"/>
		</g>
	</g>
</g>
</svg>
