<svg width="49" height="47" viewBox="0 0 49 47" fill="none" xmlns="http://www.w3.org/2000/svg">
<ellipse cx="24.0122" cy="23.4405" rx="24.0122" ry="23.4405" fill="#00B533"/>
<path d="M33.6442 13.1056L10.7431 21.6276C9.19868 22.1661 9.17038 23.1831 10.4127 23.5084L16.0565 25.5555L18.0854 32.5905C18.343 33.3246 18.196 33.6113 18.8907 33.6307C19.4464 33.6461 19.7324 33.3633 20.0183 33.0805C20.1613 32.9391 21.4481 31.6664 22.8779 30.2524L28.5878 34.9183C29.6831 35.5303 30.3859 35.2591 30.7001 33.9593L35.12 15.0367C35.5812 13.4503 34.633 12.5515 33.6442 13.1056ZM30.6053 17.3826L19.4813 27.3955L18.9311 32.1779L16.9022 25.1429L29.9187 17.0727C30.4866 16.6524 31.0342 16.9584 30.6053 17.3826Z" fill="white"/>
</svg>
