<svg width="48" height="47" viewBox="0 0 48 47" fill="none" xmlns="http://www.w3.org/2000/svg">
<circle cx="24.4766" cy="23.5" r="23.5" fill="#00B533"/>
<path fill-rule="evenodd" clip-rule="evenodd" d="M21.6556 27.0201L21.6547 19.4205L28.9112 23.2334L21.6556 27.0201ZM37.5886 18.1036C37.5886 18.1036 37.3259 16.2399 36.521 15.4192C35.4996 14.3415 34.3548 14.3364 33.8302 14.2739C30.0719 14 24.4344 14 24.4344 14H24.4227C24.4227 14 18.7852 14 15.0269 14.2739C14.5015 14.3364 13.3576 14.3415 12.3353 15.4192C11.5304 16.2399 11.2686 18.1036 11.2686 18.1036C11.2686 18.1036 11 20.2928 11 22.4811V24.5334C11 26.7226 11.2686 28.9109 11.2686 28.9109C11.2686 28.9109 11.5304 30.7746 12.3353 31.5954C13.3576 32.673 14.6996 32.6392 15.2971 32.7516C17.4457 32.9596 24.4286 33.0238 24.4286 33.0238C24.4286 33.0238 30.0719 33.0154 33.8302 32.7415C34.3548 32.6781 35.4996 32.673 36.521 31.5954C37.3259 30.7746 37.5886 28.9109 37.5886 28.9109C37.5886 28.9109 37.8571 26.7226 37.8571 24.5334V22.4811C37.8571 20.2928 37.5886 18.1036 37.5886 18.1036Z" fill="white"/>
</svg>
